%TF.GenerationSoftware,KiCad,Pcbnew,8.0.4-8.0.4-0~ubuntu20.04.1*%
%TF.CreationDate,2024-09-04T15:52:02+02:00*%
%TF.ProjectId,BLDC_4,424c4443-5f34-42e6-9b69-6361645f7063,A*%
%TF.SameCoordinates,Original*%
%TF.FileFunction,Soldermask,Bot*%
%TF.FilePolarity,Negative*%
%FSLAX46Y46*%
G04 Gerber Fmt 4.6, Leading zero omitted, Abs format (unit mm)*
G04 Created by KiCad (PCBNEW 8.0.4-8.0.4-0~ubuntu20.04.1) date 2024-09-04 15:52:02*
%MOMM*%
%LPD*%
G01*
G04 APERTURE LIST*
G04 Aperture macros list*
%AMRotRect*
0 Rectangle, with rotation*
0 The origin of the aperture is its center*
0 $1 length*
0 $2 width*
0 $3 Rotation angle, in degrees counterclockwise*
0 Add horizontal line*
21,1,$1,$2,0,0,$3*%
G04 Aperture macros list end*
%ADD10O,1.524000X3.048000*%
%ADD11C,1.300480*%
%ADD12R,1.699260X1.300000*%
%ADD13O,1.699260X1.300000*%
%ADD14O,1.700000X1.350000*%
%ADD15O,1.500000X1.100000*%
%ADD16R,1.300000X1.300000*%
%ADD17C,1.300000*%
%ADD18R,2.499360X1.950720*%
%ADD19R,5.499100X1.849120*%
%ADD20R,0.797560X0.797560*%
%ADD21R,4.000000X5.000000*%
%ADD22R,2.540000X5.588000*%
%ADD23R,2.540000X0.889000*%
%ADD24R,1.400000X1.200000*%
%ADD25R,2.540000X1.699260*%
%ADD26R,10.800080X8.150860*%
%ADD27R,0.899160X3.200400*%
%ADD28R,0.635000X1.143000*%
%ADD29RotRect,0.635000X1.143000X225.000000*%
%ADD30R,1.143000X0.635000*%
%ADD31R,1.524000X2.032000*%
%ADD32R,2.032000X1.016000*%
%ADD33R,2.032000X3.657600*%
%ADD34R,3.500120X1.800860*%
G04 APERTURE END LIST*
D10*
%TO.C,K1*%
X108712000Y-136398000D03*
X111252000Y-136398000D03*
X113792000Y-136398000D03*
%TD*%
D11*
%TO.C,P1*%
X82098740Y-137200000D03*
X84100260Y-137200000D03*
X86099240Y-137200000D03*
X88100760Y-137200000D03*
X90099740Y-137200000D03*
X92101260Y-137200000D03*
%TD*%
%TO.C,P2*%
X114300000Y-122252740D03*
X114300000Y-124254260D03*
X114300000Y-126253240D03*
X114300000Y-128254760D03*
X114300000Y-130253740D03*
X114300000Y-132255260D03*
%TD*%
D12*
%TO.C,P101*%
X80450000Y-119728280D03*
D13*
X80450000Y-117726760D03*
X80450000Y-115725240D03*
X80450000Y-113726260D03*
%TD*%
D14*
%TO.C,X1*%
X80370000Y-127270000D03*
D15*
X83370000Y-127580000D03*
X83370000Y-132420000D03*
D14*
X80370000Y-132730000D03*
%TD*%
D16*
%TO.C,P3*%
X114300000Y-118018560D03*
D17*
X114300000Y-116017040D03*
X114300000Y-114015520D03*
X114300000Y-112016540D03*
X114300000Y-110015020D03*
X114300000Y-108013500D03*
X114300000Y-106014520D03*
%TD*%
D18*
%TO.C,C25*%
X80391000Y-125222000D03*
X80391000Y-122174000D03*
%TD*%
%TO.C,C33*%
X83000000Y-116776000D03*
X83000000Y-119824000D03*
%TD*%
D19*
%TO.C,C51*%
X110490000Y-120431560D03*
X110490000Y-115280440D03*
%TD*%
D20*
%TO.C,D1*%
X111887000Y-123939300D03*
X111887000Y-122440700D03*
%TD*%
%TO.C,D2*%
X110450000Y-123949300D03*
X110450000Y-122450700D03*
%TD*%
%TO.C,D3*%
X109050000Y-123949300D03*
X109050000Y-122450700D03*
%TD*%
D21*
%TO.C,P4*%
X81661000Y-108077000D03*
%TD*%
%TO.C,P5*%
X97536000Y-105664000D03*
%TD*%
D22*
%TO.C,R53*%
X102362000Y-105664000D03*
X107442000Y-105664000D03*
D23*
X102362000Y-109791500D03*
X107442000Y-109791500D03*
%TD*%
D24*
%TO.C,X2*%
X97100000Y-132250000D03*
X99300000Y-132250000D03*
X99300000Y-133950000D03*
X97100000Y-133950000D03*
%TD*%
D22*
%TO.C,R54*%
X87630000Y-105410000D03*
X92710000Y-105410000D03*
D23*
X87630000Y-109537500D03*
X92710000Y-109537500D03*
%TD*%
D25*
%TO.C,D5*%
X112092740Y-133096000D03*
X108633260Y-133096000D03*
%TD*%
D26*
%TO.C,Q6*%
X84836000Y-89984580D03*
D27*
X88646000Y-100586540D03*
X87376000Y-100586540D03*
X86106000Y-100586540D03*
X83566000Y-100586540D03*
X82296000Y-100586540D03*
X81026000Y-100586540D03*
%TD*%
D26*
%TO.C,Q2*%
X110744000Y-89984580D03*
D27*
X114554000Y-100586540D03*
X113284000Y-100586540D03*
X112014000Y-100586540D03*
X109474000Y-100586540D03*
X108204000Y-100586540D03*
X106934000Y-100586540D03*
%TD*%
D26*
%TO.C,Q4*%
X97917000Y-89984580D03*
D27*
X101727000Y-100586540D03*
X100457000Y-100586540D03*
X99187000Y-100586540D03*
X96647000Y-100586540D03*
X95377000Y-100586540D03*
X94107000Y-100586540D03*
%TD*%
D28*
%TO.C,C2*%
X82538000Y-129700000D03*
X84062000Y-129700000D03*
%TD*%
D29*
%TO.C,C3*%
X112552815Y-128747185D03*
X111475185Y-129824815D03*
%TD*%
D30*
%TO.C,C4*%
X80500000Y-133738000D03*
X80500000Y-135262000D03*
%TD*%
%TO.C,C5*%
X92456000Y-132588000D03*
X92456000Y-131064000D03*
%TD*%
%TO.C,C6*%
X90900000Y-132562000D03*
X90900000Y-131038000D03*
%TD*%
%TO.C,C7*%
X86350000Y-132562000D03*
X86350000Y-131038000D03*
%TD*%
D31*
%TO.C,C9*%
X102549000Y-116300000D03*
X105851000Y-116300000D03*
%TD*%
D30*
%TO.C,C14*%
X96012000Y-124079000D03*
X96012000Y-125603000D03*
%TD*%
D28*
%TO.C,C15*%
X96774000Y-130810000D03*
X98298000Y-130810000D03*
%TD*%
D30*
%TO.C,C16*%
X107600000Y-126762000D03*
X107600000Y-125238000D03*
%TD*%
%TO.C,C17*%
X97663000Y-125603000D03*
X97663000Y-124079000D03*
%TD*%
D28*
%TO.C,C18*%
X100203000Y-121285000D03*
X101727000Y-121285000D03*
%TD*%
D30*
%TO.C,C20*%
X105918000Y-123571000D03*
X105918000Y-122047000D03*
%TD*%
%TO.C,C24*%
X85090000Y-123698000D03*
X85090000Y-122174000D03*
%TD*%
D28*
%TO.C,C31*%
X103251000Y-133858000D03*
X104775000Y-133858000D03*
%TD*%
%TO.C,C32*%
X95250000Y-135763000D03*
X93726000Y-135763000D03*
%TD*%
%TO.C,C38*%
X101092000Y-130810000D03*
X99568000Y-130810000D03*
%TD*%
D31*
%TO.C,C40*%
X105537000Y-111760000D03*
X108839000Y-111760000D03*
%TD*%
%TO.C,C43*%
X92329000Y-112268000D03*
X95631000Y-112268000D03*
%TD*%
%TO.C,C44*%
X94488000Y-116205000D03*
X97790000Y-116205000D03*
%TD*%
%TO.C,C49*%
X94488000Y-118618000D03*
X97790000Y-118618000D03*
%TD*%
D30*
%TO.C,C52*%
X107442000Y-123571000D03*
X107442000Y-122047000D03*
%TD*%
%TO.C,R3*%
X85200000Y-125338000D03*
X85200000Y-126862000D03*
%TD*%
%TO.C,R4*%
X85200000Y-129762000D03*
X85200000Y-128238000D03*
%TD*%
%TO.C,R5*%
X106426000Y-131572000D03*
X106426000Y-133096000D03*
%TD*%
D28*
%TO.C,R6*%
X80962000Y-129300000D03*
X79438000Y-129300000D03*
%TD*%
D30*
%TO.C,R7*%
X83312000Y-135762000D03*
X83312000Y-134238000D03*
%TD*%
%TO.C,R8*%
X86360000Y-135128000D03*
X86360000Y-133604000D03*
%TD*%
%TO.C,R9*%
X89408000Y-135128000D03*
X89408000Y-133604000D03*
%TD*%
%TO.C,R10*%
X92456000Y-135128000D03*
X92456000Y-133604000D03*
%TD*%
%TO.C,R11*%
X90932000Y-135128000D03*
X90932000Y-133604000D03*
%TD*%
%TO.C,R12*%
X87884000Y-135128000D03*
X87884000Y-133604000D03*
%TD*%
%TO.C,R13*%
X84836000Y-135128000D03*
X84836000Y-133604000D03*
%TD*%
D28*
%TO.C,R21*%
X93472000Y-121666000D03*
X94996000Y-121666000D03*
%TD*%
D30*
%TO.C,R22*%
X109100000Y-125238000D03*
X109100000Y-126762000D03*
%TD*%
D28*
%TO.C,R23*%
X87503000Y-128524000D03*
X89027000Y-128524000D03*
%TD*%
%TO.C,R24*%
X93462000Y-128050000D03*
X91938000Y-128050000D03*
%TD*%
%TO.C,R26*%
X87503000Y-127000000D03*
X89027000Y-127000000D03*
%TD*%
%TO.C,R27*%
X93462000Y-126550000D03*
X91938000Y-126550000D03*
%TD*%
%TO.C,R29*%
X114808000Y-103124000D03*
X113284000Y-103124000D03*
%TD*%
D30*
%TO.C,R30*%
X104394000Y-96901000D03*
X104394000Y-95377000D03*
%TD*%
D28*
%TO.C,R32*%
X87488000Y-125450000D03*
X89012000Y-125450000D03*
%TD*%
%TO.C,R33*%
X93462000Y-125050000D03*
X91938000Y-125050000D03*
%TD*%
D30*
%TO.C,R35*%
X104394000Y-100584000D03*
X104394000Y-102108000D03*
%TD*%
%TO.C,R36*%
X104394000Y-98044000D03*
X104394000Y-99568000D03*
%TD*%
%TO.C,R37*%
X112100000Y-125238000D03*
X112100000Y-126762000D03*
%TD*%
%TO.C,R38*%
X110600000Y-125238000D03*
X110600000Y-126762000D03*
%TD*%
%TO.C,R43*%
X91186000Y-100076000D03*
X91186000Y-101600000D03*
%TD*%
%TO.C,R46*%
X91186000Y-97282000D03*
X91186000Y-98806000D03*
%TD*%
D28*
%TO.C,R402*%
X83962000Y-131200000D03*
X82438000Y-131200000D03*
%TD*%
D32*
%TO.C,U2*%
X85598000Y-120650000D03*
X85598000Y-118364000D03*
D33*
X92202000Y-118364000D03*
D32*
X85598000Y-116078000D03*
%TD*%
D34*
%TO.C,D4*%
X84495640Y-113030000D03*
X89494360Y-113030000D03*
%TD*%
D28*
%TO.C,C26*%
X100203000Y-119888000D03*
X101727000Y-119888000D03*
%TD*%
G36*
X87572121Y-98826002D02*
G01*
X87618614Y-98879658D01*
X87630000Y-98932000D01*
X87630000Y-105538000D01*
X87609998Y-105606121D01*
X87556342Y-105652614D01*
X87504000Y-105664000D01*
X85904190Y-105664000D01*
X85836069Y-105643998D01*
X85815095Y-105627095D01*
X83566001Y-103378000D01*
X80390000Y-103378000D01*
X80321879Y-103357998D01*
X80275386Y-103304342D01*
X80264000Y-103252000D01*
X80264000Y-98932000D01*
X80284002Y-98863879D01*
X80337658Y-98817386D01*
X80390000Y-98806000D01*
X87504000Y-98806000D01*
X87572121Y-98826002D01*
G37*
G36*
X112283931Y-97556002D02*
G01*
X112304905Y-97572905D01*
X113247095Y-98515095D01*
X113281121Y-98577407D01*
X113284000Y-98604190D01*
X113284000Y-101801810D01*
X113263998Y-101869931D01*
X113247095Y-101890905D01*
X109256905Y-105881095D01*
X109194593Y-105915121D01*
X109167810Y-105918000D01*
X106679000Y-105918000D01*
X106610879Y-105897998D01*
X106564386Y-105844342D01*
X106553000Y-105792000D01*
X106553000Y-98477190D01*
X106573002Y-98409069D01*
X106589905Y-98388095D01*
X107405095Y-97572905D01*
X107467407Y-97538879D01*
X107494190Y-97536000D01*
X112215810Y-97536000D01*
X112283931Y-97556002D01*
G37*
G36*
X100653121Y-101239002D02*
G01*
X100699614Y-101292658D01*
X100711000Y-101345000D01*
X100711000Y-102870000D01*
X101093000Y-102870000D01*
X101161121Y-102890002D01*
X101207614Y-102943658D01*
X101219000Y-102996000D01*
X101219000Y-107951000D01*
X101198998Y-108019121D01*
X101145342Y-108065614D01*
X101093000Y-108077000D01*
X93979000Y-108077000D01*
X93910879Y-108056998D01*
X93864386Y-108003342D01*
X93853000Y-107951000D01*
X93853000Y-101345000D01*
X93873002Y-101276879D01*
X93926658Y-101230386D01*
X93979000Y-101219000D01*
X100585000Y-101219000D01*
X100653121Y-101239002D01*
G37*
M02*
