%TF.GenerationSoftware,KiCad,Pcbnew,8.0.4-8.0.4-0~ubuntu20.04.1*%
%TF.CreationDate,2024-09-04T15:52:01+02:00*%
%TF.ProjectId,BLDC_4,424c4443-5f34-42e6-9b69-6361645f7063,A*%
%TF.SameCoordinates,Original*%
%TF.FileFunction,Copper,L1,Top*%
%TF.FilePolarity,Positive*%
%FSLAX46Y46*%
G04 Gerber Fmt 4.6, Leading zero omitted, Abs format (unit mm)*
G04 Created by KiCad (PCBNEW 8.0.4-8.0.4-0~ubuntu20.04.1) date 2024-09-04 15:52:01*
%MOMM*%
%LPD*%
G01*
G04 APERTURE LIST*
G04 Aperture macros list*
%AMRotRect*
0 Rectangle, with rotation*
0 The origin of the aperture is its center*
0 $1 length*
0 $2 width*
0 $3 Rotation angle, in degrees counterclockwise*
0 Add horizontal line*
21,1,$1,$2,0,0,$3*%
G04 Aperture macros list end*
%TA.AperFunction,SMDPad,CuDef*%
%ADD10R,1.849120X5.499100*%
%TD*%
%TA.AperFunction,ComponentPad*%
%ADD11O,1.524000X3.048000*%
%TD*%
%TA.AperFunction,ComponentPad*%
%ADD12C,1.300480*%
%TD*%
%TA.AperFunction,SMDPad,CuDef*%
%ADD13R,5.000000X4.000000*%
%TD*%
%TA.AperFunction,SMDPad,CuDef*%
%ADD14R,10.800080X8.150860*%
%TD*%
%TA.AperFunction,SMDPad,CuDef*%
%ADD15R,0.899160X3.200400*%
%TD*%
%TA.AperFunction,SMDPad,CuDef*%
%ADD16R,0.300000X1.300480*%
%TD*%
%TA.AperFunction,SMDPad,CuDef*%
%ADD17R,1.300480X0.300000*%
%TD*%
%TA.AperFunction,SMDPad,CuDef*%
%ADD18R,0.299720X1.501140*%
%TD*%
%TA.AperFunction,SMDPad,CuDef*%
%ADD19R,7.000240X3.599180*%
%TD*%
%TA.AperFunction,ComponentPad*%
%ADD20R,1.699260X1.300000*%
%TD*%
%TA.AperFunction,ComponentPad*%
%ADD21O,1.699260X1.300000*%
%TD*%
%TA.AperFunction,SMDPad,CuDef*%
%ADD22R,1.524000X2.032000*%
%TD*%
%TA.AperFunction,SMDPad,CuDef*%
%ADD23R,1.143000X0.635000*%
%TD*%
%TA.AperFunction,SMDPad,CuDef*%
%ADD24RotRect,0.635000X1.143000X45.000000*%
%TD*%
%TA.AperFunction,SMDPad,CuDef*%
%ADD25R,0.635000X1.143000*%
%TD*%
%TA.AperFunction,SMDPad,CuDef*%
%ADD26R,2.032000X1.524000*%
%TD*%
%TA.AperFunction,SMDPad,CuDef*%
%ADD27R,1.399540X0.599440*%
%TD*%
%TA.AperFunction,SMDPad,CuDef*%
%ADD28R,1.650000X0.400000*%
%TD*%
%TA.AperFunction,SMDPad,CuDef*%
%ADD29R,0.700000X1.825000*%
%TD*%
%TA.AperFunction,SMDPad,CuDef*%
%ADD30R,1.500000X2.000000*%
%TD*%
%TA.AperFunction,SMDPad,CuDef*%
%ADD31R,2.000000X1.350000*%
%TD*%
%TA.AperFunction,ComponentPad*%
%ADD32O,1.700000X1.350000*%
%TD*%
%TA.AperFunction,ComponentPad*%
%ADD33O,1.500000X1.100000*%
%TD*%
%TA.AperFunction,SMDPad,CuDef*%
%ADD34R,2.500000X1.430000*%
%TD*%
%TA.AperFunction,ComponentPad*%
%ADD35R,1.300000X1.300000*%
%TD*%
%TA.AperFunction,ComponentPad*%
%ADD36C,1.300000*%
%TD*%
%TA.AperFunction,SMDPad,CuDef*%
%ADD37R,2.997200X7.498080*%
%TD*%
%TA.AperFunction,ViaPad*%
%ADD38C,0.900000*%
%TD*%
%TA.AperFunction,ViaPad*%
%ADD39C,1.524000*%
%TD*%
%TA.AperFunction,Conductor*%
%ADD40C,0.254000*%
%TD*%
%TA.AperFunction,Conductor*%
%ADD41C,0.635000*%
%TD*%
%TA.AperFunction,Conductor*%
%ADD42C,1.270000*%
%TD*%
%TA.AperFunction,Conductor*%
%ADD43C,0.304800*%
%TD*%
%TA.AperFunction,Conductor*%
%ADD44C,1.016000*%
%TD*%
%TA.AperFunction,Conductor*%
%ADD45C,0.508000*%
%TD*%
%TA.AperFunction,Conductor*%
%ADD46C,0.203200*%
%TD*%
%TA.AperFunction,Conductor*%
%ADD47C,0.406400*%
%TD*%
%TA.AperFunction,Conductor*%
%ADD48C,2.286000*%
%TD*%
%TA.AperFunction,Conductor*%
%ADD49C,5.080000*%
%TD*%
%TA.AperFunction,Conductor*%
%ADD50C,0.889000*%
%TD*%
G04 APERTURE END LIST*
D10*
%TO.P,C37,1*%
%TO.N,GND*%
X93380560Y-105918000D03*
%TO.P,C37,2*%
%TO.N,V_SUPPLY*%
X88229440Y-105918000D03*
%TD*%
D11*
%TO.P,K1,1,P1*%
%TO.N,Net-(K1-P1)*%
X108712000Y-136398000D03*
%TO.P,K1,2,PM*%
%TO.N,+5V*%
X111252000Y-136398000D03*
%TO.P,K1,3,P3*%
%TO.N,GND*%
X113792000Y-136398000D03*
%TD*%
D12*
%TO.P,P1,1,1*%
%TO.N,+5V*%
X82098740Y-137200000D03*
%TO.P,P1,2,2*%
%TO.N,/Filters/TEMP_MOTOR*%
X84100260Y-137200000D03*
%TO.P,P1,3,3*%
%TO.N,/Filters/HALL1_IN*%
X86099240Y-137200000D03*
%TO.P,P1,4,4*%
%TO.N,/Filters/HALL2_IN*%
X88100760Y-137200000D03*
%TO.P,P1,5,5*%
%TO.N,/Filters/HALL3_IN*%
X90099740Y-137200000D03*
%TO.P,P1,6,6*%
%TO.N,GND*%
X92101260Y-137200000D03*
%TD*%
%TO.P,P2,1,1*%
%TO.N,VCC*%
X114300000Y-122252740D03*
%TO.P,P2,2,2*%
%TO.N,SWCLK*%
X114300000Y-124254260D03*
%TO.P,P2,3,3*%
%TO.N,GND*%
X114300000Y-126253240D03*
%TO.P,P2,4,4*%
%TO.N,SWDIO*%
X114300000Y-128254760D03*
%TO.P,P2,5,5*%
%TO.N,NRST*%
X114300000Y-130253740D03*
%TO.P,P2,6,6*%
%TO.N,unconnected-(P2-Pad6)*%
X114300000Y-132255260D03*
%TD*%
D13*
%TO.P,P6,1,1*%
%TO.N,/Mosfet driver/H3_VS*%
X85090000Y-82804000D03*
%TD*%
%TO.P,P9,1,1*%
%TO.N,/Mosfet driver/H1_VS*%
X109474000Y-82804000D03*
%TD*%
D14*
%TO.P,Q1,D,D*%
%TO.N,V_SUPPLY*%
X110744000Y-97848420D03*
D15*
%TO.P,Q1,G,G*%
%TO.N,Net-(Q1-PadG)*%
X114554000Y-87246460D03*
%TO.P,Q1,S,S*%
%TO.N,/Mosfet driver/H1_VS*%
X113284000Y-87246460D03*
X112014000Y-87246460D03*
X109474000Y-87246460D03*
X108204000Y-87246460D03*
X106934000Y-87246460D03*
%TD*%
D14*
%TO.P,Q3,D,D*%
%TO.N,V_SUPPLY*%
X97917000Y-97848420D03*
D15*
%TO.P,Q3,G,G*%
%TO.N,Net-(Q3-PadG)*%
X101727000Y-87246460D03*
%TO.P,Q3,S,S*%
%TO.N,/Mosfet driver/H2_VS*%
X100457000Y-87246460D03*
X99187000Y-87246460D03*
X96647000Y-87246460D03*
X95377000Y-87246460D03*
X94107000Y-87246460D03*
%TD*%
D14*
%TO.P,Q5,D,D*%
%TO.N,V_SUPPLY*%
X84709000Y-97848420D03*
D15*
%TO.P,Q5,G,G*%
%TO.N,Net-(Q5-PadG)*%
X88519000Y-87246460D03*
%TO.P,Q5,S,S*%
%TO.N,/Mosfet driver/H3_VS*%
X87249000Y-87246460D03*
X85979000Y-87246460D03*
X83439000Y-87246460D03*
X82169000Y-87246460D03*
X80899000Y-87246460D03*
%TD*%
D16*
%TO.P,U1,1,VBAT*%
%TO.N,VCC*%
X97088960Y-136814560D03*
%TO.P,U1,2,PC13_(RTC_AF1)*%
%TO.N,unconnected-(U1-PC13_(RTC_AF1)-Pad2)*%
X97586800Y-136814560D03*
%TO.P,U1,3,PC14-OSC32_IN*%
%TO.N,unconnected-(U1-PC14-OSC32_IN-Pad3)*%
X98087180Y-136814560D03*
%TO.P,U1,4,PC15-OSC32_OUT*%
%TO.N,unconnected-(U1-PC15-OSC32_OUT-Pad4)*%
X98587560Y-136814560D03*
%TO.P,U1,5,PH0-OSC_IN*%
%TO.N,Net-(U1-PH0-OSC_IN)*%
X99087940Y-136814560D03*
%TO.P,U1,6,PH1-OSC_OUT*%
%TO.N,Net-(U1-PH1-OSC_OUT)*%
X99588320Y-136814560D03*
%TO.P,U1,7,NRST*%
%TO.N,NRST*%
X100088700Y-136814560D03*
%TO.P,U1,8,PC0(ADC123_IN10)*%
%TO.N,/Filters/TEMP_MOTOR*%
X100589080Y-136814560D03*
%TO.P,U1,9,PC1(ADC123_IN11)*%
%TO.N,unconnected-(U1-PC1(ADC123_IN11)-Pad9)*%
X101086920Y-136814560D03*
%TO.P,U1,10,PC2(ADC123_IN12)*%
%TO.N,/MCU/AN_IN*%
X101587300Y-136814560D03*
%TO.P,U1,11,PC3(ADC123_IN13)*%
%TO.N,unconnected-(U1-PC3(ADC123_IN13)-Pad11)*%
X102087680Y-136814560D03*
%TO.P,U1,12,VSSA*%
%TO.N,GND*%
X102588060Y-136814560D03*
%TO.P,U1,13,VDDA*%
%TO.N,VCC*%
X103088440Y-136814560D03*
%TO.P,U1,14,PA0(ADC123_IN0/WKUP)*%
%TO.N,/MCU/SENS3*%
X103588820Y-136814560D03*
%TO.P,U1,15,PA1(ADC123_IN1)*%
%TO.N,/MCU/SENS2*%
X104089200Y-136814560D03*
%TO.P,U1,16,PA2(ADC123_IN2)*%
%TO.N,/MCU/SENS1*%
X104587040Y-136814560D03*
D17*
%TO.P,U1,17,PA3(ADC123_IN3)*%
%TO.N,/MCU/ADC_TEMP*%
X106588560Y-134813040D03*
%TO.P,U1,18,VSS*%
%TO.N,GND*%
X106588560Y-134315200D03*
%TO.P,U1,19,VDD*%
%TO.N,VCC*%
X106588560Y-133814820D03*
%TO.P,U1,20,PA4(ADC12_IN4/DAC1_OUT)*%
%TO.N,/TX_SDA*%
X106588560Y-133314440D03*
%TO.P,U1,21,PA5(ADC12_IN5/DAC2_OUT)*%
%TO.N,/SCK_ADC_EXT*%
X106588560Y-132814060D03*
%TO.P,U1,22,PA6(ADC12_IN6)*%
%TO.N,/MISO_RX_SCL*%
X106588560Y-132313680D03*
%TO.P,U1,23,PA7(ADC12_IN7)*%
%TO.N,/RX_SCL_MOSI*%
X106588560Y-131813300D03*
%TO.P,U1,24,PC4(ADC12_IN14)*%
%TO.N,/MCU/LED_GREEN*%
X106588560Y-131312920D03*
%TO.P,U1,25,PC5(ADC12_IN15)*%
%TO.N,/MCU/LED_RED*%
X106588560Y-130815080D03*
%TO.P,U1,26,PB0(ADC12_IN8)*%
%TO.N,/MCU/BR_SO2*%
X106588560Y-130314700D03*
%TO.P,U1,27,PB1(ADC12_IN9)*%
%TO.N,/MCU/BR_SO1*%
X106588560Y-129814320D03*
%TO.P,U1,28,PB2-BOOT1*%
%TO.N,unconnected-(U1-PB2-BOOT1-Pad28)*%
X106588560Y-129313940D03*
%TO.P,U1,29,PB10*%
%TO.N,/RX_SCL_MOSI*%
X106588560Y-128813560D03*
%TO.P,U1,30,PB11*%
%TO.N,/TX_SDA*%
X106588560Y-128313180D03*
%TO.P,U1,31,VCAP1*%
%TO.N,Net-(U1-VCAP1)*%
X106588560Y-127812800D03*
%TO.P,U1,32,VDD*%
%TO.N,VCC*%
X106588560Y-127314960D03*
D16*
%TO.P,U1,33,PB12*%
%TO.N,/MCU/DC_CAL*%
X104587040Y-125313440D03*
%TO.P,U1,34,PB13(OTG_HS_VBUS)*%
%TO.N,/MCU/L3*%
X104089200Y-125313440D03*
%TO.P,U1,35,PB14*%
%TO.N,/MCU/L2*%
X103588820Y-125313440D03*
%TO.P,U1,36,PB15*%
%TO.N,/MCU/L1*%
X103088440Y-125313440D03*
%TO.P,U1,37,PC6*%
%TO.N,/TX_SDA*%
X102588060Y-125313440D03*
%TO.P,U1,38,PC7*%
%TO.N,/RX_SCL_MOSI*%
X102087680Y-125313440D03*
%TO.P,U1,39,PC8*%
%TO.N,unconnected-(U1-PC8-Pad39)*%
X101587300Y-125313440D03*
%TO.P,U1,40,PC9*%
%TO.N,unconnected-(U1-PC9-Pad40)*%
X101086920Y-125313440D03*
%TO.P,U1,41,PA8*%
%TO.N,/MCU/H3*%
X100589080Y-125313440D03*
%TO.P,U1,42,PA9(OTG_FS_VBUS)*%
%TO.N,/MCU/H2*%
X100088700Y-125313440D03*
%TO.P,U1,43,PA10*%
%TO.N,/MCU/H1*%
X99588320Y-125313440D03*
%TO.P,U1,44,PA11*%
%TO.N,/MCU/USB_DM*%
X99087940Y-125313440D03*
%TO.P,U1,45,PA12*%
%TO.N,/MCU/USB_DP*%
X98587560Y-125313440D03*
%TO.P,U1,46,PA13(JTMS-SWDIO)*%
%TO.N,SWDIO*%
X98087180Y-125313440D03*
%TO.P,U1,47,VCAP2*%
%TO.N,Net-(U1-VCAP2)*%
X97586800Y-125313440D03*
%TO.P,U1,48,VDD*%
%TO.N,VCC*%
X97088960Y-125313440D03*
D17*
%TO.P,U1,49,PA14(JTCK-SWCLK)*%
%TO.N,SWCLK*%
X95087440Y-127314960D03*
%TO.P,U1,50,PA15(JTDI)*%
%TO.N,unconnected-(U1-PA15(JTDI)-Pad50)*%
X95087440Y-127812800D03*
%TO.P,U1,51,PC10*%
%TO.N,/MCU/EN_GATE*%
X95087440Y-128313180D03*
%TO.P,U1,52,PC11*%
%TO.N,/Filters/HALL3_OUT*%
X95087440Y-128813560D03*
%TO.P,U1,53,PC12*%
%TO.N,/MCU/FAULT*%
X95087440Y-129313940D03*
%TO.P,U1,54,PD2*%
%TO.N,unconnected-(U1-PD2-Pad54)*%
X95087440Y-129814320D03*
%TO.P,U1,55,PB3(JTDO/TRACESWO)*%
%TO.N,unconnected-(U1-PB3(JTDO{slash}TRACESWO)-Pad55)*%
X95087440Y-130314700D03*
%TO.P,U1,56,PB4(NJTRST)*%
%TO.N,unconnected-(U1-PB4(NJTRST)-Pad56)*%
X95087440Y-130815080D03*
%TO.P,U1,57,PB5*%
%TO.N,/MCU/SERVO*%
X95087440Y-131312920D03*
%TO.P,U1,58,PB6*%
%TO.N,/Filters/HALL1_OUT*%
X95087440Y-131813300D03*
%TO.P,U1,59,PB7*%
%TO.N,/Filters/HALL2_OUT*%
X95087440Y-132313680D03*
%TO.P,U1,60,BOOT0(VPP)*%
%TO.N,GND*%
X95087440Y-132814060D03*
%TO.P,U1,61,PB8*%
%TO.N,/CAN bus transceiver/CAN_RX*%
X95087440Y-133314440D03*
%TO.P,U1,62,PB9*%
%TO.N,/CAN bus transceiver/CAN_TX*%
X95087440Y-133814820D03*
%TO.P,U1,63,VSS*%
%TO.N,GND*%
X95087440Y-134315200D03*
%TO.P,U1,64,VDD*%
%TO.N,VCC*%
X95087440Y-134813040D03*
%TD*%
D18*
%TO.P,U3,1,RT_CLK*%
%TO.N,Net-(U3-RT_CLK)*%
X95158560Y-119824500D03*
%TO.P,U3,2,COMP*%
%TO.N,Net-(U3-COMP)*%
X95656400Y-119824500D03*
%TO.P,U3,3,VSENSE*%
%TO.N,Net-(U3-VSENSE)*%
X96156780Y-119824500D03*
%TO.P,U3,4,PWRGD*%
%TO.N,unconnected-(U3-PWRGD-Pad4)*%
X96657160Y-119824500D03*
%TO.P,U3,5,OCTW*%
%TO.N,unconnected-(U3-OCTW-Pad5)*%
X97157540Y-119824500D03*
%TO.P,U3,6,FAULT*%
%TO.N,/MCU/FAULT*%
X97657920Y-119824500D03*
%TO.P,U3,7,DTC*%
%TO.N,Net-(U3-DTC)*%
X98158300Y-119824500D03*
%TO.P,U3,8,M_PWM*%
%TO.N,GND*%
X98656140Y-119824500D03*
%TO.P,U3,9,M_OC*%
%TO.N,VCC*%
X99156520Y-119824500D03*
%TO.P,U3,10,GAIN*%
%TO.N,GND*%
X99656900Y-119824500D03*
%TO.P,U3,11,OC_ADJ*%
%TO.N,Net-(U3-DVDD)*%
X100157280Y-119824500D03*
%TO.P,U3,12,DC_CAL*%
%TO.N,/MCU/DC_CAL*%
X100657660Y-119824500D03*
%TO.P,U3,13,GVDD*%
%TO.N,Net-(U3-GVDD)*%
X101158040Y-119824500D03*
%TO.P,U3,14,CP1*%
%TO.N,Net-(U3-CP1)*%
X101658420Y-119824500D03*
%TO.P,U3,15,CP2*%
%TO.N,Net-(U3-CP2)*%
X102156260Y-119824500D03*
%TO.P,U3,16,EN_GATE*%
%TO.N,/MCU/EN_GATE*%
X102656640Y-119824500D03*
%TO.P,U3,17,INH_A*%
%TO.N,/MCU/H1*%
X103157020Y-119824500D03*
%TO.P,U3,18,INL_A*%
%TO.N,/MCU/L1*%
X103657400Y-119824500D03*
%TO.P,U3,19,INH_B*%
%TO.N,/MCU/H2*%
X104157780Y-119824500D03*
%TO.P,U3,20,INL_B*%
%TO.N,/MCU/L2*%
X104658160Y-119824500D03*
%TO.P,U3,21,INH_C*%
%TO.N,/MCU/H3*%
X105158540Y-119824500D03*
%TO.P,U3,22,INL_C*%
%TO.N,/MCU/L3*%
X105656380Y-119824500D03*
%TO.P,U3,23,DVDD*%
%TO.N,Net-(U3-DVDD)*%
X106156760Y-119824500D03*
%TO.P,U3,24,REF*%
%TO.N,VCC*%
X106657140Y-119824500D03*
%TO.P,U3,25,SO1*%
%TO.N,/MCU/BR_SO1*%
X107157520Y-119824500D03*
%TO.P,U3,26,SO2*%
%TO.N,/MCU/BR_SO2*%
X107657900Y-119824500D03*
%TO.P,U3,27,AVDD*%
%TO.N,Net-(U3-AVDD)*%
X108158280Y-119824500D03*
%TO.P,U3,28,AGND*%
%TO.N,GND*%
X108656120Y-119824500D03*
%TO.P,U3,29,PVDD1*%
%TO.N,V_SUPPLY*%
X108656120Y-111823500D03*
%TO.P,U3,30,SP2*%
%TO.N,Net-(U3-SP2)*%
X108158280Y-111823500D03*
%TO.P,U3,31,SN2*%
%TO.N,Net-(U3-SN2)*%
X107657900Y-111823500D03*
%TO.P,U3,32,SP1*%
%TO.N,Net-(U3-SP1)*%
X107157520Y-111823500D03*
%TO.P,U3,33,SN1*%
%TO.N,Net-(U3-SN1)*%
X106657140Y-111823500D03*
%TO.P,U3,34,SL_C*%
%TO.N,/Mosfet driver/H3_LOW*%
X106156760Y-111823500D03*
%TO.P,U3,35,GL_C*%
%TO.N,/Mosfet driver/M_L3*%
X105656380Y-111823500D03*
%TO.P,U3,36,SH_C*%
%TO.N,/Mosfet driver/H3_VS*%
X105158540Y-111823500D03*
%TO.P,U3,37,GH_C*%
%TO.N,/Mosfet driver/M_H3*%
X104658160Y-111823500D03*
%TO.P,U3,38,BST_C*%
%TO.N,Net-(U3-BST_C)*%
X104157780Y-111823500D03*
%TO.P,U3,39,SL_B*%
%TO.N,GND*%
X103657400Y-111823500D03*
%TO.P,U3,40,GL_B*%
%TO.N,/Mosfet driver/M_L2*%
X103157020Y-111823500D03*
%TO.P,U3,41,SH_B*%
%TO.N,/Mosfet driver/H2_VS*%
X102656640Y-111823500D03*
%TO.P,U3,42,GH_B*%
%TO.N,/Mosfet driver/M_H2*%
X102156260Y-111823500D03*
%TO.P,U3,43,BST_B*%
%TO.N,Net-(U3-BST_B)*%
X101658420Y-111823500D03*
%TO.P,U3,44,SL_A*%
%TO.N,/Mosfet driver/H1_LOW*%
X101158040Y-111823500D03*
%TO.P,U3,45,GL_A*%
%TO.N,/Mosfet driver/M_L1*%
X100657660Y-111823500D03*
%TO.P,U3,46,SH_A*%
%TO.N,/Mosfet driver/H1_VS*%
X100157280Y-111823500D03*
%TO.P,U3,47,GH_A*%
%TO.N,/Mosfet driver/M_H1*%
X99656900Y-111823500D03*
%TO.P,U3,48,BST_A*%
%TO.N,Net-(U3-BST_A)*%
X99156520Y-111823500D03*
%TO.P,U3,49,BIAS*%
%TO.N,Net-(U3-BIAS)*%
X98656140Y-111823500D03*
%TO.P,U3,50,PH*%
%TO.N,Net-(D4-K)*%
X98158300Y-111823500D03*
%TO.P,U3,51,PH*%
X97657920Y-111823500D03*
%TO.P,U3,52,BST_BK*%
%TO.N,Net-(U3-BST_BK)*%
X97157540Y-111823500D03*
%TO.P,U3,53,PVDD2*%
%TO.N,V_SUPPLY*%
X96657160Y-111823500D03*
%TO.P,U3,54,PVDD2*%
X96156780Y-111823500D03*
%TO.P,U3,55,EN_BUCK*%
%TO.N,unconnected-(U3-EN_BUCK-Pad55)*%
X95656400Y-111823500D03*
%TO.P,U3,56,SS_TR*%
%TO.N,unconnected-(U3-SS_TR-Pad56)*%
X95158560Y-111823500D03*
D19*
%TO.P,U3,57,GND(POWER_PAD)*%
%TO.N,GND*%
X101854000Y-115824000D03*
%TD*%
D20*
%TO.P,P101,1,P1*%
%TO.N,GND*%
X80450000Y-119728280D03*
D21*
%TO.P,P101,2,P2*%
%TO.N,/CAN bus transceiver/CANL*%
X80450000Y-117726760D03*
%TO.P,P101,3,P3*%
%TO.N,/CAN bus transceiver/CANH*%
X80450000Y-115725240D03*
%TO.P,P101,4,P4*%
%TO.N,+5V*%
X80450000Y-113726260D03*
%TD*%
D13*
%TO.P,P7,1,1*%
%TO.N,/Mosfet driver/H2_VS*%
X97790000Y-82804000D03*
%TD*%
D22*
%TO.P,C1,1*%
%TO.N,GND*%
X95885000Y-106045000D03*
%TO.P,C1,2*%
%TO.N,V_SUPPLY*%
X99187000Y-106045000D03*
%TD*%
%TO.P,C8,1*%
%TO.N,GND*%
X95885000Y-103505000D03*
%TO.P,C8,2*%
%TO.N,V_SUPPLY*%
X99187000Y-103505000D03*
%TD*%
D23*
%TO.P,C10,1*%
%TO.N,GND*%
X108331000Y-125349000D03*
%TO.P,C10,2*%
%TO.N,VCC*%
X108331000Y-126873000D03*
%TD*%
D24*
%TO.P,C11,1*%
%TO.N,GND*%
X110586185Y-133126815D03*
%TO.P,C11,2*%
%TO.N,VCC*%
X111663815Y-132049185D03*
%TD*%
D23*
%TO.P,C12,1*%
%TO.N,GND*%
X98552000Y-123444000D03*
%TO.P,C12,2*%
%TO.N,VCC*%
X98552000Y-121920000D03*
%TD*%
%TO.P,C13,1*%
%TO.N,GND*%
X93091000Y-128016000D03*
%TO.P,C13,2*%
%TO.N,VCC*%
X93091000Y-126492000D03*
%TD*%
D25*
%TO.P,C19,1*%
%TO.N,GND*%
X94234000Y-122174000D03*
%TO.P,C19,2*%
%TO.N,Net-(U3-COMP)*%
X95758000Y-122174000D03*
%TD*%
D23*
%TO.P,C21,1*%
%TO.N,GND*%
X92964000Y-122174000D03*
%TO.P,C21,2*%
%TO.N,Net-(C21-Pad2)*%
X92964000Y-123698000D03*
%TD*%
D25*
%TO.P,C22,1*%
%TO.N,Net-(U3-CP1)*%
X101727000Y-122682000D03*
%TO.P,C22,2*%
%TO.N,Net-(U3-CP2)*%
X103251000Y-122682000D03*
%TD*%
%TO.P,C23,1*%
%TO.N,GND*%
X110363000Y-121920000D03*
%TO.P,C23,2*%
%TO.N,Net-(U3-AVDD)*%
X108839000Y-121920000D03*
%TD*%
%TO.P,C27,1*%
%TO.N,Net-(D4-K)*%
X97155000Y-109474000D03*
%TO.P,C27,2*%
%TO.N,Net-(U3-BST_BK)*%
X95631000Y-109474000D03*
%TD*%
%TO.P,C28,1*%
%TO.N,/Mosfet driver/H1_VS*%
X100203000Y-108204000D03*
%TO.P,C28,2*%
%TO.N,Net-(U3-BST_A)*%
X98679000Y-108204000D03*
%TD*%
%TO.P,C29,1*%
%TO.N,/Mosfet driver/H2_VS*%
X102489000Y-105410000D03*
%TO.P,C29,2*%
%TO.N,Net-(U3-BST_B)*%
X100965000Y-105410000D03*
%TD*%
%TO.P,C30,1*%
%TO.N,/Mosfet driver/H3_VS*%
X104902000Y-108077000D03*
%TO.P,C30,2*%
%TO.N,Net-(U3-BST_C)*%
X103378000Y-108077000D03*
%TD*%
%TO.P,C34,1*%
%TO.N,Net-(U3-SN1)*%
X106934000Y-108712000D03*
%TO.P,C34,2*%
%TO.N,Net-(U3-SP1)*%
X108458000Y-108712000D03*
%TD*%
%TO.P,C35,1*%
%TO.N,GND*%
X94615000Y-137160000D03*
%TO.P,C35,2*%
%TO.N,VCC*%
X96139000Y-137160000D03*
%TD*%
%TO.P,C36,1*%
%TO.N,Net-(U3-SN2)*%
X109728000Y-108712000D03*
%TO.P,C36,2*%
%TO.N,Net-(U3-SP2)*%
X111252000Y-108712000D03*
%TD*%
D26*
%TO.P,C39,1*%
%TO.N,GND*%
X110998000Y-117348000D03*
%TO.P,C39,2*%
%TO.N,V_SUPPLY*%
X110998000Y-114046000D03*
%TD*%
D23*
%TO.P,C41,1*%
%TO.N,/MCU/ADC_TEMP*%
X111760000Y-125730000D03*
%TO.P,C41,2*%
%TO.N,GND*%
X111760000Y-127254000D03*
%TD*%
%TO.P,C401,1*%
%TO.N,VCC*%
X93000000Y-130188000D03*
%TO.P,C401,2*%
%TO.N,GND*%
X93000000Y-131712000D03*
%TD*%
D25*
%TO.P,R1,1*%
%TO.N,VCC*%
X114300000Y-102870000D03*
%TO.P,R1,2*%
%TO.N,/MCU/ADC_TEMP*%
X115824000Y-102870000D03*
%TD*%
D23*
%TO.P,R2,1*%
%TO.N,/MCU/ADC_TEMP*%
X111760000Y-129794000D03*
%TO.P,R2,2*%
%TO.N,GND*%
X111760000Y-128270000D03*
%TD*%
D25*
%TO.P,R17,1*%
%TO.N,+5V*%
X86360000Y-120396000D03*
%TO.P,R17,2*%
%TO.N,Net-(U3-VSENSE)*%
X87884000Y-120396000D03*
%TD*%
%TO.P,R18,1*%
%TO.N,Net-(U3-VSENSE)*%
X88900000Y-120396000D03*
%TO.P,R18,2*%
%TO.N,GND*%
X90424000Y-120396000D03*
%TD*%
%TO.P,R19,1*%
%TO.N,Net-(C21-Pad2)*%
X94234000Y-123698000D03*
%TO.P,R19,2*%
%TO.N,Net-(U3-COMP)*%
X95758000Y-123698000D03*
%TD*%
D23*
%TO.P,R20,1*%
%TO.N,Net-(U3-DTC)*%
X97028000Y-121920000D03*
%TO.P,R20,2*%
%TO.N,GND*%
X97028000Y-123444000D03*
%TD*%
D25*
%TO.P,R25,1*%
%TO.N,GND*%
X92329000Y-110236000D03*
%TO.P,R25,2*%
%TO.N,Net-(U3-BIAS)*%
X93853000Y-110236000D03*
%TD*%
D23*
%TO.P,R28,1*%
%TO.N,Net-(Q1-PadG)*%
X114808000Y-84582000D03*
%TO.P,R28,2*%
%TO.N,/Mosfet driver/M_H1*%
X114808000Y-83058000D03*
%TD*%
%TO.P,R34,1*%
%TO.N,Net-(Q3-PadG)*%
X104394000Y-89154000D03*
%TO.P,R34,2*%
%TO.N,/Mosfet driver/M_H2*%
X104394000Y-90678000D03*
%TD*%
%TO.P,R42,1*%
%TO.N,Net-(Q5-PadG)*%
X91440000Y-88011000D03*
%TO.P,R42,2*%
%TO.N,/Mosfet driver/M_H3*%
X91440000Y-89535000D03*
%TD*%
%TO.P,R48,1*%
%TO.N,/Mosfet driver/SH1_A*%
X106807000Y-105918000D03*
%TO.P,R48,2*%
%TO.N,Net-(U3-SN1)*%
X106807000Y-107442000D03*
%TD*%
%TO.P,R49,1*%
%TO.N,/Mosfet driver/SH1_B*%
X108331000Y-105918000D03*
%TO.P,R49,2*%
%TO.N,Net-(U3-SP1)*%
X108331000Y-107442000D03*
%TD*%
%TO.P,R50,1*%
%TO.N,/Mosfet driver/SH2_A*%
X109855000Y-105918000D03*
%TO.P,R50,2*%
%TO.N,Net-(U3-SN2)*%
X109855000Y-107442000D03*
%TD*%
%TO.P,R51,1*%
%TO.N,/Mosfet driver/SH2_B*%
X111379000Y-105918000D03*
%TO.P,R51,2*%
%TO.N,Net-(U3-SP2)*%
X111379000Y-107442000D03*
%TD*%
D25*
%TO.P,R103,1*%
%TO.N,/MCU/USB_DM*%
X89162000Y-127550000D03*
%TO.P,R103,2*%
%TO.N,Net-(X1-D+)*%
X87638000Y-127550000D03*
%TD*%
%TO.P,R104,1*%
%TO.N,/MCU/USB_DP*%
X89162000Y-126000000D03*
%TO.P,R104,2*%
%TO.N,Net-(X1-D-)*%
X87638000Y-126000000D03*
%TD*%
%TO.P,R401,1*%
%TO.N,/CAN bus transceiver/CANH*%
X86762000Y-122500000D03*
%TO.P,R401,2*%
%TO.N,/CAN bus transceiver/CANL*%
X85238000Y-122500000D03*
%TD*%
D27*
%TO.P,U401,1,TXD*%
%TO.N,/CAN bus transceiver/CAN_TX*%
X91467000Y-132955000D03*
%TO.P,U401,2,VSS*%
%TO.N,GND*%
X91467000Y-131685000D03*
%TO.P,U401,3,VDD*%
%TO.N,VCC*%
X91467000Y-130415000D03*
%TO.P,U401,4,RXD*%
%TO.N,/CAN bus transceiver/CAN_RX*%
X91467000Y-129145000D03*
%TO.P,U401,5,Vref*%
%TO.N,unconnected-(U401-Vref-Pad5)*%
X86133000Y-129145000D03*
%TO.P,U401,6,CANL*%
%TO.N,/CAN bus transceiver/CANL*%
X86133000Y-130415000D03*
%TO.P,U401,7,CANH*%
%TO.N,/CAN bus transceiver/CANH*%
X86133000Y-131685000D03*
%TO.P,U401,8,Rs*%
%TO.N,Net-(U401-Rs)*%
X86133000Y-132955000D03*
%TD*%
D28*
%TO.P,X1,1,VBUS*%
%TO.N,Net-(X1-VBUS)*%
X83250000Y-128700000D03*
%TO.P,X1,2,D-*%
%TO.N,Net-(X1-D-)*%
X83250000Y-129350000D03*
%TO.P,X1,3,D+*%
%TO.N,Net-(X1-D+)*%
X83250000Y-130000000D03*
%TO.P,X1,4,ID*%
%TO.N,unconnected-(X1-ID-Pad4)*%
X83250000Y-130650000D03*
%TO.P,X1,5,GND*%
%TO.N,GND*%
X83250000Y-131300000D03*
D29*
%TO.P,X1,6,Shield*%
X82050000Y-127050000D03*
D30*
X83350000Y-127150000D03*
D31*
X81300000Y-127270000D03*
D32*
X80370000Y-127270000D03*
D33*
X83370000Y-127580000D03*
D34*
X80100000Y-129040000D03*
X80100000Y-130960000D03*
D33*
X83370000Y-132420000D03*
D32*
X80370000Y-132730000D03*
D31*
X81300000Y-132750000D03*
D30*
X83370000Y-132900000D03*
D29*
X82050000Y-133000000D03*
%TD*%
D35*
%TO.P,P3,1,P1*%
%TO.N,+5V*%
X114300000Y-118018560D03*
D36*
%TO.P,P3,2,P2*%
%TO.N,VCC*%
X114300000Y-116017040D03*
%TO.P,P3,3,P3*%
%TO.N,GND*%
X114300000Y-114015520D03*
%TO.P,P3,4,P4*%
%TO.N,/SCK_ADC_EXT*%
X114300000Y-112016540D03*
%TO.P,P3,5,P5*%
%TO.N,/TX_SDA*%
X114300000Y-110015020D03*
%TO.P,P3,6,P6*%
%TO.N,/RX_SCL_MOSI*%
X114300000Y-108013500D03*
%TO.P,P3,7,P7*%
%TO.N,/MISO_RX_SCL*%
X114300000Y-106014520D03*
%TD*%
D37*
%TO.P,L1,1,1*%
%TO.N,Net-(D4-K)*%
X91399360Y-115062000D03*
%TO.P,L1,2,2*%
%TO.N,+5V*%
X86400640Y-115062000D03*
%TD*%
D38*
%TO.N,/MCU/AN_IN*%
X87382772Y-130300000D03*
%TO.N,+5V*%
X88900000Y-117729000D03*
X79000000Y-127700000D03*
X88900000Y-118800000D03*
X85979000Y-114935000D03*
%TO.N,GND*%
X110449994Y-122450703D03*
X99314000Y-117475000D03*
D39*
X93472000Y-104775000D03*
D38*
X86300000Y-126200000D03*
X107817006Y-124617006D03*
X88138000Y-131699000D03*
D39*
X94996000Y-104775000D03*
X94996000Y-106299000D03*
D38*
X90551000Y-110490012D03*
X80600000Y-121900000D03*
X101588001Y-118113737D03*
X81800000Y-112800000D03*
X90255293Y-131671345D03*
X103709331Y-113221584D03*
X110871000Y-118364000D03*
X98107954Y-135532065D03*
X91823218Y-122684218D03*
X98552000Y-116840000D03*
X102918594Y-132960216D03*
X103759000Y-115189000D03*
X84928238Y-131104499D03*
D39*
X93472000Y-103251000D03*
D38*
X97028000Y-123063000D03*
X93233855Y-128466145D03*
X110871000Y-119380000D03*
D39*
X93472000Y-106299000D03*
X94996000Y-103251000D03*
D38*
%TO.N,NRST*%
X102145313Y-135275383D03*
X93472000Y-137541000D03*
%TO.N,Net-(U1-PH0-OSC_IN)*%
X99300000Y-135200000D03*
%TO.N,Net-(U1-VCAP1)*%
X108286870Y-128330435D03*
%TO.N,Net-(U1-VCAP2)*%
X97350000Y-126600000D03*
%TO.N,Net-(U3-GVDD)*%
X100831698Y-122555000D03*
%TO.N,Net-(U3-DVDD)*%
X105537000Y-121539000D03*
X100132231Y-123334253D03*
%TO.N,Net-(D4-K)*%
X91948000Y-114935000D03*
X90805000Y-114935000D03*
%TO.N,Net-(U1-PH1-OSC_OUT)*%
X101004000Y-135134281D03*
%TO.N,/SCK_ADC_EXT*%
X104775000Y-132588000D03*
%TO.N,SWCLK*%
X96901000Y-127635000D03*
%TO.N,SWDIO*%
X98171000Y-128143000D03*
%TO.N,VCC*%
X112394988Y-131318000D03*
X109135117Y-127485117D03*
X107200501Y-135762249D03*
X106044996Y-126432893D03*
X95850000Y-126400000D03*
X95631000Y-137160000D03*
X98552000Y-122301000D03*
X92850000Y-129600000D03*
D39*
%TO.N,V_SUPPLY*%
X80010000Y-107188000D03*
X83566000Y-108966000D03*
X80010000Y-105410000D03*
X81788000Y-110744000D03*
D38*
X116078000Y-100330000D03*
X111125000Y-113411000D03*
D39*
X81788000Y-108966000D03*
X83566000Y-107188000D03*
X83566000Y-110744000D03*
D38*
X96647000Y-114046000D03*
D39*
X81788000Y-107188000D03*
D38*
X83900000Y-125000000D03*
X116100000Y-101300000D03*
D39*
X83566000Y-105410000D03*
X80010000Y-108966000D03*
D38*
X93980000Y-113411000D03*
D39*
X81788000Y-105410000D03*
D38*
X111049589Y-110692411D03*
D39*
X80010000Y-110744000D03*
D38*
X116078000Y-99314000D03*
%TO.N,/MCU/AN_IN*%
X101600000Y-138085820D03*
%TO.N,/MCU/SERVO*%
X104310799Y-130643738D03*
D39*
%TO.N,/Mosfet driver/H1_VS*%
X110744000Y-88646000D03*
X106934000Y-90424000D03*
X108966000Y-86868000D03*
X108966000Y-88646000D03*
X112522000Y-86868000D03*
X111252000Y-81534000D03*
X109474000Y-81534000D03*
D38*
X100203000Y-110490012D03*
D39*
X107696000Y-81534000D03*
X110744000Y-86868000D03*
X106934000Y-88646000D03*
X106934000Y-86868000D03*
X112522000Y-88646000D03*
X108966000Y-90424000D03*
D38*
X86741000Y-125095000D03*
D39*
X112522000Y-90424000D03*
X110744000Y-90424000D03*
%TO.N,/Mosfet driver/H2_VS*%
X97790000Y-90678000D03*
D38*
X105594140Y-103632000D03*
D39*
X97790000Y-87122000D03*
X97790000Y-88900000D03*
X99822000Y-90678000D03*
X95758000Y-88900000D03*
X99822000Y-87122000D03*
X99441000Y-81534000D03*
X95758000Y-87122000D03*
X96139000Y-81534000D03*
X97790000Y-81534000D03*
X99822000Y-88900000D03*
X93980000Y-88900000D03*
X95758000Y-90678000D03*
D38*
X91200000Y-123600000D03*
D39*
X93980000Y-90678000D03*
X93980000Y-87122000D03*
%TO.N,/Mosfet driver/H3_VS*%
X84582000Y-90932000D03*
D38*
X104500000Y-104000266D03*
D39*
X82804000Y-89154000D03*
X86360000Y-87122000D03*
X81026000Y-87122000D03*
X84582000Y-89154000D03*
X83312000Y-81534000D03*
X82804000Y-87122000D03*
X81026000Y-89154000D03*
X82804000Y-90932000D03*
X86360000Y-89154000D03*
D38*
X86700000Y-128267478D03*
D39*
X81026000Y-90932000D03*
X85090000Y-81534000D03*
X86868000Y-81534000D03*
D38*
X91440000Y-86868000D03*
D39*
X84582000Y-87122000D03*
X86360000Y-90932000D03*
D38*
%TO.N,/Mosfet driver/H1_LOW*%
X108003411Y-103725057D03*
X101473000Y-113284000D03*
%TO.N,/Mosfet driver/H3_LOW*%
X91440000Y-91313000D03*
X105326596Y-106966026D03*
%TO.N,/MCU/SENS1*%
X91300000Y-128250000D03*
X107061000Y-137287000D03*
%TO.N,/MCU/SENS2*%
X105792150Y-136142850D03*
X90932000Y-126492000D03*
%TO.N,/Mosfet driver/M_H1*%
X114808000Y-81915000D03*
X99012291Y-113211397D03*
%TO.N,/Mosfet driver/M_L1*%
X112483130Y-104116822D03*
X100441730Y-113235361D03*
%TO.N,/MCU/SENS3*%
X91440000Y-124587000D03*
X103632000Y-138085820D03*
%TO.N,/Mosfet driver/M_H2*%
X105537509Y-102507217D03*
X104394000Y-91694000D03*
%TO.N,/Mosfet driver/M_L2*%
X103937763Y-101968280D03*
X102596601Y-113245201D03*
%TO.N,/Mosfet driver/M_H3*%
X107051383Y-113293617D03*
X91313000Y-90170000D03*
%TO.N,/Mosfet driver/M_L3*%
X105383273Y-109569220D03*
X91440000Y-101981000D03*
%TO.N,/Mosfet driver/SH1_A*%
X90424000Y-109300000D03*
X105264351Y-105868904D03*
%TO.N,/Mosfet driver/SH1_B*%
X89789000Y-108458000D03*
X105266323Y-104825601D03*
%TO.N,/Mosfet driver/SH2_A*%
X111506000Y-104902000D03*
%TO.N,/Mosfet driver/SH2_B*%
X111029780Y-106546698D03*
%TO.N,/MCU/DC_CAL*%
X100505015Y-118375283D03*
X105181969Y-125258511D03*
%TO.N,/MCU/L3*%
X105000000Y-126500000D03*
X107061000Y-118237000D03*
%TO.N,/MCU/L2*%
X104643484Y-127516758D03*
X104902000Y-118364000D03*
%TO.N,/MCU/L1*%
X103632000Y-127889000D03*
X103885996Y-118364000D03*
%TO.N,/MCU/EN_GATE*%
X100203000Y-127635000D03*
X102696053Y-118421511D03*
%TO.N,/MCU/FAULT*%
X96450000Y-118050000D03*
X96520000Y-129413000D03*
%TO.N,/MCU/H1*%
X100584000Y-126619000D03*
X103378000Y-121412000D03*
%TO.N,/MCU/USB_DP*%
X90200000Y-127300000D03*
X98850000Y-126650000D03*
%TO.N,/TX_SDA*%
X103632000Y-132207000D03*
X102489000Y-128156220D03*
%TO.N,/Filters/HALL3_OUT*%
X93859398Y-129369533D03*
%TO.N,/Filters/HALL2_OUT*%
X93605312Y-132700000D03*
%TO.N,/Filters/HALL1_OUT*%
X89453446Y-132677426D03*
%TO.N,/RX_SCL_MOSI*%
X101473000Y-128578582D03*
%TO.N,/CAN bus transceiver/CANH*%
X88100000Y-123900000D03*
X88292526Y-129652290D03*
%TO.N,/MCU/LED_GREEN*%
X109474000Y-130556000D03*
%TO.N,/MCU/LED_RED*%
X109849234Y-129387867D03*
%TO.N,/MISO_RX_SCL*%
X103300000Y-131100000D03*
%TO.N,Net-(U3-RT_CLK)*%
X94615000Y-120523000D03*
%TO.N,Net-(U401-Rs)*%
X84900000Y-132600000D03*
%TO.N,Net-(X1-VBUS)*%
X81900000Y-128600000D03*
%TD*%
D40*
%TO.N,/CAN bus transceiver/CANL*%
X88138000Y-124714000D02*
X88392000Y-124968000D01*
X85238000Y-122754000D02*
X86436000Y-123952000D01*
X85238000Y-122500000D02*
X85238000Y-122754000D01*
X86995000Y-123952000D02*
X87757000Y-124714000D01*
X86436000Y-123952000D02*
X86995000Y-123952000D01*
X87757000Y-124714000D02*
X88138000Y-124714000D01*
X88392000Y-124968000D02*
X88392000Y-128339490D01*
X87059770Y-129671720D02*
X86322560Y-129671720D01*
X88392000Y-128339490D02*
X87059770Y-129671720D01*
X86322560Y-129671720D02*
X86133000Y-129861280D01*
X86133000Y-129861280D02*
X86133000Y-130415000D01*
D41*
%TO.N,+5V*%
X85979000Y-114935000D02*
X86106000Y-115062000D01*
X86106000Y-115062000D02*
X86400640Y-115062000D01*
X88900000Y-118800000D02*
X88900000Y-117729000D01*
D42*
X86400640Y-115062000D02*
X86400640Y-120355360D01*
X86400640Y-120355360D02*
X86360000Y-120396000D01*
X86400640Y-115062000D02*
X86400640Y-115229640D01*
X86400640Y-115062000D02*
X86400640Y-116400640D01*
X86400640Y-115229640D02*
X88900000Y-117729000D01*
D43*
%TO.N,GND*%
X108656120Y-118165880D02*
X109474000Y-117348000D01*
X109474000Y-117348000D02*
X110998000Y-117348000D01*
D41*
X98552000Y-116840000D02*
X99568000Y-115824000D01*
X99568000Y-115824000D02*
X101854000Y-115824000D01*
X108204000Y-115824000D02*
X109728000Y-117348000D01*
X109728000Y-117348000D02*
X110998000Y-117348000D01*
D40*
X98656140Y-118640860D02*
X98933000Y-118364000D01*
X98933000Y-118364000D02*
X99314000Y-118364000D01*
X99314000Y-118364000D02*
X99656900Y-118706900D01*
X99656900Y-118706900D02*
X99656900Y-119824500D01*
X110553500Y-121721880D02*
X108656120Y-119824500D01*
X98933000Y-123444000D02*
X99656900Y-122720100D01*
X99656900Y-122720100D02*
X99656900Y-119824500D01*
X98552000Y-116840000D02*
X101854000Y-115824000D01*
D41*
X98298000Y-115824000D02*
X97536000Y-116586000D01*
X95885000Y-116586000D02*
X92075000Y-120396000D01*
X92075000Y-120396000D02*
X90424000Y-120396000D01*
D40*
X97028000Y-123063000D02*
X97028000Y-123444000D01*
X100965000Y-115824000D02*
X99314000Y-117475000D01*
X101473000Y-115824000D02*
X98933000Y-118364000D01*
X95984060Y-132814060D02*
X96139000Y-132969000D01*
X96139000Y-132969000D02*
X96139000Y-134239000D01*
X96139000Y-134239000D02*
X96062800Y-134315200D01*
X96062800Y-134315200D02*
X95087440Y-134315200D01*
X93268800Y-134315200D02*
X92123260Y-135460740D01*
D41*
X114188240Y-114030760D02*
X110998000Y-117221000D01*
X110998000Y-117221000D02*
X110998000Y-117348000D01*
D44*
X110871000Y-119380000D02*
X110871000Y-118364000D01*
X110871000Y-117475000D02*
X110998000Y-117348000D01*
D40*
X91613300Y-131763300D02*
X91500000Y-131650000D01*
X92973000Y-131685000D02*
X93000000Y-131712000D01*
D42*
X80600000Y-122775000D02*
X80600000Y-121900000D01*
D45*
X80450000Y-121750000D02*
X80600000Y-121900000D01*
X82800000Y-123450000D02*
X83000000Y-123250000D01*
D43*
X84493000Y-126200000D02*
X85090000Y-125603000D01*
X85090000Y-125603000D02*
X85090000Y-124460000D01*
X85090000Y-124460000D02*
X83880000Y-123250000D01*
X83880000Y-123250000D02*
X83000000Y-123250000D01*
D40*
X92123260Y-135684260D02*
X92710000Y-136271000D01*
X92710000Y-136271000D02*
X93726000Y-136271000D01*
X93726000Y-136271000D02*
X94615000Y-137160000D01*
X92123260Y-137178000D02*
X92101260Y-137200000D01*
X114030760Y-126253240D02*
X113030000Y-127254000D01*
X113030000Y-127254000D02*
X111760000Y-127254000D01*
D46*
X94996000Y-104775000D02*
X95758000Y-105029000D01*
X95758000Y-105029000D02*
X95758000Y-104902000D01*
D44*
X94396560Y-104902000D02*
X93380560Y-105283000D01*
X93380560Y-104866440D02*
X94996000Y-103251000D01*
X94996000Y-103251000D02*
X95758000Y-104902000D01*
D42*
X95631000Y-106172000D02*
X94996000Y-104775000D01*
X93472000Y-106299000D02*
X93380560Y-106207560D01*
X93380560Y-106207560D02*
X93380560Y-105918000D01*
X94996000Y-106299000D02*
X95123000Y-106172000D01*
X95123000Y-106172000D02*
X95631000Y-106172000D01*
X95631000Y-106172000D02*
X95885000Y-106045000D01*
D40*
X98552000Y-123444000D02*
X98933000Y-123444000D01*
X92123260Y-135684260D02*
X92123260Y-137178000D01*
X91467000Y-131685000D02*
X90268948Y-131685000D01*
D46*
X95758000Y-104902000D02*
X94996000Y-103251000D01*
D45*
X110449994Y-122023506D02*
X110449994Y-122450703D01*
D40*
X110553500Y-121920000D02*
X110553500Y-121721880D01*
X93233855Y-128466145D02*
X93091000Y-128323290D01*
X97028000Y-123444000D02*
X98552000Y-123444000D01*
D44*
X110871000Y-117475000D02*
X110871000Y-118364000D01*
D40*
X104267000Y-134315200D02*
X104267000Y-134239000D01*
X104267000Y-134315200D02*
X103809800Y-134315200D01*
X98528254Y-134728158D02*
X98528254Y-135111765D01*
D41*
X101854000Y-115824000D02*
X98298000Y-115824000D01*
D40*
X96062800Y-134315200D02*
X98115296Y-134315200D01*
D44*
X93380560Y-105283000D02*
X93380560Y-104866440D01*
D45*
X90424000Y-120396000D02*
X90424000Y-120224000D01*
X110553500Y-121920000D02*
X110449994Y-122023506D01*
D42*
X95885000Y-103505000D02*
X95885000Y-106045000D01*
D40*
X102972313Y-135152687D02*
X102972313Y-135526067D01*
X107873800Y-134315200D02*
X109062185Y-133126815D01*
X93091000Y-128323290D02*
X93091000Y-128016000D01*
X91467000Y-131685000D02*
X92973000Y-131685000D01*
X101981000Y-131953000D02*
X102918594Y-132890594D01*
D45*
X80450000Y-119728280D02*
X80450000Y-121750000D01*
D40*
X97155000Y-131953000D02*
X101981000Y-131953000D01*
D47*
X92329000Y-110236000D02*
X91605100Y-110236000D01*
X91351088Y-110490012D02*
X90551000Y-110490012D01*
D40*
X98528254Y-135111765D02*
X98107954Y-135532065D01*
X101854000Y-115824000D02*
X100965000Y-115824000D01*
D47*
X91605100Y-110236000D02*
X91351088Y-110490012D01*
D40*
X108331000Y-125349000D02*
X108331000Y-124777500D01*
X102918594Y-132890594D02*
X102918594Y-132960216D01*
X92138500Y-122174000D02*
X91823218Y-122489282D01*
X84100000Y-126200000D02*
X86300000Y-126200000D01*
X108170506Y-124617006D02*
X107817006Y-124617006D01*
D41*
X90424000Y-120396000D02*
X90424000Y-119888000D01*
D40*
X104267000Y-134239000D02*
X102988216Y-132960216D01*
X80370000Y-132730000D02*
X80370000Y-131230000D01*
X80100000Y-127540000D02*
X80370000Y-127270000D01*
X92964000Y-122174000D02*
X94234000Y-122174000D01*
D43*
X103657400Y-113169653D02*
X103709331Y-113221584D01*
D41*
X101854000Y-115824000D02*
X108204000Y-115824000D01*
D40*
X114300000Y-126253240D02*
X114300000Y-126492000D01*
X114300000Y-126253240D02*
X114030760Y-126253240D01*
D41*
X97536000Y-116586000D02*
X95885000Y-116586000D01*
D43*
X84100000Y-126200000D02*
X84493000Y-126200000D01*
D40*
X92964000Y-122174000D02*
X92138500Y-122174000D01*
D42*
X95885000Y-106045000D02*
X95631000Y-106172000D01*
D40*
X108331000Y-124777500D02*
X108170506Y-124617006D01*
X98115296Y-134315200D02*
X98528254Y-134728158D01*
X80100000Y-129040000D02*
X80100000Y-127540000D01*
D43*
X101854000Y-115824000D02*
X101588001Y-116089999D01*
D40*
X80370000Y-131230000D02*
X80100000Y-130960000D01*
D44*
X95758000Y-104902000D02*
X94396560Y-104902000D01*
D40*
X98656140Y-119824500D02*
X98656140Y-118640860D01*
X91823218Y-122489282D02*
X91823218Y-122684218D01*
D42*
X79925000Y-123450000D02*
X80600000Y-122775000D01*
X93839986Y-104787680D02*
X93472000Y-104775000D01*
D40*
X102972313Y-135526067D02*
X102588060Y-135910320D01*
X110037172Y-133126815D02*
X110586185Y-133126815D01*
X111760000Y-127254000D02*
X111760000Y-128270000D01*
X96139000Y-132969000D02*
X97155000Y-131953000D01*
X102988216Y-132960216D02*
X102918594Y-132960216D01*
X109062185Y-133126815D02*
X110037172Y-133126815D01*
X90268948Y-131685000D02*
X90255293Y-131671345D01*
D43*
X108656120Y-119824500D02*
X108656120Y-118165880D01*
D40*
X95087440Y-134315200D02*
X93268800Y-134315200D01*
X101854000Y-115824000D02*
X101473000Y-115824000D01*
X102588060Y-135910320D02*
X102588060Y-136814560D01*
X95087440Y-132814060D02*
X95984060Y-132814060D01*
D43*
X101588001Y-116089999D02*
X101588001Y-118113737D01*
D40*
X103809800Y-134315200D02*
X102972313Y-135152687D01*
X92123260Y-135460740D02*
X92123260Y-135684260D01*
D41*
X114300000Y-114030760D02*
X114188240Y-114030760D01*
D45*
X79925000Y-123450000D02*
X82800000Y-123450000D01*
D40*
X106588560Y-134315200D02*
X104267000Y-134315200D01*
X106588560Y-134315200D02*
X107873800Y-134315200D01*
D43*
X103657400Y-111823500D02*
X103657400Y-113169653D01*
D46*
%TO.N,NRST*%
X100088700Y-137782300D02*
X99822000Y-138049000D01*
X99822000Y-138049000D02*
X93980000Y-138049000D01*
X93980000Y-138049000D02*
X93472000Y-137541000D01*
D40*
X100212080Y-135937320D02*
X100488118Y-135937320D01*
X100088700Y-136814560D02*
X100088700Y-136060700D01*
D46*
X100088700Y-136814560D02*
X100088700Y-137782300D01*
D40*
X100088700Y-136060700D02*
X100212080Y-135937320D01*
X100539101Y-135886337D02*
X101534359Y-135886337D01*
X100488118Y-135937320D02*
X100539101Y-135886337D01*
X101534359Y-135886337D02*
X102145313Y-135275383D01*
%TO.N,/Filters/TEMP_MOTOR*%
X100256000Y-138504000D02*
X100589080Y-138170920D01*
X100589080Y-138170920D02*
X100589080Y-136814560D01*
X85404260Y-138504000D02*
X84100260Y-137200000D01*
X85404260Y-138504000D02*
X100256000Y-138504000D01*
%TO.N,Net-(U1-PH0-OSC_IN)*%
X99300000Y-135200000D02*
X99087940Y-135412060D01*
X99087940Y-135412060D02*
X99087940Y-136814560D01*
%TO.N,Net-(U1-VCAP1)*%
X107886871Y-127930436D02*
X108286870Y-128330435D01*
X107769235Y-127812800D02*
X107886871Y-127930436D01*
X106588560Y-127812800D02*
X107769235Y-127812800D01*
%TO.N,Net-(U1-VCAP2)*%
X97586800Y-126314200D02*
X97350000Y-126600000D01*
X97586800Y-125313440D02*
X97586800Y-126314200D01*
D43*
%TO.N,Net-(U3-GVDD)*%
X101158040Y-121767598D02*
X100831698Y-122093940D01*
X100831698Y-122093940D02*
X100831698Y-122555000D01*
X101158040Y-119824500D02*
X101158040Y-121767598D01*
D40*
%TO.N,Net-(U3-COMP)*%
X95656400Y-122072400D02*
X95758000Y-122174000D01*
X95758000Y-122174000D02*
X95758000Y-123698000D01*
X95656400Y-119824500D02*
X95656400Y-122072400D01*
%TO.N,Net-(C21-Pad2)*%
X92964000Y-123698000D02*
X94234000Y-123698000D01*
%TO.N,Net-(U3-DVDD)*%
X106156760Y-121046240D02*
X105664000Y-121539000D01*
X105664000Y-121539000D02*
X105537000Y-121539000D01*
X106156760Y-119824500D02*
X106156760Y-121046240D01*
X100132231Y-122768568D02*
X100132231Y-123334253D01*
X100126896Y-122763233D02*
X100132231Y-122768568D01*
X100126896Y-120859454D02*
X100126896Y-122763233D01*
X100157280Y-120829070D02*
X100126896Y-120859454D01*
X100157280Y-119824500D02*
X100157280Y-120829070D01*
%TO.N,Net-(U3-CP1)*%
X101658420Y-121089420D02*
X101854000Y-121285000D01*
X101854000Y-121285000D02*
X101854000Y-122555000D01*
X101854000Y-122555000D02*
X101727000Y-122682000D01*
X101658420Y-119824500D02*
X101658420Y-121089420D01*
%TO.N,Net-(U3-CP2)*%
X102156260Y-120825260D02*
X102489000Y-121158000D01*
X102489000Y-121158000D02*
X102489000Y-122301000D01*
X102489000Y-122301000D02*
X102870000Y-122682000D01*
X102870000Y-122682000D02*
X103251000Y-122682000D01*
X102156260Y-119824500D02*
X102156260Y-120825260D01*
%TO.N,Net-(U3-AVDD)*%
X108158280Y-121429780D02*
X108648500Y-121920000D01*
X108158280Y-119824500D02*
X108158280Y-121429780D01*
D41*
%TO.N,Net-(D4-K)*%
X97663000Y-113538000D02*
X97917000Y-113284000D01*
D43*
X97917000Y-111823500D02*
X98158300Y-111823500D01*
D41*
X91399360Y-115021360D02*
X91399360Y-115062000D01*
X97028000Y-115443000D02*
X97663000Y-114808000D01*
X97663000Y-114808000D02*
X97663000Y-113538000D01*
D44*
X90805000Y-114935000D02*
X90932000Y-115062000D01*
X90932000Y-115062000D02*
X91399360Y-115062000D01*
X91948000Y-114935000D02*
X91821000Y-115062000D01*
X91821000Y-115062000D02*
X91399360Y-115062000D01*
D42*
X92943000Y-115443000D02*
X92562000Y-115062000D01*
X92562000Y-115062000D02*
X91399360Y-115062000D01*
D40*
X97657920Y-110484920D02*
X97155000Y-109982000D01*
X97155000Y-109982000D02*
X97155000Y-109474000D01*
D48*
X91399360Y-115062000D02*
X92562000Y-115062000D01*
D42*
X92943000Y-115443000D02*
X96708851Y-115443000D01*
D40*
X97657920Y-111823500D02*
X97657920Y-110484920D01*
D41*
X97917000Y-111823500D02*
X97917000Y-113284000D01*
D43*
X97657920Y-111823500D02*
X97917000Y-111823500D01*
D41*
X96708851Y-115443000D02*
X97028000Y-115443000D01*
D40*
%TO.N,Net-(U3-BST_BK)*%
X97157540Y-110746540D02*
X96901000Y-110490000D01*
X96901000Y-110490000D02*
X95885000Y-110490000D01*
X95885000Y-110490000D02*
X95631000Y-110236000D01*
X95631000Y-110236000D02*
X95631000Y-109474000D01*
X97157540Y-111823500D02*
X97157540Y-110746540D01*
%TO.N,Net-(U3-BST_A)*%
X99156520Y-110459520D02*
X98679000Y-109982000D01*
X98679000Y-109982000D02*
X98679000Y-108204000D01*
X99156520Y-111823500D02*
X99156520Y-110459520D01*
D43*
%TO.N,Net-(U3-BST_B)*%
X100965000Y-108966000D02*
X101658420Y-109659420D01*
X101658420Y-109659420D02*
X101658420Y-111823500D01*
X100965000Y-108966000D02*
X100965000Y-105410000D01*
D40*
%TO.N,Net-(U3-BST_C)*%
X103378000Y-108902500D02*
X103378000Y-108077000D01*
X104157780Y-111823500D02*
X104157780Y-110484720D01*
X104157780Y-110484720D02*
X103378000Y-109704940D01*
X103378000Y-109704940D02*
X103378000Y-108902500D01*
D43*
%TO.N,Net-(U3-SN1)*%
X106807000Y-107442000D02*
X106807000Y-108585000D01*
X106807000Y-108585000D02*
X106934000Y-108712000D01*
X106657140Y-108988860D02*
X106934000Y-108712000D01*
X106657140Y-111823500D02*
X106657140Y-108988860D01*
%TO.N,Net-(U3-SP1)*%
X107157520Y-111823500D02*
X107157520Y-110266480D01*
X107157520Y-110266480D02*
X108458000Y-108966000D01*
X108458000Y-108712000D02*
X108458000Y-107569000D01*
X108458000Y-108966000D02*
X108458000Y-108712000D01*
X108458000Y-107569000D02*
X108331000Y-107442000D01*
%TO.N,Net-(U3-SN2)*%
X108458000Y-109728000D02*
X108925362Y-109728000D01*
X107657900Y-111823500D02*
X107657900Y-110528100D01*
X109728000Y-107569000D02*
X109855000Y-107442000D01*
X109728000Y-108712000D02*
X109728000Y-107569000D01*
X109728000Y-108925362D02*
X109728000Y-108712000D01*
X107657900Y-110528100D02*
X108458000Y-109728000D01*
X108925362Y-109728000D02*
X109728000Y-108925362D01*
%TO.N,Net-(U3-SP2)*%
X111252000Y-108966000D02*
X111252000Y-108712000D01*
X108158280Y-110826548D02*
X108621828Y-110363000D01*
X108621828Y-110363000D02*
X109855000Y-110363000D01*
X111252000Y-108712000D02*
X111252000Y-107569000D01*
X109855000Y-110363000D02*
X111252000Y-108966000D01*
X108158280Y-111823500D02*
X108158280Y-110826548D01*
X111252000Y-107569000D02*
X111379000Y-107442000D01*
D40*
%TO.N,Net-(U1-PH1-OSC_OUT)*%
X100077000Y-135572020D02*
X100514739Y-135134281D01*
X99588320Y-136060448D02*
X100076748Y-135572020D01*
X100514739Y-135134281D02*
X101004000Y-135134281D01*
X100076748Y-135572020D02*
X100077000Y-135572020D01*
X99588320Y-136814560D02*
X99588320Y-136060448D01*
D41*
%TO.N,Net-(Q1-PadG)*%
X114554000Y-84836000D02*
X114808000Y-84582000D01*
X114554000Y-87246460D02*
X114554000Y-84836000D01*
%TO.N,Net-(Q3-PadG)*%
X104394000Y-87757000D02*
X103883460Y-87246460D01*
X103883460Y-87246460D02*
X101727000Y-87246460D01*
X104394000Y-89154000D02*
X104394000Y-87757000D01*
%TO.N,Net-(Q5-PadG)*%
X89283540Y-88011000D02*
X88519000Y-87246460D01*
X91440000Y-88011000D02*
X89283540Y-88011000D01*
D40*
%TO.N,/SCK_ADC_EXT*%
X105001060Y-132814060D02*
X104775000Y-132588000D01*
X106588560Y-132814060D02*
X105001060Y-132814060D01*
%TO.N,SWCLK*%
X96901000Y-127635000D02*
X96580960Y-127314960D01*
X96580960Y-127314960D02*
X95087440Y-127314960D01*
%TO.N,SWDIO*%
X98171000Y-128143000D02*
X98087180Y-128059180D01*
X98087180Y-128059180D02*
X98087180Y-125313440D01*
D41*
%TO.N,VCC*%
X114221260Y-116029740D02*
X112903000Y-117348000D01*
X112903000Y-117348000D02*
X112903000Y-120855740D01*
X112903000Y-120855740D02*
X114300000Y-122252740D01*
D40*
X99156520Y-120934480D02*
X98552000Y-121539000D01*
X98552000Y-121539000D02*
X98552000Y-121920000D01*
X106657140Y-127246380D02*
X106588560Y-127314960D01*
X107889040Y-127314960D02*
X108331000Y-126873000D01*
X95850000Y-126400000D02*
X96936560Y-125313440D01*
X96936560Y-125313440D02*
X97088960Y-125313440D01*
D45*
X98552000Y-122301000D02*
X98552000Y-121920000D01*
D40*
X96743520Y-137160000D02*
X96139000Y-137160000D01*
X93218000Y-126365000D02*
X93091000Y-126492000D01*
X92773000Y-130415000D02*
X93000000Y-130188000D01*
X93000000Y-129750000D02*
X92850000Y-129600000D01*
X95758000Y-126492000D02*
X93091000Y-126492000D01*
D46*
X115316000Y-104521000D02*
X114300000Y-103505000D01*
D40*
X95087440Y-134813040D02*
X95587680Y-134813040D01*
X95631000Y-137160000D02*
X95885000Y-137414000D01*
X108331000Y-126873000D02*
X108331000Y-127444500D01*
X107612180Y-133814820D02*
X109377815Y-132049185D01*
D46*
X115316000Y-115013740D02*
X115316000Y-104521000D01*
D40*
X96400000Y-136645000D02*
X96139000Y-136906000D01*
X106588560Y-127314960D02*
X107889040Y-127314960D01*
X103088440Y-136814560D02*
X103088440Y-135910320D01*
X112394988Y-131318000D02*
X112394988Y-131318012D01*
D46*
X114300000Y-116029740D02*
X115316000Y-115013740D01*
D40*
X97088960Y-136814560D02*
X96743520Y-137160000D01*
X106110493Y-126432893D02*
X106044996Y-126432893D01*
X95587680Y-134813040D02*
X96400000Y-135625360D01*
X96400000Y-135625360D02*
X96400000Y-136645000D01*
X103997760Y-135001000D02*
X105283000Y-135001000D01*
X108569432Y-127485117D02*
X109135117Y-127485117D01*
D46*
X114300000Y-103505000D02*
X114300000Y-102870000D01*
D40*
X91467000Y-130415000D02*
X92773000Y-130415000D01*
X105644250Y-135362250D02*
X106800502Y-135362250D01*
D41*
X114300000Y-116029740D02*
X114221260Y-116029740D01*
D40*
X106588560Y-127314960D02*
X106588560Y-126910960D01*
X96139000Y-136906000D02*
X96139000Y-137160000D01*
X108331000Y-127444500D02*
X108371617Y-127485117D01*
X108371617Y-127485117D02*
X108569432Y-127485117D01*
X99156520Y-119824500D02*
X99156520Y-120934480D01*
X95850000Y-126400000D02*
X95758000Y-126492000D01*
X105283000Y-135001000D02*
X105644250Y-135362250D01*
X106657140Y-119824500D02*
X106657140Y-127246380D01*
X109377815Y-132049185D02*
X111114802Y-132049185D01*
X106588560Y-133814820D02*
X107612180Y-133814820D01*
X103088440Y-135910320D02*
X103997760Y-135001000D01*
X112394988Y-131318012D02*
X111663815Y-132049185D01*
X106800502Y-135362250D02*
X107200501Y-135762249D01*
X111114802Y-132049185D02*
X111663815Y-132049185D01*
X93000000Y-130188000D02*
X93000000Y-129750000D01*
X106588560Y-126910960D02*
X106110493Y-126432893D01*
D49*
%TO.N,V_SUPPLY*%
X97917000Y-97848420D02*
X84709000Y-97848420D01*
X107500420Y-97848420D02*
X104648000Y-94996000D01*
X104648000Y-94996000D02*
X100769420Y-94996000D01*
X100769420Y-94996000D02*
X97917000Y-97848420D01*
X95308420Y-97848420D02*
X92202000Y-94742000D01*
X92202000Y-94742000D02*
X87815420Y-94742000D01*
X87815420Y-94742000D02*
X84709000Y-97848420D01*
D41*
X83566000Y-108966000D02*
X81788000Y-108966000D01*
X80010000Y-108966000D02*
X80010000Y-107188000D01*
X81788000Y-107188000D02*
X83566000Y-107188000D01*
X83566000Y-105410000D02*
X81788000Y-105410000D01*
X80010000Y-105410000D02*
X85852000Y-99060000D01*
X85852000Y-99060000D02*
X85852000Y-98044000D01*
X85852000Y-98044000D02*
X84709000Y-97848420D01*
D49*
X81788000Y-100769420D02*
X84709000Y-97848420D01*
X81788000Y-106172000D02*
X90111580Y-97848420D01*
X90111580Y-97848420D02*
X97917000Y-97848420D01*
D43*
X108656120Y-113355120D02*
X109347000Y-114046000D01*
X109347000Y-114046000D02*
X110998000Y-114046000D01*
X96329500Y-111823500D02*
X96393000Y-111887000D01*
X96456500Y-111823500D02*
X96393000Y-111887000D01*
D47*
X110921802Y-113665000D02*
X110998000Y-114046000D01*
D41*
X111056420Y-97848420D02*
X110744000Y-97848420D01*
D48*
X84074000Y-105918000D02*
X83566000Y-105410000D01*
D44*
X111310420Y-97848420D02*
X110744000Y-97848420D01*
X111125000Y-113411000D02*
X110921802Y-113614198D01*
X110921802Y-113614198D02*
X110998000Y-114046000D01*
X116100000Y-101300000D02*
X112648420Y-97848420D01*
X112648420Y-97848420D02*
X110744000Y-97848420D01*
D41*
X96393000Y-113792000D02*
X96647000Y-114046000D01*
D44*
X94615000Y-114046000D02*
X93980000Y-113411000D01*
D50*
X116078000Y-100330000D02*
X113596420Y-97848420D01*
X113596420Y-97848420D02*
X110744000Y-97848420D01*
D42*
X99187000Y-99118420D02*
X97917000Y-97848420D01*
D48*
X99187000Y-99118420D02*
X97917000Y-97848420D01*
D43*
X108656120Y-111823500D02*
X108656120Y-113355120D01*
D49*
X81788000Y-108966000D02*
X81788000Y-100769420D01*
D44*
X112209580Y-99314000D02*
X110744000Y-97848420D01*
D49*
X97917000Y-97848420D02*
X107500420Y-97848420D01*
D43*
X96156780Y-111823500D02*
X96329500Y-111823500D01*
D41*
X96393000Y-111887000D02*
X96393000Y-113792000D01*
D48*
X99187000Y-106045000D02*
X99187000Y-99118420D01*
D42*
X99187000Y-103505000D02*
X99187000Y-99118420D01*
D43*
X96657160Y-111823500D02*
X96456500Y-111823500D01*
D44*
X96647000Y-114046000D02*
X94615000Y-114046000D01*
X116078000Y-99314000D02*
X112209580Y-99314000D01*
D41*
X96012000Y-113411000D02*
X93980000Y-113411000D01*
D44*
X88229440Y-105918000D02*
X88229440Y-105882440D01*
D41*
X96456500Y-112966500D02*
X96012000Y-113411000D01*
X96456500Y-111823500D02*
X96456500Y-112966500D01*
D49*
X97917000Y-97848420D02*
X95308420Y-97848420D01*
X81788000Y-107188000D02*
X81788000Y-106172000D01*
D42*
X99187000Y-103505000D02*
X99187000Y-106045000D01*
D40*
%TO.N,/MCU/AN_IN*%
X101587300Y-136814560D02*
X101587300Y-138073120D01*
X101587300Y-138073120D02*
X101600000Y-138085820D01*
%TO.N,/MCU/SERVO*%
X103910800Y-130243739D02*
X104310799Y-130643738D01*
X101577972Y-131312920D02*
X102658694Y-130232198D01*
X103899259Y-130232198D02*
X103910800Y-130243739D01*
X95087440Y-131312920D02*
X101577972Y-131312920D01*
X102658694Y-130232198D02*
X103899259Y-130232198D01*
D41*
%TO.N,/Mosfet driver/H1_VS*%
X113030000Y-88138000D02*
X112522000Y-88646000D01*
X112522000Y-86868000D02*
X112014000Y-87376000D01*
X112014000Y-87376000D02*
X111506000Y-87376000D01*
X111506000Y-87376000D02*
X110744000Y-86868000D01*
X110744000Y-88646000D02*
X110490000Y-88900000D01*
X110490000Y-88900000D02*
X108966000Y-88646000D01*
X108966000Y-86868000D02*
X108712000Y-86614000D01*
X108712000Y-86614000D02*
X106934000Y-86868000D01*
X106934000Y-88646000D02*
X106934000Y-87630000D01*
X106934000Y-87630000D02*
X106680000Y-87500460D01*
X107312460Y-87500460D02*
X107950000Y-87630000D01*
X107950000Y-87630000D02*
X108204000Y-87246460D01*
X108204000Y-87376000D02*
X107950000Y-87630000D01*
X108587540Y-87246460D02*
X108717080Y-87376000D01*
X108717080Y-87376000D02*
X113284000Y-87376000D01*
X113284000Y-87376000D02*
X113284000Y-87246460D01*
D48*
X106934000Y-89154000D02*
X107696000Y-89916000D01*
X107696000Y-89916000D02*
X109474000Y-89408000D01*
X109474000Y-89408000D02*
X112014000Y-87376000D01*
X112014000Y-87376000D02*
X112014000Y-87246460D01*
X111884460Y-87376000D02*
X108717080Y-87376000D01*
D49*
X108966000Y-83312000D02*
X108966000Y-86868000D01*
D41*
X106680000Y-87500460D02*
X106680000Y-90170000D01*
X106680000Y-90170000D02*
X106934000Y-90424000D01*
X112522000Y-90424000D02*
X112522000Y-88646000D01*
D42*
X108966000Y-90424000D02*
X110744000Y-90424000D01*
X110744000Y-90424000D02*
X112522000Y-90424000D01*
X112522000Y-90424000D02*
X112522000Y-89916000D01*
X112522000Y-89916000D02*
X111252000Y-89916000D01*
X111252000Y-89916000D02*
X110744000Y-90424000D01*
X110744000Y-89916000D02*
X110744000Y-90424000D01*
D48*
X112014000Y-86360000D02*
X108966000Y-83312000D01*
X108966000Y-83312000D02*
X109474000Y-82804000D01*
D46*
X108966000Y-82804000D02*
X107696000Y-81534000D01*
X109474000Y-81534000D02*
X111252000Y-81534000D01*
D41*
X113284000Y-87246460D02*
X113030000Y-88138000D01*
D43*
X100157280Y-110535732D02*
X100203000Y-110490012D01*
X100203000Y-108204000D02*
X100203000Y-110490012D01*
D41*
X108204000Y-87246460D02*
X108587540Y-87246460D01*
X108204000Y-87246460D02*
X108204000Y-87376000D01*
D42*
X106934000Y-90424000D02*
X108966000Y-90424000D01*
D41*
X106680000Y-87500460D02*
X107312460Y-87500460D01*
D46*
X109474000Y-82804000D02*
X108966000Y-82804000D01*
D41*
X106934000Y-87246460D02*
X106680000Y-87500460D01*
D43*
X100157280Y-111823500D02*
X100157280Y-110535732D01*
D40*
X109474000Y-82804000D02*
X109474000Y-87246460D01*
D48*
X106934000Y-87246460D02*
X106934000Y-89154000D01*
X112014000Y-87246460D02*
X111884460Y-87376000D01*
X112014000Y-87246460D02*
X112014000Y-86360000D01*
D42*
X112522000Y-88646000D02*
X110744000Y-89916000D01*
D41*
%TO.N,/Mosfet driver/H2_VS*%
X100332540Y-87122000D02*
X99822000Y-87122000D01*
X97790000Y-87122000D02*
X95758000Y-87122000D01*
X97790000Y-88900000D02*
X99822000Y-88900000D01*
X99822000Y-90678000D02*
X98044000Y-90932000D01*
X98044000Y-90932000D02*
X97790000Y-90678000D01*
X93980000Y-87122000D02*
X93726000Y-88392000D01*
X93726000Y-88392000D02*
X93980000Y-88646000D01*
D42*
X93980000Y-90678000D02*
X95758000Y-90678000D01*
X95758000Y-90678000D02*
X95758000Y-88900000D01*
X95758000Y-88900000D02*
X93980000Y-90678000D01*
X97790000Y-90678000D02*
X99822000Y-90678000D01*
X99822000Y-90678000D02*
X99822000Y-88900000D01*
X99822000Y-88900000D02*
X99568000Y-88900000D01*
X99568000Y-88900000D02*
X97790000Y-90678000D01*
X95377000Y-87246460D02*
X93980000Y-88643460D01*
X93980000Y-88643460D02*
X93980000Y-88900000D01*
X96012000Y-90678000D02*
X97790000Y-88900000D01*
D46*
X98171000Y-82804000D02*
X99441000Y-81534000D01*
X97790000Y-81534000D02*
X96139000Y-81534000D01*
D43*
X103790707Y-103231993D02*
X102489000Y-104533700D01*
X105594140Y-103632000D02*
X105410000Y-103632000D01*
D41*
X100457000Y-87246460D02*
X100332540Y-87122000D01*
D43*
X102730299Y-110730027D02*
X102730299Y-109080299D01*
X102489000Y-104533700D02*
X102489000Y-105410000D01*
D46*
X97790000Y-82804000D02*
X98171000Y-82804000D01*
D49*
X97790000Y-82804000D02*
X97790000Y-87122000D01*
D41*
X93980000Y-88900000D02*
X95758000Y-88900000D01*
D43*
X105009993Y-103231993D02*
X103790707Y-103231993D01*
X102656640Y-111823500D02*
X102656640Y-110829088D01*
D42*
X95377000Y-87246460D02*
X96647000Y-87246460D01*
X99822000Y-87122000D02*
X99822000Y-88900000D01*
D43*
X102489000Y-108839000D02*
X102489000Y-105410000D01*
X102730299Y-109080299D02*
X102489000Y-108839000D01*
X102743000Y-110742728D02*
X102730299Y-110730027D01*
D42*
X95758000Y-90678000D02*
X96012000Y-90678000D01*
D43*
X105410000Y-103632000D02*
X105009993Y-103231993D01*
D45*
X100457000Y-87246460D02*
X99187000Y-87246460D01*
D43*
X102656640Y-110829088D02*
X102743000Y-110742728D01*
X102656640Y-111823500D02*
X102638870Y-111805730D01*
D42*
X93980000Y-88900000D02*
X93980000Y-90678000D01*
X94107000Y-87246460D02*
X95377000Y-87246460D01*
X95758000Y-90678000D02*
X97790000Y-90678000D01*
D49*
%TO.N,/Mosfet driver/H3_VS*%
X83312000Y-85598000D02*
X83312000Y-87122000D01*
X83312000Y-87122000D02*
X83185000Y-87246460D01*
D45*
X85725000Y-87246460D02*
X82169000Y-87246460D01*
X82169000Y-87246460D02*
X80899000Y-87246460D01*
X86360000Y-87122000D02*
X84582000Y-87122000D01*
X82804000Y-87122000D02*
X81026000Y-87122000D01*
X86360000Y-90932000D02*
X84836000Y-90678000D01*
X84836000Y-90678000D02*
X84582000Y-90932000D01*
D42*
X84582000Y-90932000D02*
X82804000Y-90932000D01*
X82804000Y-90932000D02*
X81026000Y-90932000D01*
X81026000Y-90932000D02*
X81026000Y-89154000D01*
X81026000Y-89154000D02*
X82804000Y-89154000D01*
X82804000Y-89154000D02*
X82804000Y-90932000D01*
X82804000Y-90932000D02*
X81026000Y-89154000D01*
X84582000Y-90932000D02*
X82804000Y-89154000D01*
X84582000Y-89154000D02*
X86360000Y-90932000D01*
X86360000Y-90932000D02*
X86360000Y-89154000D01*
X86360000Y-87627460D02*
X85087460Y-87627460D01*
X85087460Y-87627460D02*
X84582000Y-87122000D01*
X86360000Y-87122000D02*
X86360000Y-87376000D01*
X86360000Y-87376000D02*
X84582000Y-89154000D01*
D48*
X85979000Y-83693000D02*
X85090000Y-82804000D01*
D46*
X85090000Y-81534000D02*
X83312000Y-81534000D01*
D40*
X104140000Y-108966000D02*
X104902000Y-108204000D01*
X105158540Y-111823500D02*
X105158540Y-110779958D01*
D49*
X84328000Y-82804000D02*
X83312000Y-85598000D01*
D42*
X86360000Y-89154000D02*
X84582000Y-89154000D01*
D48*
X85979000Y-87246460D02*
X85979000Y-83693000D01*
D40*
X104140000Y-109761418D02*
X104140000Y-108966000D01*
D45*
X86995000Y-87246460D02*
X85725000Y-87246460D01*
D46*
X87376000Y-81534000D02*
X86868000Y-81534000D01*
D42*
X86360000Y-89154000D02*
X86360000Y-87122000D01*
D41*
X104500000Y-104000266D02*
X104267000Y-104233266D01*
D42*
X84582000Y-89154000D02*
X84582000Y-90932000D01*
D41*
X104267000Y-104233266D02*
X104267000Y-107442000D01*
D42*
X86360000Y-90932000D02*
X84582000Y-90932000D01*
D40*
X105158540Y-110779958D02*
X104140000Y-109761418D01*
D41*
X104267000Y-107442000D02*
X104902000Y-108077000D01*
D40*
X104902000Y-108204000D02*
X104902000Y-108077000D01*
D42*
X85979000Y-87246460D02*
X86360000Y-87627460D01*
D43*
%TO.N,/Mosfet driver/H1_LOW*%
X101158040Y-112969040D02*
X101473000Y-113284000D01*
X101158040Y-111823500D02*
X101158040Y-112969040D01*
%TO.N,/Mosfet driver/H3_LOW*%
X106156760Y-109070500D02*
X106156760Y-111823500D01*
X105471900Y-107111330D02*
X105471900Y-108385640D01*
X105326596Y-106966026D02*
X105471900Y-107111330D01*
X105471900Y-108385640D02*
X106156760Y-109070500D01*
D40*
%TO.N,/MCU/SENS1*%
X105156000Y-137383520D02*
X106964480Y-137383520D01*
X106964480Y-137383520D02*
X107061000Y-137287000D01*
X104587040Y-136814560D02*
X105156000Y-137383520D01*
%TO.N,/MCU/SENS2*%
X105285300Y-135636000D02*
X105792150Y-136142850D01*
X104089200Y-135910320D02*
X104363520Y-135636000D01*
X104363520Y-135636000D02*
X105285300Y-135636000D01*
X104089200Y-136814560D02*
X104089200Y-135910320D01*
D41*
%TO.N,/Mosfet driver/M_H1*%
X114808000Y-81915000D02*
X114808000Y-83058000D01*
D43*
X99656900Y-112878870D02*
X99324373Y-113211397D01*
X99656900Y-111823500D02*
X99656900Y-112878870D01*
X99324373Y-113211397D02*
X99012291Y-113211397D01*
%TO.N,/Mosfet driver/M_L1*%
X100657660Y-113019431D02*
X100441730Y-113235361D01*
X100657660Y-111823500D02*
X100657660Y-113019431D01*
D40*
%TO.N,/MCU/SENS3*%
X103588820Y-136814560D02*
X103588820Y-138042640D01*
X103588820Y-138042640D02*
X103632000Y-138085820D01*
D41*
%TO.N,/Mosfet driver/M_H2*%
X104394000Y-91694000D02*
X104394000Y-90678000D01*
D43*
X105010783Y-102507217D02*
X105537509Y-102507217D01*
X102156260Y-111823500D02*
X102156260Y-109395260D01*
X104775000Y-102743000D02*
X105010783Y-102507217D01*
X101727000Y-104521000D02*
X103505000Y-102743000D01*
X101727000Y-108966000D02*
X101727000Y-104521000D01*
X103505000Y-102743000D02*
X104775000Y-102743000D01*
X102156260Y-109395260D02*
X101727000Y-108966000D01*
%TO.N,/Mosfet driver/M_L2*%
X103037394Y-112845202D02*
X102996600Y-112845202D01*
X102996600Y-112845202D02*
X102596601Y-113245201D01*
X103157020Y-112725576D02*
X103037394Y-112845202D01*
X103157020Y-111823500D02*
X103157020Y-112725576D01*
D41*
%TO.N,/Mosfet driver/M_H3*%
X91313000Y-90170000D02*
X91440000Y-90043000D01*
X91440000Y-90043000D02*
X91440000Y-89535000D01*
D43*
X106485698Y-113293617D02*
X107051383Y-113293617D01*
X105072907Y-113293617D02*
X106485698Y-113293617D01*
X104658160Y-111823500D02*
X104658160Y-112878870D01*
X104658160Y-112878870D02*
X105072907Y-113293617D01*
%TO.N,/Mosfet driver/M_L3*%
X105656380Y-109842327D02*
X105383273Y-109569220D01*
X105656380Y-111823500D02*
X105656380Y-109842327D01*
%TO.N,/Mosfet driver/SH1_A*%
X105313447Y-105918000D02*
X105264351Y-105868904D01*
X105264351Y-105868904D02*
X106757904Y-105868904D01*
X106757904Y-105868904D02*
X106807000Y-105918000D01*
%TO.N,/Mosfet driver/SH1_B*%
X107860901Y-104825601D02*
X108331000Y-105295700D01*
X105266323Y-104825601D02*
X107860901Y-104825601D01*
X108331000Y-105295700D02*
X108331000Y-105918000D01*
%TO.N,/Mosfet driver/SH2_A*%
X109855000Y-105295700D02*
X110248700Y-104902000D01*
X110248700Y-104902000D02*
X110940315Y-104902000D01*
X110940315Y-104902000D02*
X111506000Y-104902000D01*
X109855000Y-105918000D02*
X109855000Y-105295700D01*
%TO.N,/Mosfet driver/SH2_B*%
X111379000Y-105918000D02*
X111429779Y-105968779D01*
X111429779Y-106146699D02*
X111029780Y-106546698D01*
X111429779Y-105968779D02*
X111429779Y-106146699D01*
D40*
%TO.N,/MCU/BR_SO2*%
X107492800Y-130314700D02*
X106588560Y-130314700D01*
X110303831Y-127923841D02*
X107912972Y-130314700D01*
X110303831Y-125035831D02*
X110303831Y-127923841D01*
X107657900Y-119824500D02*
X107657900Y-122389900D01*
X107657900Y-122389900D02*
X110303831Y-125035831D01*
X107912972Y-130314700D02*
X107492800Y-130314700D01*
%TO.N,/MCU/BR_SO1*%
X106588560Y-129814320D02*
X107802680Y-129814320D01*
X109872020Y-127744980D02*
X109872020Y-125452378D01*
X107157520Y-120829070D02*
X107157520Y-119824500D01*
X107802680Y-129814320D02*
X109872020Y-127744980D01*
X109872020Y-125452378D02*
X107157520Y-122737878D01*
X107157520Y-122737878D02*
X107157520Y-120829070D01*
%TO.N,/MCU/DC_CAL*%
X105127040Y-125313440D02*
X105181969Y-125258511D01*
X100657660Y-119824500D02*
X100657660Y-118527928D01*
X104587040Y-125313440D02*
X105127040Y-125313440D01*
X100657660Y-118527928D02*
X100505015Y-118375283D01*
%TO.N,/MCU/L3*%
X105000000Y-126500000D02*
X104852639Y-126647361D01*
X104852639Y-126647361D02*
X104518881Y-126647361D01*
X104518881Y-126647361D02*
X104089200Y-126217680D01*
X105656380Y-119824500D02*
X105656380Y-118819930D01*
X106239310Y-118237000D02*
X106495315Y-118237000D01*
X106495315Y-118237000D02*
X107061000Y-118237000D01*
X105656380Y-118819930D02*
X106239310Y-118237000D01*
X104089200Y-126217680D02*
X104089200Y-125313440D01*
%TO.N,/MCU/L2*%
X104658160Y-118607840D02*
X104902000Y-118364000D01*
X103588820Y-125313440D02*
X103588820Y-126462094D01*
X103588820Y-126462094D02*
X104243485Y-127116759D01*
X104658160Y-119824500D02*
X104658160Y-118607840D01*
X104243485Y-127116759D02*
X104643484Y-127516758D01*
%TO.N,/MCU/L1*%
X103088440Y-127345440D02*
X103632000Y-127889000D01*
X103657400Y-119824500D02*
X103657400Y-118592596D01*
X103657400Y-118592596D02*
X103885996Y-118364000D01*
X103088440Y-125313440D02*
X103088440Y-127345440D01*
%TO.N,/MCU/EN_GATE*%
X102656640Y-118460924D02*
X102696053Y-118421511D01*
X102656640Y-119824500D02*
X102656640Y-118460924D01*
X95087440Y-128313180D02*
X96563180Y-128313180D01*
X97282000Y-129032000D02*
X98806000Y-129032000D01*
X99803001Y-128034999D02*
X100203000Y-127635000D01*
X98806000Y-129032000D02*
X99803001Y-128034999D01*
X96563180Y-128313180D02*
X97282000Y-129032000D01*
%TO.N,/MCU/FAULT*%
X96420940Y-129313940D02*
X96520000Y-129413000D01*
X97657920Y-118485920D02*
X97657920Y-119824500D01*
X97222000Y-118050000D02*
X97657920Y-118485920D01*
X97222000Y-118050000D02*
X96450000Y-118050000D01*
X95087440Y-129313940D02*
X96420940Y-129313940D01*
%TO.N,/MCU/H3*%
X100589080Y-125313440D02*
X100589080Y-124462398D01*
X105158540Y-120829070D02*
X105158540Y-119824500D01*
X100693079Y-124358399D02*
X103836271Y-124358399D01*
X104648000Y-123546670D02*
X104648000Y-121339610D01*
X100589080Y-124462398D02*
X100693079Y-124358399D01*
X104648000Y-121339610D02*
X105158540Y-120829070D01*
X103836271Y-124358399D02*
X104648000Y-123546670D01*
%TO.N,/MCU/H2*%
X104157780Y-120829070D02*
X104157780Y-119824500D01*
X100514218Y-123926588D02*
X103657410Y-123926588D01*
X104157780Y-123426218D02*
X104157780Y-120829070D01*
X100088700Y-125313440D02*
X100088700Y-124352106D01*
X100088700Y-124352106D02*
X100514218Y-123926588D01*
X103657410Y-123926588D02*
X104157780Y-123426218D01*
%TO.N,/MCU/H1*%
X103157020Y-121191020D02*
X103378000Y-121412000D01*
X100018315Y-126619000D02*
X100584000Y-126619000D01*
X99989640Y-126619000D02*
X100018315Y-126619000D01*
X99588320Y-125313440D02*
X99588320Y-126217680D01*
X99588320Y-126217680D02*
X99989640Y-126619000D01*
X103157020Y-119824500D02*
X103157020Y-121191020D01*
%TO.N,/MCU/USB_DM*%
X91636801Y-126863199D02*
X91636801Y-126508557D01*
X92590557Y-125554801D02*
X95498717Y-125554801D01*
X89733500Y-128375500D02*
X90124500Y-128375500D01*
X98884740Y-124206000D02*
X99087940Y-124409200D01*
X90124500Y-128375500D02*
X91636801Y-126863199D01*
X99087940Y-124409200D02*
X99087940Y-125313440D01*
X91636801Y-126508557D02*
X92590557Y-125554801D01*
X89162000Y-127550000D02*
X89162000Y-127804000D01*
X96847518Y-124206000D02*
X98884740Y-124206000D01*
X89162000Y-127804000D02*
X89733500Y-128375500D01*
X95498717Y-125554801D02*
X96847518Y-124206000D01*
%TO.N,/MCU/USB_DP*%
X98587560Y-126273560D02*
X98850000Y-126650000D01*
X90200000Y-127038000D02*
X90200000Y-127300000D01*
X89162000Y-126000000D02*
X90200000Y-127038000D01*
X98587560Y-125313440D02*
X98587560Y-126273560D01*
%TO.N,/TX_SDA*%
X102489000Y-127889000D02*
X102588060Y-127789940D01*
X102588060Y-127789940D02*
X102588060Y-125313440D01*
X104477820Y-128313180D02*
X103886000Y-128905000D01*
X103886000Y-128905000D02*
X102997000Y-128905000D01*
X102997000Y-128905000D02*
X102489000Y-128397000D01*
X106588560Y-128313180D02*
X104477820Y-128313180D01*
X104173755Y-133314440D02*
X105684320Y-133314440D01*
X102489000Y-128156220D02*
X102489000Y-127889000D01*
X105684320Y-133314440D02*
X106588560Y-133314440D01*
D46*
X102489000Y-128397000D02*
X102489000Y-128156220D01*
D40*
X103632000Y-132207000D02*
X103632000Y-132772685D01*
X103632000Y-132772685D02*
X104173755Y-133314440D01*
D46*
%TO.N,/Filters/HALL3_OUT*%
X94234000Y-128813560D02*
X93859398Y-129188162D01*
X95087440Y-128813560D02*
X94234000Y-128813560D01*
X93859398Y-129188162D02*
X93859398Y-129369533D01*
D40*
%TO.N,/Filters/HALL2_OUT*%
X93991632Y-132313680D02*
X93605312Y-132700000D01*
X95087440Y-132313680D02*
X93991632Y-132313680D01*
%TO.N,/Filters/HALL1_OUT*%
X94050000Y-131250000D02*
X93819521Y-131019521D01*
X94183200Y-131813300D02*
X94050000Y-131680100D01*
X95087440Y-131813300D02*
X94183200Y-131813300D01*
X90467858Y-130963990D02*
X89940933Y-130963990D01*
X94050000Y-131680100D02*
X94050000Y-131250000D01*
X89940933Y-130963990D02*
X89528611Y-131376312D01*
X89528611Y-131376312D02*
X89528611Y-132602261D01*
X89528611Y-132602261D02*
X89453446Y-132677426D01*
X93819521Y-131019521D02*
X90523389Y-131019521D01*
X90523389Y-131019521D02*
X90467858Y-130963990D01*
%TO.N,/RX_SCL_MOSI*%
X102087680Y-126217680D02*
X101473000Y-126832360D01*
X104376728Y-129540000D02*
X104123409Y-129540000D01*
X104957880Y-129540000D02*
X104376728Y-129540000D01*
X105029000Y-131102242D02*
X105740058Y-131813300D01*
X101473000Y-128241563D02*
X101473000Y-128578582D01*
X101473000Y-128578582D02*
X101473000Y-128778000D01*
X104123409Y-129540000D02*
X104315260Y-129540000D01*
X105684320Y-128813560D02*
X104957880Y-129540000D01*
X105740058Y-131813300D02*
X106588560Y-131813300D01*
X104123409Y-129540000D02*
X102235000Y-129540000D01*
X101473000Y-126832360D02*
X101473000Y-128096789D01*
X106588560Y-128813560D02*
X105684320Y-128813560D01*
X101473000Y-128096789D02*
X101473000Y-128241563D01*
X101473000Y-128778000D02*
X102235000Y-129540000D01*
X102087680Y-125313440D02*
X102087680Y-126217680D01*
X105029000Y-130253740D02*
X105029000Y-131102242D01*
X106588560Y-131813300D02*
X106542981Y-131767721D01*
X104315260Y-129540000D02*
X105029000Y-130253740D01*
%TO.N,/CAN bus transceiver/CANL*%
X81064760Y-117726760D02*
X80450000Y-117726760D01*
X85238000Y-121900000D02*
X81064760Y-117726760D01*
X85238000Y-122500000D02*
X85238000Y-121900000D01*
D46*
X86133000Y-130415000D02*
X86280144Y-130415000D01*
D40*
%TO.N,/CAN bus transceiver/CANH*%
X80587240Y-115725240D02*
X80450000Y-115725240D01*
X86762000Y-122362000D02*
X80450000Y-116050000D01*
X80450000Y-116050000D02*
X80450000Y-115725240D01*
X88292526Y-130401474D02*
X87009000Y-131685000D01*
X87009000Y-131685000D02*
X86133000Y-131685000D01*
X88100000Y-123900000D02*
X88100000Y-123838000D01*
X88100000Y-123838000D02*
X86762000Y-122500000D01*
X88292526Y-129652290D02*
X88292526Y-130401474D01*
X86533050Y-131685000D02*
X86133000Y-131685000D01*
X86762000Y-122500000D02*
X86762000Y-122362000D01*
%TO.N,/MCU/LED_GREEN*%
X106588560Y-131312920D02*
X108717080Y-131312920D01*
X108717080Y-131312920D02*
X109074001Y-130955999D01*
X109074001Y-130955999D02*
X109474000Y-130556000D01*
%TO.N,/MCU/LED_RED*%
X108071920Y-130815080D02*
X109474000Y-129413000D01*
X109824101Y-129413000D02*
X109849234Y-129387867D01*
X106588560Y-130815080D02*
X108071920Y-130815080D01*
X109474000Y-129413000D02*
X109824101Y-129413000D01*
%TO.N,/MISO_RX_SCL*%
X103540992Y-131100000D02*
X104012992Y-131572000D01*
X104775000Y-131572000D02*
X105516680Y-132313680D01*
X104012992Y-131572000D02*
X104775000Y-131572000D01*
X105516680Y-132313680D02*
X106588560Y-132313680D01*
X103300000Y-131100000D02*
X103540992Y-131100000D01*
%TO.N,/CAN bus transceiver/CAN_RX*%
X89115141Y-133382227D02*
X88748645Y-133015731D01*
X89791751Y-133382227D02*
X89115141Y-133382227D01*
X89096801Y-131115149D02*
X91066950Y-129145000D01*
X90641135Y-132350000D02*
X90220127Y-132771008D01*
X92306280Y-132350000D02*
X90641135Y-132350000D01*
X88748645Y-133015731D02*
X88748645Y-132258461D01*
X94033978Y-133314440D02*
X93943617Y-133404801D01*
X89096801Y-131910305D02*
X89096801Y-131115149D01*
X95087440Y-133314440D02*
X94033978Y-133314440D01*
X91066950Y-129145000D02*
X91467000Y-129145000D01*
X93267007Y-133404801D02*
X92900511Y-133038305D01*
X90220127Y-132771008D02*
X90220127Y-132953851D01*
X88748645Y-132258461D02*
X89096801Y-131910305D01*
X92900511Y-133038305D02*
X92900511Y-132944231D01*
X92900511Y-132944231D02*
X92306280Y-132350000D01*
X90220127Y-132953851D02*
X89791751Y-133382227D01*
X93943617Y-133404801D02*
X93267007Y-133404801D01*
%TO.N,/CAN bus transceiver/CAN_TX*%
X91867050Y-132955000D02*
X91467000Y-132955000D01*
X94183200Y-133814820D02*
X94161409Y-133836611D01*
X95087440Y-133814820D02*
X94183200Y-133814820D01*
X92748661Y-133836611D02*
X91867050Y-132955000D01*
X94161409Y-133836611D02*
X92748661Y-133836611D01*
%TO.N,/MCU/ADC_TEMP*%
X110744000Y-125984000D02*
X110998000Y-125730000D01*
X110998000Y-125730000D02*
X111760000Y-125730000D01*
D46*
X110744000Y-124587000D02*
X112077500Y-123253500D01*
X112077500Y-123253500D02*
X114871500Y-123253500D01*
X114871500Y-123253500D02*
X115951000Y-122174000D01*
X115951000Y-103251000D02*
X115824000Y-103124000D01*
X115951000Y-103759000D02*
X115951000Y-122174000D01*
X115951000Y-102997000D02*
X115824000Y-102870000D01*
D40*
X108600303Y-134239000D02*
X111125000Y-134239000D01*
D46*
X110744000Y-124587000D02*
X110744000Y-125984000D01*
D40*
X111760000Y-129794000D02*
X111379000Y-129794000D01*
X108026263Y-134813040D02*
X108600303Y-134239000D01*
X106588560Y-134813040D02*
X108026263Y-134813040D01*
D46*
X115951000Y-103251000D02*
X115951000Y-103759000D01*
X115951000Y-103759000D02*
X115951000Y-102997000D01*
D40*
X112014000Y-129794000D02*
X111760000Y-129794000D01*
X113157000Y-132207000D02*
X113157000Y-130937000D01*
X111125000Y-134239000D02*
X113157000Y-132207000D01*
X111379000Y-129794000D02*
X110744000Y-129159000D01*
X113157000Y-130937000D02*
X112014000Y-129794000D01*
X110744000Y-129159000D02*
X110744000Y-125984000D01*
%TO.N,Net-(U3-VSENSE)*%
X96156780Y-118762780D02*
X95885000Y-118491000D01*
X95885000Y-118491000D02*
X94996000Y-118491000D01*
X94996000Y-118491000D02*
X91694000Y-121793000D01*
X91694000Y-121793000D02*
X89154000Y-121793000D01*
X89154000Y-121793000D02*
X88900000Y-121539000D01*
X88900000Y-121539000D02*
X88900000Y-120396000D01*
X96156780Y-119824500D02*
X96156780Y-118762780D01*
D43*
X87884000Y-120396000D02*
X88900000Y-120396000D01*
D40*
%TO.N,Net-(U3-DTC)*%
X98158300Y-120916700D02*
X97917000Y-121158000D01*
X97917000Y-121158000D02*
X97409000Y-121158000D01*
X97409000Y-121158000D02*
X97028000Y-121539000D01*
X97028000Y-121539000D02*
X97028000Y-121920000D01*
X98158300Y-119824500D02*
X98158300Y-120916700D01*
%TO.N,Net-(U3-RT_CLK)*%
X95158560Y-119979440D02*
X94615000Y-120523000D01*
X95158560Y-119824500D02*
X95158560Y-119979440D01*
%TO.N,Net-(U3-BIAS)*%
X98656140Y-110721140D02*
X97917000Y-109982000D01*
X97917000Y-109982000D02*
X97917000Y-108585000D01*
X97917000Y-108585000D02*
X97663000Y-108331000D01*
X97663000Y-108331000D02*
X95250000Y-108331000D01*
X95250000Y-108331000D02*
X94742000Y-108839000D01*
X94742000Y-108839000D02*
X94742000Y-109982000D01*
X94742000Y-109982000D02*
X94488000Y-110236000D01*
X94488000Y-110236000D02*
X93853000Y-110236000D01*
X98656140Y-111823500D02*
X98656140Y-110721140D01*
%TO.N,Net-(U401-Rs)*%
X85255000Y-132955000D02*
X84900000Y-132600000D01*
X86133000Y-132955000D02*
X85255000Y-132955000D01*
%TO.N,Net-(X1-VBUS)*%
X81900000Y-128600000D02*
X82000000Y-128700000D01*
X82000000Y-128700000D02*
X83250000Y-128700000D01*
%TO.N,Net-(X1-D+)*%
X87638000Y-127550000D02*
X86330766Y-127550000D01*
X84302000Y-129898000D02*
X84200000Y-130000000D01*
X86330766Y-127550000D02*
X84302000Y-129578766D01*
X84200000Y-130000000D02*
X83250000Y-130000000D01*
X84302000Y-129578766D02*
X84302000Y-129898000D01*
%TO.N,Net-(X1-D-)*%
X86492000Y-127146000D02*
X86234134Y-127146000D01*
X84030134Y-129350000D02*
X83250000Y-129350000D01*
X86234134Y-127146000D02*
X84030134Y-129350000D01*
X87638000Y-126000000D02*
X86492000Y-127146000D01*
%TD*%
%TA.AperFunction,Conductor*%
%TO.N,GND*%
G36*
X116866621Y-110085002D02*
G01*
X116913114Y-110138658D01*
X116924500Y-110191000D01*
X116924500Y-138938711D01*
X116904498Y-139006832D01*
X116850842Y-139053325D01*
X116798307Y-139064711D01*
X110548039Y-139055149D01*
X110485234Y-139038269D01*
X110456264Y-139021544D01*
X110456254Y-139021539D01*
X110279429Y-138957180D01*
X110253261Y-138952565D01*
X110094094Y-138924500D01*
X110015018Y-138924500D01*
X104061186Y-138924500D01*
X103993065Y-138904498D01*
X103946572Y-138850842D01*
X103936468Y-138780568D01*
X103965962Y-138715988D01*
X104002630Y-138686933D01*
X104035141Y-138669870D01*
X104163199Y-138556421D01*
X104260385Y-138415622D01*
X104321052Y-138255656D01*
X104338431Y-138112530D01*
X104341674Y-138085822D01*
X104341674Y-138085817D01*
X104321052Y-137915984D01*
X104311190Y-137889979D01*
X104305736Y-137819193D01*
X104339418Y-137756694D01*
X104401543Y-137722328D01*
X104428993Y-137719299D01*
X104762106Y-137719299D01*
X104762109Y-137719298D01*
X104762113Y-137719298D01*
X104799548Y-137711852D01*
X104836341Y-137704534D01*
X104836344Y-137704531D01*
X104844536Y-137701139D01*
X104915126Y-137693549D01*
X104955755Y-137708427D01*
X105008747Y-137739022D01*
X105105775Y-137765020D01*
X105206225Y-137765020D01*
X106490390Y-137765020D01*
X106558511Y-137785022D01*
X106573943Y-137796708D01*
X106657855Y-137871047D01*
X106657859Y-137871050D01*
X106809346Y-137950557D01*
X106975458Y-137991500D01*
X106975459Y-137991500D01*
X107146541Y-137991500D01*
X107146542Y-137991500D01*
X107312654Y-137950557D01*
X107464141Y-137871050D01*
X107592199Y-137757601D01*
X107637505Y-137691963D01*
X107692661Y-137647265D01*
X107763230Y-137639481D01*
X107826804Y-137671085D01*
X107845965Y-137693538D01*
X107922433Y-137807981D01*
X107922436Y-137807984D01*
X107922439Y-137807988D01*
X108064011Y-137949560D01*
X108064017Y-137949565D01*
X108064019Y-137949567D01*
X108230507Y-138060810D01*
X108415498Y-138137436D01*
X108611884Y-138176500D01*
X108812116Y-138176500D01*
X109008502Y-138137436D01*
X109193493Y-138060810D01*
X109359981Y-137949567D01*
X109501567Y-137807981D01*
X109612810Y-137641493D01*
X109689436Y-137456502D01*
X109728500Y-137260116D01*
X109728500Y-135535884D01*
X109689436Y-135339498D01*
X109612810Y-135154507D01*
X109501567Y-134988019D01*
X109501565Y-134988017D01*
X109501560Y-134988011D01*
X109359990Y-134846441D01*
X109359984Y-134846436D01*
X109359981Y-134846433D01*
X109359976Y-134846430D01*
X109356896Y-134843902D01*
X109355710Y-134842161D01*
X109355604Y-134842055D01*
X109355624Y-134842034D01*
X109316926Y-134785226D01*
X109315023Y-134714255D01*
X109351792Y-134653521D01*
X109415559Y-134622308D01*
X109436827Y-134620500D01*
X110527173Y-134620500D01*
X110595294Y-134640502D01*
X110641787Y-134694158D01*
X110651891Y-134764432D01*
X110622397Y-134829012D01*
X110607104Y-134843902D01*
X110604009Y-134846441D01*
X110462439Y-134988011D01*
X110462434Y-134988017D01*
X110351190Y-135154507D01*
X110274565Y-135339494D01*
X110274564Y-135339497D01*
X110235500Y-135535880D01*
X110235500Y-137260119D01*
X110274564Y-137456502D01*
X110274565Y-137456505D01*
X110300899Y-137520080D01*
X110351190Y-137641493D01*
X110454901Y-137796708D01*
X110462434Y-137807982D01*
X110462439Y-137807988D01*
X110604011Y-137949560D01*
X110604017Y-137949565D01*
X110604019Y-137949567D01*
X110770507Y-138060810D01*
X110955498Y-138137436D01*
X111151884Y-138176500D01*
X111352116Y-138176500D01*
X111548502Y-138137436D01*
X111733493Y-138060810D01*
X111899981Y-137949567D01*
X112041567Y-137807981D01*
X112152810Y-137641493D01*
X112229436Y-137456502D01*
X112268500Y-137260116D01*
X112268500Y-135540933D01*
X112826800Y-135540933D01*
X112826800Y-136239250D01*
X113308616Y-136239250D01*
X113284000Y-136331120D01*
X113284000Y-136464880D01*
X113308616Y-136556750D01*
X112826800Y-136556750D01*
X112826800Y-137255066D01*
X112863892Y-137441538D01*
X112863894Y-137441543D01*
X112936651Y-137617194D01*
X113042277Y-137775274D01*
X113042282Y-137775281D01*
X113176718Y-137909717D01*
X113176725Y-137909722D01*
X113334805Y-138015348D01*
X113510456Y-138088105D01*
X113510461Y-138088107D01*
X113633250Y-138112531D01*
X113633250Y-136881383D01*
X113725120Y-136906000D01*
X113858880Y-136906000D01*
X113950750Y-136881383D01*
X113950750Y-138112530D01*
X114073538Y-138088107D01*
X114073543Y-138088105D01*
X114249194Y-138015348D01*
X114407274Y-137909722D01*
X114407281Y-137909717D01*
X114541717Y-137775281D01*
X114541722Y-137775274D01*
X114647348Y-137617194D01*
X114720105Y-137441543D01*
X114720107Y-137441538D01*
X114757199Y-137255066D01*
X114757200Y-137255062D01*
X114757200Y-136556750D01*
X114275384Y-136556750D01*
X114300000Y-136464880D01*
X114300000Y-136331120D01*
X114275384Y-136239250D01*
X114757200Y-136239250D01*
X114757200Y-135540937D01*
X114757199Y-135540933D01*
X114720107Y-135354461D01*
X114720105Y-135354456D01*
X114647348Y-135178805D01*
X114541722Y-135020725D01*
X114541717Y-135020718D01*
X114407281Y-134886282D01*
X114407274Y-134886277D01*
X114249194Y-134780651D01*
X114073541Y-134707893D01*
X114073538Y-134707892D01*
X113950750Y-134683467D01*
X113950750Y-135914616D01*
X113858880Y-135890000D01*
X113725120Y-135890000D01*
X113633250Y-135914616D01*
X113633250Y-134683467D01*
X113633249Y-134683467D01*
X113510461Y-134707892D01*
X113510458Y-134707893D01*
X113334805Y-134780651D01*
X113176725Y-134886277D01*
X113176718Y-134886282D01*
X113042282Y-135020718D01*
X113042277Y-135020725D01*
X112936651Y-135178805D01*
X112863894Y-135354456D01*
X112863892Y-135354461D01*
X112826800Y-135540933D01*
X112268500Y-135540933D01*
X112268500Y-135535884D01*
X112229436Y-135339498D01*
X112152810Y-135154507D01*
X112041567Y-134988019D01*
X112041565Y-134988017D01*
X112041560Y-134988011D01*
X111899988Y-134846439D01*
X111899982Y-134846434D01*
X111893587Y-134842161D01*
X111733493Y-134735190D01*
X111594396Y-134677574D01*
X111548505Y-134658565D01*
X111548503Y-134658564D01*
X111548502Y-134658564D01*
X111526514Y-134654190D01*
X111463607Y-134621282D01*
X111428477Y-134559586D01*
X111432278Y-134488692D01*
X111462003Y-134441519D01*
X113283022Y-132620499D01*
X113345332Y-132586476D01*
X113416147Y-132591540D01*
X113472983Y-132634087D01*
X113481234Y-132646596D01*
X113564015Y-132789978D01*
X113564016Y-132789980D01*
X113564018Y-132789982D01*
X113680026Y-132918822D01*
X113691276Y-132931317D01*
X113845133Y-133043101D01*
X113845135Y-133043102D01*
X113845138Y-133043104D01*
X114018880Y-133120459D01*
X114204908Y-133160000D01*
X114395092Y-133160000D01*
X114581120Y-133120459D01*
X114754862Y-133043104D01*
X114908724Y-132931317D01*
X115035982Y-132789982D01*
X115131074Y-132625278D01*
X115189844Y-132444402D01*
X115209724Y-132255260D01*
X115189844Y-132066118D01*
X115175552Y-132022132D01*
X115131076Y-131885247D01*
X115131072Y-131885239D01*
X115127007Y-131878199D01*
X115059058Y-131760506D01*
X115035984Y-131720541D01*
X115035983Y-131720540D01*
X115035982Y-131720538D01*
X114908724Y-131579203D01*
X114908723Y-131579202D01*
X114754866Y-131467418D01*
X114735397Y-131458750D01*
X114581120Y-131390061D01*
X114523185Y-131377746D01*
X114460713Y-131344019D01*
X114426391Y-131281869D01*
X114431119Y-131211030D01*
X114473395Y-131153993D01*
X114523186Y-131131253D01*
X114581120Y-131118939D01*
X114754862Y-131041584D01*
X114908724Y-130929797D01*
X115035982Y-130788462D01*
X115131074Y-130623758D01*
X115189844Y-130442882D01*
X115209724Y-130253740D01*
X115189844Y-130064598D01*
X115167895Y-129997045D01*
X115131076Y-129883727D01*
X115131072Y-129883719D01*
X115131004Y-129883602D01*
X115082827Y-129800156D01*
X115035984Y-129719021D01*
X115035983Y-129719020D01*
X115035982Y-129719018D01*
X114908724Y-129577683D01*
X114905118Y-129575063D01*
X114754866Y-129465898D01*
X114739595Y-129459099D01*
X114581120Y-129388541D01*
X114529160Y-129377496D01*
X114466688Y-129343769D01*
X114432366Y-129281619D01*
X114437094Y-129210780D01*
X114479370Y-129153743D01*
X114529161Y-129131003D01*
X114581120Y-129119959D01*
X114754862Y-129042604D01*
X114908724Y-128930817D01*
X115035982Y-128789482D01*
X115131074Y-128624778D01*
X115189844Y-128443902D01*
X115209724Y-128254760D01*
X115189844Y-128065618D01*
X115157087Y-127964802D01*
X115131076Y-127884747D01*
X115131072Y-127884739D01*
X115124756Y-127873800D01*
X115063176Y-127767139D01*
X115035984Y-127720041D01*
X115035983Y-127720040D01*
X115035982Y-127720038D01*
X114908724Y-127578703D01*
X114908723Y-127578702D01*
X114754866Y-127466918D01*
X114750926Y-127465164D01*
X114581120Y-127389561D01*
X114581111Y-127389559D01*
X114399815Y-127351023D01*
X114337341Y-127317294D01*
X114303020Y-127255145D01*
X114307748Y-127184306D01*
X114350024Y-127127268D01*
X114399816Y-127104529D01*
X114565179Y-127069381D01*
X114729070Y-126996412D01*
X114780963Y-126958708D01*
X114449537Y-126627282D01*
X114454394Y-126625981D01*
X114545606Y-126573320D01*
X114620080Y-126498846D01*
X114672741Y-126407634D01*
X114674042Y-126402777D01*
X115006935Y-126735670D01*
X115006936Y-126735670D01*
X115083949Y-126602281D01*
X115139389Y-126431657D01*
X115158140Y-126253240D01*
X115139389Y-126074822D01*
X115083950Y-125904204D01*
X115083947Y-125904197D01*
X115006936Y-125770808D01*
X114674042Y-126103702D01*
X114672741Y-126098846D01*
X114620080Y-126007634D01*
X114545606Y-125933160D01*
X114454394Y-125880499D01*
X114449534Y-125879197D01*
X114780962Y-125547770D01*
X114780962Y-125547769D01*
X114729071Y-125510068D01*
X114565180Y-125437099D01*
X114405790Y-125403220D01*
X114343317Y-125369492D01*
X114308995Y-125307342D01*
X114313723Y-125236503D01*
X114355999Y-125179465D01*
X114405790Y-125156726D01*
X114581120Y-125119459D01*
X114754862Y-125042104D01*
X114908724Y-124930317D01*
X115035982Y-124788982D01*
X115131074Y-124624278D01*
X115189844Y-124443402D01*
X115209724Y-124254260D01*
X115189844Y-124065118D01*
X115170301Y-124004970D01*
X115131076Y-123884247D01*
X115131073Y-123884240D01*
X115034111Y-123716297D01*
X115017373Y-123647302D01*
X115040593Y-123580210D01*
X115080231Y-123544177D01*
X115090151Y-123538451D01*
X116235951Y-122392651D01*
X116282834Y-122311449D01*
X116307101Y-122220881D01*
X116307101Y-122127118D01*
X116307101Y-122119401D01*
X116307100Y-122119383D01*
X116307100Y-110191000D01*
X116327102Y-110122879D01*
X116380758Y-110076386D01*
X116433100Y-110065000D01*
X116798500Y-110065000D01*
X116866621Y-110085002D01*
G37*
%TD.AperFunction*%
%TA.AperFunction,Conductor*%
G36*
X79078239Y-110085002D02*
G01*
X79124732Y-110138658D01*
X79134836Y-110208932D01*
X79121240Y-110250396D01*
X79066334Y-110353116D01*
X79066332Y-110353122D01*
X79008206Y-110544736D01*
X79008206Y-110544738D01*
X78988582Y-110743996D01*
X78988582Y-110744003D01*
X79008206Y-110943261D01*
X79008206Y-110943263D01*
X79066332Y-111134877D01*
X79066334Y-111134883D01*
X79160720Y-111311466D01*
X79160722Y-111311469D01*
X79287748Y-111466252D01*
X79442531Y-111593278D01*
X79619120Y-111687667D01*
X79810731Y-111745792D01*
X79810735Y-111745792D01*
X79810737Y-111745793D01*
X80009997Y-111765418D01*
X80010000Y-111765418D01*
X80010003Y-111765418D01*
X80209261Y-111745793D01*
X80209263Y-111745793D01*
X80209264Y-111745792D01*
X80209269Y-111745792D01*
X80400880Y-111687667D01*
X80577469Y-111593278D01*
X80599815Y-111574938D01*
X80665159Y-111547185D01*
X80721363Y-111553409D01*
X81013157Y-111655512D01*
X81013160Y-111655512D01*
X81013164Y-111655514D01*
X81319166Y-111725357D01*
X81540328Y-111750276D01*
X81631062Y-111760500D01*
X81631064Y-111760500D01*
X81731879Y-111760500D01*
X81744228Y-111761106D01*
X81750646Y-111761739D01*
X81787998Y-111765418D01*
X81788000Y-111765418D01*
X81788002Y-111765418D01*
X81825354Y-111761739D01*
X81831771Y-111761106D01*
X81844121Y-111760500D01*
X81944938Y-111760500D01*
X82024149Y-111751574D01*
X82256834Y-111725357D01*
X82562836Y-111655514D01*
X82740703Y-111593276D01*
X82854636Y-111553409D01*
X82925540Y-111549789D01*
X82976183Y-111574938D01*
X82998528Y-111593276D01*
X82998529Y-111593276D01*
X82998531Y-111593278D01*
X83175120Y-111687667D01*
X83366731Y-111745792D01*
X83366735Y-111745792D01*
X83366737Y-111745793D01*
X83565997Y-111765418D01*
X83566000Y-111765418D01*
X83566003Y-111765418D01*
X83765261Y-111745793D01*
X83765263Y-111745793D01*
X83765264Y-111745792D01*
X83765269Y-111745792D01*
X83956880Y-111687667D01*
X84133469Y-111593278D01*
X84288252Y-111466252D01*
X84415278Y-111311469D01*
X84415282Y-111311461D01*
X84416776Y-111309227D01*
X84417861Y-111308319D01*
X84419204Y-111306684D01*
X84419514Y-111306938D01*
X84471254Y-111263700D01*
X84541697Y-111254853D01*
X84605740Y-111285495D01*
X84643051Y-111345897D01*
X84647540Y-111379230D01*
X84647540Y-118836103D01*
X84647541Y-118836112D01*
X84662305Y-118910340D01*
X84718556Y-118994524D01*
X84802737Y-119050773D01*
X84802739Y-119050774D01*
X84876973Y-119065540D01*
X85385140Y-119065539D01*
X85453261Y-119085541D01*
X85499754Y-119139196D01*
X85511140Y-119191539D01*
X85511140Y-120096566D01*
X85505716Y-120133137D01*
X85504684Y-120136538D01*
X85504683Y-120136541D01*
X85504683Y-120136542D01*
X85484651Y-120237250D01*
X85479559Y-120262849D01*
X85446651Y-120325758D01*
X85384956Y-120360890D01*
X85314061Y-120357090D01*
X85266885Y-120327362D01*
X81380918Y-116441395D01*
X81346892Y-116379083D01*
X81351957Y-116308268D01*
X81365248Y-116282298D01*
X81451187Y-116153681D01*
X81519370Y-115989073D01*
X81554130Y-115814325D01*
X81554130Y-115636155D01*
X81519370Y-115461407D01*
X81451187Y-115296799D01*
X81352201Y-115148655D01*
X81352199Y-115148653D01*
X81352194Y-115148647D01*
X81226222Y-115022675D01*
X81226216Y-115022670D01*
X81218365Y-115017424D01*
X81078071Y-114923683D01*
X80974270Y-114880687D01*
X80913466Y-114855501D01*
X80913463Y-114855500D01*
X80882436Y-114849328D01*
X80819529Y-114816421D01*
X80784397Y-114754726D01*
X80788197Y-114683831D01*
X80829723Y-114626245D01*
X80882436Y-114602171D01*
X80913463Y-114596000D01*
X81078071Y-114527817D01*
X81226215Y-114428831D01*
X81352201Y-114302845D01*
X81451187Y-114154701D01*
X81519370Y-113990093D01*
X81554130Y-113815345D01*
X81554130Y-113637175D01*
X81519370Y-113462427D01*
X81451187Y-113297819D01*
X81352201Y-113149675D01*
X81352199Y-113149673D01*
X81352194Y-113149667D01*
X81226222Y-113023695D01*
X81226216Y-113023690D01*
X81213037Y-113014884D01*
X81078071Y-112924703D01*
X80973789Y-112881508D01*
X80913466Y-112856521D01*
X80913463Y-112856520D01*
X80738718Y-112821760D01*
X80738715Y-112821760D01*
X80161285Y-112821760D01*
X80161281Y-112821760D01*
X79986536Y-112856520D01*
X79986533Y-112856521D01*
X79821929Y-112924703D01*
X79673783Y-113023690D01*
X79673777Y-113023695D01*
X79547805Y-113149667D01*
X79547800Y-113149673D01*
X79448813Y-113297819D01*
X79380631Y-113462423D01*
X79380630Y-113462426D01*
X79345870Y-113637171D01*
X79345870Y-113815348D01*
X79380630Y-113990093D01*
X79380631Y-113990096D01*
X79391162Y-114015519D01*
X79448813Y-114154701D01*
X79547799Y-114302845D01*
X79547800Y-114302846D01*
X79547805Y-114302852D01*
X79673777Y-114428824D01*
X79673783Y-114428829D01*
X79673785Y-114428831D01*
X79821929Y-114527817D01*
X79986537Y-114596000D01*
X80017561Y-114602171D01*
X80080471Y-114635079D01*
X80115602Y-114696775D01*
X80111801Y-114767669D01*
X80070275Y-114825255D01*
X80017561Y-114849328D01*
X80004786Y-114851870D01*
X79986536Y-114855500D01*
X79986533Y-114855501D01*
X79821929Y-114923683D01*
X79673783Y-115022670D01*
X79673777Y-115022675D01*
X79547805Y-115148647D01*
X79547800Y-115148653D01*
X79448813Y-115296799D01*
X79380631Y-115461403D01*
X79380630Y-115461406D01*
X79345870Y-115636151D01*
X79345870Y-115814328D01*
X79380630Y-115989073D01*
X79380631Y-115989076D01*
X79389808Y-116011230D01*
X79448813Y-116153681D01*
X79545455Y-116298317D01*
X79547800Y-116301826D01*
X79547805Y-116301832D01*
X79673777Y-116427804D01*
X79673783Y-116427809D01*
X79673785Y-116427811D01*
X79821929Y-116526797D01*
X79986537Y-116594980D01*
X80023946Y-116602421D01*
X80086855Y-116635329D01*
X80121986Y-116697025D01*
X80118185Y-116767920D01*
X80076659Y-116825505D01*
X80023946Y-116849578D01*
X79986537Y-116857020D01*
X79986535Y-116857020D01*
X79986534Y-116857021D01*
X79986533Y-116857021D01*
X79821929Y-116925203D01*
X79673783Y-117024190D01*
X79673777Y-117024195D01*
X79547805Y-117150167D01*
X79547800Y-117150173D01*
X79448813Y-117298319D01*
X79380631Y-117462923D01*
X79380630Y-117462926D01*
X79345870Y-117637671D01*
X79345870Y-117815848D01*
X79380630Y-117990593D01*
X79380631Y-117990596D01*
X79390551Y-118014545D01*
X79448813Y-118155201D01*
X79547799Y-118303345D01*
X79547800Y-118303346D01*
X79547805Y-118303352D01*
X79673777Y-118429324D01*
X79673783Y-118429329D01*
X79673785Y-118429331D01*
X79821929Y-118528317D01*
X79986537Y-118596500D01*
X80097137Y-118618500D01*
X80132332Y-118625501D01*
X80195242Y-118658409D01*
X80230373Y-118720104D01*
X80226573Y-118790999D01*
X80185047Y-118848585D01*
X80118980Y-118874579D01*
X80107750Y-118875080D01*
X79580355Y-118875080D01*
X79521083Y-118886870D01*
X79453870Y-118931780D01*
X79408960Y-118998993D01*
X79397170Y-119058265D01*
X79397170Y-119569530D01*
X80079774Y-119569530D01*
X80077259Y-119573886D01*
X80050000Y-119675619D01*
X80050000Y-119780941D01*
X80077259Y-119882674D01*
X80079774Y-119887030D01*
X79397170Y-119887030D01*
X79397170Y-120398294D01*
X79408960Y-120457566D01*
X79453870Y-120524779D01*
X79521083Y-120569689D01*
X79580355Y-120581479D01*
X79580361Y-120581480D01*
X80291250Y-120581480D01*
X80291250Y-120098506D01*
X80295606Y-120101021D01*
X80397339Y-120128280D01*
X80502661Y-120128280D01*
X80604394Y-120101021D01*
X80608750Y-120098506D01*
X80608750Y-120581480D01*
X81319639Y-120581480D01*
X81319644Y-120581479D01*
X81378916Y-120569689D01*
X81446129Y-120524779D01*
X81491039Y-120457566D01*
X81502829Y-120398294D01*
X81502830Y-120398289D01*
X81502830Y-119887030D01*
X80820226Y-119887030D01*
X80822741Y-119882674D01*
X80850000Y-119780941D01*
X80850000Y-119675619D01*
X80822741Y-119573886D01*
X80820226Y-119569530D01*
X81502830Y-119569530D01*
X81502830Y-119058270D01*
X81495985Y-119023860D01*
X81502313Y-118953146D01*
X81545866Y-118897078D01*
X81612819Y-118873458D01*
X81681913Y-118889784D01*
X81708659Y-118910182D01*
X84629095Y-121830618D01*
X84663121Y-121892930D01*
X84666000Y-121919713D01*
X84666000Y-123096563D01*
X84666001Y-123096573D01*
X84680765Y-123170800D01*
X84737016Y-123254984D01*
X84821197Y-123311233D01*
X84821199Y-123311234D01*
X84895433Y-123326000D01*
X85218286Y-123325999D01*
X85286406Y-123346001D01*
X85307376Y-123362899D01*
X86201753Y-124257276D01*
X86201754Y-124257277D01*
X86201756Y-124257278D01*
X86288743Y-124307500D01*
X86288744Y-124307500D01*
X86288747Y-124307502D01*
X86288749Y-124307502D01*
X86292535Y-124309071D01*
X86295243Y-124311253D01*
X86295899Y-124311632D01*
X86295840Y-124311734D01*
X86347818Y-124353617D01*
X86370242Y-124420979D01*
X86352686Y-124489771D01*
X86327876Y-124519794D01*
X86317034Y-124529399D01*
X86209936Y-124624280D01*
X86209799Y-124624401D01*
X86112616Y-124765195D01*
X86051947Y-124925166D01*
X86031326Y-125094997D01*
X86031326Y-125095002D01*
X86051947Y-125264833D01*
X86051947Y-125264835D01*
X86051948Y-125264836D01*
X86095806Y-125380481D01*
X86112616Y-125424804D01*
X86209799Y-125565599D01*
X86209802Y-125565602D01*
X86337853Y-125679045D01*
X86337862Y-125679052D01*
X86410848Y-125717358D01*
X86489346Y-125758557D01*
X86655458Y-125799500D01*
X86655459Y-125799500D01*
X86826541Y-125799500D01*
X86826542Y-125799500D01*
X86909847Y-125778967D01*
X86980774Y-125782086D01*
X87038756Y-125823055D01*
X87065385Y-125888869D01*
X87066000Y-125901306D01*
X87066000Y-125980285D01*
X87045998Y-126048406D01*
X87029096Y-126069380D01*
X86370883Y-126727594D01*
X86308570Y-126761619D01*
X86281787Y-126764499D01*
X86183909Y-126764499D01*
X86135395Y-126777498D01*
X86086879Y-126790498D01*
X85999890Y-126840721D01*
X85999880Y-126840729D01*
X84505681Y-128334928D01*
X84443369Y-128368954D01*
X84372553Y-128363889D01*
X84315718Y-128321342D01*
X84290907Y-128254822D01*
X84293007Y-128221250D01*
X84303199Y-128170009D01*
X84303200Y-128170009D01*
X84303200Y-127767139D01*
X84305622Y-127742554D01*
X84306379Y-127738750D01*
X83853622Y-127738750D01*
X83872851Y-127705445D01*
X83895000Y-127622787D01*
X83895000Y-127537213D01*
X83872851Y-127454555D01*
X83853622Y-127421250D01*
X84306379Y-127421250D01*
X84306379Y-127421249D01*
X84305621Y-127417439D01*
X84303200Y-127392856D01*
X84303200Y-127308750D01*
X83750179Y-127308750D01*
X83695445Y-127277149D01*
X83612787Y-127255000D01*
X83127213Y-127255000D01*
X83044555Y-127277149D01*
X82989821Y-127308750D01*
X82546199Y-127308750D01*
X82543706Y-127311242D01*
X82526198Y-127370871D01*
X82472542Y-127417364D01*
X82420200Y-127428750D01*
X81267250Y-127428750D01*
X81199129Y-127408748D01*
X81152636Y-127355092D01*
X81141250Y-127302750D01*
X81141250Y-126391800D01*
X80528750Y-126391800D01*
X80528750Y-126920000D01*
X80211250Y-126920000D01*
X80211250Y-126391800D01*
X80108501Y-126391800D01*
X79938838Y-126425549D01*
X79938833Y-126425551D01*
X79779016Y-126491749D01*
X79635180Y-126587857D01*
X79635174Y-126587862D01*
X79512862Y-126710174D01*
X79512857Y-126710180D01*
X79416750Y-126854014D01*
X79374326Y-126956434D01*
X79329777Y-127011714D01*
X79262414Y-127034135D01*
X79227763Y-127030554D01*
X79085543Y-126995500D01*
X79085542Y-126995500D01*
X78914458Y-126995500D01*
X78914456Y-126995500D01*
X78748348Y-127036442D01*
X78748341Y-127036445D01*
X78596862Y-127115947D01*
X78596853Y-127115954D01*
X78468802Y-127229397D01*
X78468799Y-127229400D01*
X78371616Y-127370195D01*
X78310947Y-127530166D01*
X78290326Y-127699997D01*
X78290326Y-127700002D01*
X78310947Y-127869833D01*
X78310947Y-127869835D01*
X78310948Y-127869836D01*
X78350134Y-127973162D01*
X78371616Y-128029804D01*
X78453563Y-128148525D01*
X78468801Y-128170601D01*
X78596859Y-128284050D01*
X78602565Y-128289105D01*
X78600687Y-128291223D01*
X78637060Y-128336076D01*
X78646800Y-128384651D01*
X78646800Y-128881250D01*
X80132750Y-128881250D01*
X80200871Y-128901252D01*
X80247364Y-128954908D01*
X80258750Y-129007250D01*
X80258750Y-130801250D01*
X81553200Y-130801250D01*
X81553200Y-130224990D01*
X81553199Y-130224985D01*
X81541409Y-130165713D01*
X81496497Y-130098498D01*
X81487724Y-130089725D01*
X81490764Y-130086684D01*
X81460350Y-130050296D01*
X81451497Y-129979854D01*
X81482134Y-129915807D01*
X81488092Y-129910643D01*
X81487724Y-129910275D01*
X81496497Y-129901501D01*
X81541409Y-129834286D01*
X81553199Y-129775014D01*
X81553200Y-129775009D01*
X81553200Y-129400933D01*
X81573202Y-129332812D01*
X81626858Y-129286319D01*
X81697132Y-129276215D01*
X81709351Y-129278593D01*
X81814458Y-129304500D01*
X81814459Y-129304500D01*
X81985541Y-129304500D01*
X81985542Y-129304500D01*
X81985543Y-129304499D01*
X81985548Y-129304499D01*
X82014345Y-129297401D01*
X82085273Y-129300518D01*
X82143256Y-129341488D01*
X82169885Y-129407301D01*
X82170500Y-129419738D01*
X82170500Y-129575063D01*
X82170501Y-129575073D01*
X82185488Y-129650419D01*
X82185488Y-129699580D01*
X82170500Y-129774927D01*
X82170500Y-130225063D01*
X82170501Y-130225073D01*
X82185488Y-130300419D01*
X82185488Y-130349580D01*
X82170500Y-130424927D01*
X82170500Y-130875063D01*
X82170501Y-130875073D01*
X82183420Y-130940021D01*
X82185265Y-130949298D01*
X82185266Y-130949300D01*
X82185266Y-130949301D01*
X82204454Y-130978018D01*
X82225669Y-131045771D01*
X82223269Y-131072595D01*
X82221801Y-131079976D01*
X82221800Y-131079988D01*
X82221800Y-131141250D01*
X84278200Y-131141250D01*
X84278200Y-131079987D01*
X84278199Y-131079985D01*
X84276731Y-131072602D01*
X84283058Y-131001888D01*
X84295539Y-130978026D01*
X84314734Y-130949301D01*
X84329500Y-130875067D01*
X84329499Y-130438497D01*
X84349501Y-130370377D01*
X84392498Y-130329379D01*
X84434247Y-130305276D01*
X84505276Y-130234247D01*
X84607276Y-130132247D01*
X84657502Y-130045253D01*
X84683501Y-129948225D01*
X84683501Y-129847775D01*
X84683501Y-129840058D01*
X84683500Y-129840040D01*
X84683500Y-129788978D01*
X84703502Y-129720857D01*
X84720399Y-129699888D01*
X84974182Y-129446105D01*
X85036491Y-129412083D01*
X85107306Y-129417147D01*
X85164142Y-129459694D01*
X85186853Y-129510623D01*
X85193495Y-129544020D01*
X85249746Y-129628204D01*
X85320132Y-129675236D01*
X85365659Y-129729713D01*
X85374506Y-129800156D01*
X85343865Y-129864200D01*
X85320132Y-129884764D01*
X85249745Y-129931795D01*
X85193496Y-130015977D01*
X85178730Y-130090210D01*
X85178730Y-130739783D01*
X85178731Y-130739793D01*
X85193495Y-130814020D01*
X85249746Y-130898204D01*
X85320132Y-130945236D01*
X85365659Y-130999713D01*
X85374506Y-131070156D01*
X85343865Y-131134200D01*
X85320132Y-131154764D01*
X85249745Y-131201795D01*
X85193496Y-131285977D01*
X85178730Y-131360210D01*
X85178730Y-131782289D01*
X85158728Y-131850410D01*
X85105072Y-131896903D01*
X85034798Y-131907007D01*
X85022576Y-131904628D01*
X84985543Y-131895500D01*
X84985542Y-131895500D01*
X84814458Y-131895500D01*
X84814456Y-131895500D01*
X84648348Y-131936442D01*
X84648341Y-131936445D01*
X84507755Y-132010231D01*
X84438142Y-132024178D01*
X84372040Y-131998275D01*
X84330435Y-131940746D01*
X84323200Y-131898664D01*
X84323200Y-131879990D01*
X84323199Y-131879985D01*
X84311409Y-131820713D01*
X84259605Y-131743183D01*
X84261620Y-131741835D01*
X84235758Y-131694473D01*
X84240823Y-131623658D01*
X84254114Y-131597688D01*
X84266409Y-131579286D01*
X84278199Y-131520014D01*
X84278200Y-131520009D01*
X84278200Y-131458750D01*
X83408750Y-131458750D01*
X83408750Y-131625561D01*
X83470871Y-131643802D01*
X83517364Y-131697458D01*
X83528750Y-131749800D01*
X83528750Y-132095000D01*
X83211250Y-132095000D01*
X83211250Y-131744438D01*
X83149129Y-131726198D01*
X83102636Y-131672542D01*
X83091250Y-131620200D01*
X83091250Y-131458750D01*
X82221800Y-131458750D01*
X82221800Y-131520014D01*
X82233590Y-131579286D01*
X82278502Y-131646501D01*
X82287276Y-131655275D01*
X82284524Y-131658026D01*
X82315852Y-131695515D01*
X82324698Y-131765959D01*
X82294055Y-131830002D01*
X82233652Y-131867312D01*
X82210060Y-131870488D01*
X82208750Y-131871799D01*
X82208750Y-132591250D01*
X82420200Y-132591250D01*
X82488321Y-132611252D01*
X82534814Y-132664908D01*
X82546200Y-132717250D01*
X82546200Y-132741250D01*
X83113218Y-132741250D01*
X83127213Y-132745000D01*
X83528750Y-132745000D01*
X83528750Y-134103200D01*
X84140009Y-134103200D01*
X84140014Y-134103199D01*
X84199286Y-134091409D01*
X84266499Y-134046499D01*
X84311409Y-133979286D01*
X84323199Y-133920014D01*
X84323200Y-133920009D01*
X84323200Y-133301335D01*
X84343202Y-133233214D01*
X84396858Y-133186721D01*
X84467132Y-133176617D01*
X84507749Y-133189766D01*
X84648346Y-133263557D01*
X84814458Y-133304500D01*
X84814459Y-133304500D01*
X84985541Y-133304500D01*
X84985542Y-133304500D01*
X84985544Y-133304499D01*
X84985547Y-133304499D01*
X84998382Y-133301335D01*
X85014658Y-133297323D01*
X85085585Y-133300438D01*
X85107548Y-133310420D01*
X85107747Y-133310502D01*
X85130969Y-133316725D01*
X85191592Y-133353676D01*
X85203121Y-133368427D01*
X85249746Y-133438204D01*
X85333927Y-133494453D01*
X85333929Y-133494454D01*
X85408163Y-133509220D01*
X86857836Y-133509219D01*
X86857839Y-133509218D01*
X86857843Y-133509218D01*
X86907096Y-133499421D01*
X86932071Y-133494454D01*
X87016254Y-133438204D01*
X87072504Y-133354021D01*
X87087270Y-133279787D01*
X87087269Y-132630214D01*
X87087268Y-132630211D01*
X87087268Y-132630206D01*
X87072504Y-132555979D01*
X87061351Y-132539287D01*
X87016254Y-132471796D01*
X87016253Y-132471795D01*
X86945867Y-132424763D01*
X86900340Y-132370286D01*
X86891493Y-132299842D01*
X86922135Y-132235799D01*
X86945862Y-132215238D01*
X87016254Y-132168204D01*
X87063314Y-132097773D01*
X87117790Y-132052247D01*
X87135461Y-132046072D01*
X87156254Y-132040501D01*
X87243247Y-131990276D01*
X87314276Y-131919247D01*
X88597802Y-130635721D01*
X88648028Y-130548727D01*
X88674026Y-130451699D01*
X88674026Y-130351249D01*
X88674026Y-130312220D01*
X88694028Y-130244099D01*
X88716473Y-130217908D01*
X88763487Y-130176257D01*
X88823725Y-130122891D01*
X88920911Y-129982092D01*
X88981578Y-129822126D01*
X88999414Y-129675236D01*
X89002200Y-129652292D01*
X89002200Y-129652287D01*
X88987916Y-129534651D01*
X88981578Y-129482454D01*
X88920911Y-129322488D01*
X88908494Y-129304499D01*
X88823726Y-129181690D01*
X88823723Y-129181687D01*
X88695672Y-129068244D01*
X88695663Y-129068237D01*
X88544184Y-128988735D01*
X88544183Y-128988734D01*
X88544180Y-128988733D01*
X88544176Y-128988732D01*
X88537050Y-128986029D01*
X88538199Y-128982999D01*
X88489507Y-128954560D01*
X88457292Y-128891293D01*
X88464395Y-128820653D01*
X88492034Y-128778978D01*
X88697276Y-128573737D01*
X88747502Y-128486743D01*
X88752152Y-128469388D01*
X88789100Y-128408768D01*
X88852959Y-128377744D01*
X88873847Y-128375999D01*
X89142286Y-128375999D01*
X89210407Y-128396001D01*
X89231381Y-128412904D01*
X89428224Y-128609747D01*
X89499253Y-128680776D01*
X89499254Y-128680777D01*
X89499256Y-128680778D01*
X89586241Y-128730999D01*
X89586243Y-128730999D01*
X89586246Y-128731001D01*
X89683275Y-128757000D01*
X89683277Y-128757000D01*
X90174723Y-128757000D01*
X90174725Y-128757000D01*
X90271754Y-128731001D01*
X90324139Y-128700756D01*
X90393132Y-128684019D01*
X90460224Y-128707239D01*
X90504112Y-128763045D01*
X90511367Y-128814023D01*
X90512730Y-128814023D01*
X90512730Y-129107506D01*
X90492728Y-129175627D01*
X90475825Y-129196601D01*
X88844831Y-130827594D01*
X88844829Y-130827597D01*
X88791530Y-130880895D01*
X88791522Y-130880905D01*
X88741301Y-130967890D01*
X88715301Y-131064925D01*
X88715301Y-131700092D01*
X88695299Y-131768213D01*
X88678396Y-131789187D01*
X88514398Y-131953185D01*
X88488972Y-131978611D01*
X88443370Y-132024212D01*
X88443366Y-132024217D01*
X88393145Y-132111202D01*
X88367145Y-132208237D01*
X88367145Y-133065954D01*
X88367144Y-133065954D01*
X88380144Y-133114470D01*
X88393144Y-133162985D01*
X88425230Y-133218560D01*
X88443369Y-133249978D01*
X88443371Y-133249980D01*
X88443374Y-133249984D01*
X88880887Y-133687497D01*
X88880892Y-133687501D01*
X88880894Y-133687503D01*
X88880895Y-133687504D01*
X88880897Y-133687505D01*
X88934480Y-133718441D01*
X88967888Y-133737729D01*
X89064916Y-133763728D01*
X89064918Y-133763728D01*
X89173084Y-133763728D01*
X89173100Y-133763727D01*
X89841974Y-133763727D01*
X89841976Y-133763727D01*
X89939005Y-133737728D01*
X89939008Y-133737726D01*
X89939009Y-133737726D01*
X89996182Y-133704717D01*
X90025998Y-133687503D01*
X90097027Y-133616474D01*
X90351637Y-133361863D01*
X90413946Y-133327840D01*
X90484762Y-133332904D01*
X90541598Y-133375451D01*
X90545495Y-133380958D01*
X90583746Y-133438204D01*
X90667927Y-133494453D01*
X90667929Y-133494454D01*
X90742163Y-133509220D01*
X91829556Y-133509219D01*
X91897677Y-133529221D01*
X91918651Y-133546124D01*
X92443385Y-134070858D01*
X92514414Y-134141887D01*
X92514415Y-134141888D01*
X92514417Y-134141889D01*
X92601402Y-134192110D01*
X92601404Y-134192110D01*
X92601407Y-134192112D01*
X92698436Y-134218111D01*
X92698438Y-134218111D01*
X94176898Y-134218111D01*
X94245019Y-134238113D01*
X94291512Y-134291769D01*
X94301616Y-134362043D01*
X94272122Y-134426623D01*
X94265993Y-134433206D01*
X94234000Y-134465199D01*
X94234000Y-134470839D01*
X94213998Y-134538960D01*
X94212766Y-134540839D01*
X94197467Y-134563736D01*
X94197466Y-134563738D01*
X94182700Y-134637970D01*
X94182700Y-134988103D01*
X94182701Y-134988113D01*
X94197465Y-135062340D01*
X94253716Y-135146524D01*
X94337897Y-135202773D01*
X94337899Y-135202774D01*
X94412133Y-135217540D01*
X95400466Y-135217539D01*
X95468587Y-135237541D01*
X95489561Y-135254444D01*
X95981595Y-135746478D01*
X96015621Y-135808790D01*
X96018500Y-135835573D01*
X96018500Y-136208000D01*
X95998498Y-136276121D01*
X95944842Y-136322614D01*
X95892501Y-136334000D01*
X95796437Y-136334000D01*
X95796426Y-136334001D01*
X95722198Y-136348766D01*
X95638016Y-136405015D01*
X95629239Y-136413793D01*
X95627157Y-136411711D01*
X95587118Y-136445159D01*
X95552049Y-136454699D01*
X95545460Y-136455499D01*
X95379348Y-136496442D01*
X95379347Y-136496442D01*
X95284266Y-136546345D01*
X95214652Y-136560291D01*
X95148550Y-136534387D01*
X95120946Y-136504779D01*
X95078999Y-136442000D01*
X95011786Y-136397090D01*
X94952514Y-136385300D01*
X94773750Y-136385300D01*
X94773750Y-137192750D01*
X94753748Y-137260871D01*
X94700092Y-137307364D01*
X94647750Y-137318750D01*
X94582250Y-137318750D01*
X94514129Y-137298748D01*
X94467636Y-137245092D01*
X94456250Y-137192750D01*
X94456250Y-136385300D01*
X94277485Y-136385300D01*
X94218213Y-136397090D01*
X94151000Y-136442000D01*
X94106090Y-136509213D01*
X94094300Y-136568485D01*
X94094300Y-136871147D01*
X94074298Y-136939268D01*
X94020642Y-136985761D01*
X93950368Y-136995865D01*
X93885788Y-136966371D01*
X93884748Y-136965461D01*
X93875142Y-136956951D01*
X93875137Y-136956947D01*
X93723658Y-136877445D01*
X93723656Y-136877444D01*
X93723654Y-136877443D01*
X93723652Y-136877442D01*
X93723651Y-136877442D01*
X93557543Y-136836500D01*
X93557542Y-136836500D01*
X93386458Y-136836500D01*
X93386456Y-136836500D01*
X93220348Y-136877442D01*
X93220344Y-136877444D01*
X93073623Y-136954448D01*
X93004010Y-136968394D01*
X92937908Y-136942490D01*
X92896304Y-136884961D01*
X92895236Y-136881817D01*
X92885211Y-136850964D01*
X92885207Y-136850957D01*
X92808196Y-136717568D01*
X92475302Y-137050462D01*
X92474001Y-137045606D01*
X92421340Y-136954394D01*
X92346866Y-136879920D01*
X92255654Y-136827259D01*
X92250794Y-136825957D01*
X92582222Y-136494530D01*
X92582222Y-136494529D01*
X92530331Y-136456828D01*
X92366440Y-136383859D01*
X92190960Y-136346560D01*
X92011560Y-136346560D01*
X91836079Y-136383859D01*
X91672188Y-136456828D01*
X91672184Y-136456831D01*
X91620296Y-136494528D01*
X91620296Y-136494529D01*
X91951723Y-136825957D01*
X91946866Y-136827259D01*
X91855654Y-136879920D01*
X91781180Y-136954394D01*
X91728519Y-137045606D01*
X91727217Y-137050462D01*
X91394323Y-136717568D01*
X91317308Y-136850963D01*
X91317306Y-136850968D01*
X91261870Y-137021581D01*
X91251601Y-137119295D01*
X91224588Y-137184952D01*
X91203972Y-137199338D01*
X91218305Y-137207796D01*
X91250235Y-137271208D01*
X91251601Y-137280704D01*
X91261870Y-137378417D01*
X91317310Y-137549040D01*
X91394323Y-137682429D01*
X91727217Y-137349535D01*
X91728519Y-137354394D01*
X91781180Y-137445606D01*
X91855654Y-137520080D01*
X91946866Y-137572741D01*
X91951722Y-137574042D01*
X91620296Y-137905468D01*
X91621046Y-137915001D01*
X91648641Y-137950787D01*
X91654716Y-138021523D01*
X91621584Y-138084315D01*
X91559764Y-138119226D01*
X91531226Y-138122500D01*
X90757053Y-138122500D01*
X90688932Y-138102498D01*
X90642439Y-138048842D01*
X90632335Y-137978568D01*
X90661829Y-137913988D01*
X90682991Y-137894564D01*
X90708464Y-137876057D01*
X90835722Y-137734722D01*
X90930814Y-137570018D01*
X90989584Y-137389142D01*
X91000981Y-137280700D01*
X91027995Y-137215046D01*
X91048609Y-137200660D01*
X91034277Y-137192203D01*
X91002347Y-137128792D01*
X91000982Y-137119309D01*
X90989584Y-137010858D01*
X90946236Y-136877445D01*
X90930816Y-136829987D01*
X90930812Y-136829979D01*
X90922970Y-136816397D01*
X90835722Y-136665278D01*
X90708464Y-136523943D01*
X90676854Y-136500977D01*
X90554606Y-136412158D01*
X90553602Y-136411711D01*
X90380860Y-136334801D01*
X90194832Y-136295260D01*
X90004648Y-136295260D01*
X89818619Y-136334801D01*
X89644873Y-136412158D01*
X89491016Y-136523942D01*
X89363755Y-136665281D01*
X89268667Y-136829979D01*
X89268663Y-136829987D01*
X89220083Y-136979503D01*
X89180009Y-137038109D01*
X89114613Y-137065746D01*
X89044656Y-137053639D01*
X88992350Y-137005633D01*
X88980417Y-136979503D01*
X88931836Y-136829987D01*
X88931832Y-136829979D01*
X88923990Y-136816397D01*
X88836742Y-136665278D01*
X88709484Y-136523943D01*
X88677874Y-136500977D01*
X88555626Y-136412158D01*
X88554622Y-136411711D01*
X88381880Y-136334801D01*
X88195852Y-136295260D01*
X88005668Y-136295260D01*
X87819639Y-136334801D01*
X87645893Y-136412158D01*
X87492036Y-136523942D01*
X87364775Y-136665281D01*
X87269687Y-136829979D01*
X87269683Y-136829987D01*
X87219833Y-136983412D01*
X87179760Y-137042018D01*
X87114363Y-137069655D01*
X87044406Y-137057548D01*
X86992100Y-137009542D01*
X86980167Y-136983412D01*
X86930316Y-136829987D01*
X86930312Y-136829979D01*
X86922470Y-136816397D01*
X86835222Y-136665278D01*
X86707964Y-136523943D01*
X86676354Y-136500977D01*
X86554106Y-136412158D01*
X86553102Y-136411711D01*
X86380360Y-136334801D01*
X86194332Y-136295260D01*
X86004148Y-136295260D01*
X85818119Y-136334801D01*
X85644373Y-136412158D01*
X85490516Y-136523942D01*
X85363255Y-136665281D01*
X85268167Y-136829979D01*
X85268163Y-136829987D01*
X85219583Y-136979503D01*
X85179509Y-137038109D01*
X85114113Y-137065746D01*
X85044156Y-137053639D01*
X84991850Y-137005633D01*
X84979917Y-136979503D01*
X84931336Y-136829987D01*
X84931332Y-136829979D01*
X84923490Y-136816397D01*
X84836242Y-136665278D01*
X84708984Y-136523943D01*
X84677374Y-136500977D01*
X84555126Y-136412158D01*
X84554122Y-136411711D01*
X84381380Y-136334801D01*
X84195352Y-136295260D01*
X84005168Y-136295260D01*
X83819139Y-136334801D01*
X83645393Y-136412158D01*
X83491536Y-136523942D01*
X83364275Y-136665281D01*
X83269187Y-136829979D01*
X83269183Y-136829987D01*
X83219333Y-136983412D01*
X83179260Y-137042018D01*
X83113863Y-137069655D01*
X83043906Y-137057548D01*
X82991600Y-137009542D01*
X82979667Y-136983412D01*
X82929816Y-136829987D01*
X82929812Y-136829979D01*
X82921970Y-136816397D01*
X82834722Y-136665278D01*
X82707464Y-136523943D01*
X82675854Y-136500977D01*
X82553606Y-136412158D01*
X82552602Y-136411711D01*
X82379860Y-136334801D01*
X82193832Y-136295260D01*
X82003648Y-136295260D01*
X81817619Y-136334801D01*
X81643873Y-136412158D01*
X81490016Y-136523942D01*
X81362755Y-136665281D01*
X81267667Y-136829979D01*
X81267663Y-136829987D01*
X81208897Y-137010852D01*
X81208896Y-137010856D01*
X81208896Y-137010858D01*
X81189016Y-137200000D01*
X81207006Y-137371164D01*
X81208897Y-137389147D01*
X81267663Y-137570012D01*
X81267667Y-137570020D01*
X81362755Y-137734718D01*
X81362756Y-137734720D01*
X81362758Y-137734722D01*
X81489080Y-137875017D01*
X81490016Y-137876057D01*
X81643873Y-137987841D01*
X81643875Y-137987842D01*
X81643878Y-137987844D01*
X81817620Y-138065199D01*
X82003648Y-138104740D01*
X82193832Y-138104740D01*
X82379860Y-138065199D01*
X82553602Y-137987844D01*
X82707464Y-137876057D01*
X82834722Y-137734722D01*
X82929814Y-137570018D01*
X82931737Y-137564101D01*
X82979667Y-137416587D01*
X83019740Y-137357981D01*
X83085137Y-137330344D01*
X83155094Y-137342451D01*
X83207400Y-137390457D01*
X83219333Y-137416587D01*
X83269183Y-137570013D01*
X83269187Y-137570020D01*
X83364275Y-137734718D01*
X83364276Y-137734720D01*
X83364278Y-137734722D01*
X83490600Y-137875017D01*
X83491536Y-137876057D01*
X83645393Y-137987841D01*
X83645395Y-137987842D01*
X83645398Y-137987844D01*
X83819140Y-138065199D01*
X84005168Y-138104740D01*
X84195357Y-138104740D01*
X84351209Y-138071612D01*
X84421999Y-138077013D01*
X84466501Y-138105763D01*
X85094573Y-138733835D01*
X85094594Y-138733858D01*
X85152088Y-138791352D01*
X85186114Y-138853664D01*
X85181049Y-138924479D01*
X85138502Y-138981315D01*
X85106083Y-138998850D01*
X85079512Y-139008520D01*
X85036229Y-139016117D01*
X78101307Y-139005508D01*
X78033217Y-138985402D01*
X77986806Y-138931675D01*
X77975500Y-138879508D01*
X77975500Y-133628201D01*
X81458750Y-133628201D01*
X81459895Y-133629346D01*
X81493921Y-133691658D01*
X81496800Y-133718441D01*
X81496800Y-133932514D01*
X81508590Y-133991786D01*
X81553500Y-134058999D01*
X81620713Y-134103909D01*
X81679985Y-134115699D01*
X81679991Y-134115700D01*
X81891250Y-134115700D01*
X81891250Y-133158750D01*
X82208750Y-133158750D01*
X82208750Y-134115700D01*
X82420009Y-134115700D01*
X82420014Y-134115699D01*
X82479283Y-134103910D01*
X82484284Y-134101839D01*
X82554874Y-134094247D01*
X82557088Y-134094667D01*
X82599985Y-134103199D01*
X82599991Y-134103200D01*
X83211250Y-134103200D01*
X83211250Y-133058750D01*
X82646199Y-133058750D01*
X82635392Y-133069556D01*
X82626198Y-133100871D01*
X82572542Y-133147364D01*
X82520200Y-133158750D01*
X82208750Y-133158750D01*
X81891250Y-133158750D01*
X81891250Y-132908750D01*
X81458750Y-132908750D01*
X81458750Y-133628201D01*
X77975500Y-133628201D01*
X77975500Y-131695014D01*
X78646800Y-131695014D01*
X78658590Y-131754286D01*
X78703500Y-131821499D01*
X78770713Y-131866409D01*
X78829985Y-131878199D01*
X78829991Y-131878200D01*
X79500647Y-131878200D01*
X79568768Y-131898202D01*
X79615261Y-131951858D01*
X79625365Y-132022132D01*
X79595871Y-132086712D01*
X79589742Y-132093295D01*
X79512862Y-132170174D01*
X79512857Y-132170180D01*
X79416749Y-132314016D01*
X79350551Y-132473833D01*
X79350549Y-132473840D01*
X79331173Y-132571249D01*
X79331173Y-132571250D01*
X79807509Y-132571250D01*
X79793852Y-132594905D01*
X79770000Y-132683922D01*
X79770000Y-132776078D01*
X79793852Y-132865095D01*
X79807509Y-132888750D01*
X79331173Y-132888750D01*
X79350549Y-132986159D01*
X79350551Y-132986166D01*
X79416749Y-133145983D01*
X79512857Y-133289819D01*
X79512862Y-133289825D01*
X79635174Y-133412137D01*
X79635180Y-133412142D01*
X79779016Y-133508250D01*
X79938833Y-133574448D01*
X79938838Y-133574450D01*
X80108501Y-133608199D01*
X80108505Y-133608200D01*
X80170217Y-133608200D01*
X80198978Y-133616645D01*
X80211250Y-133610084D01*
X80211250Y-133080000D01*
X80528750Y-133080000D01*
X80528750Y-133628200D01*
X81141250Y-133628200D01*
X81141250Y-132717250D01*
X81161252Y-132649129D01*
X81214908Y-132602636D01*
X81267250Y-132591250D01*
X81891250Y-132591250D01*
X81891250Y-131871800D01*
X81671566Y-131871800D01*
X81603445Y-131851798D01*
X81556952Y-131798142D01*
X81546848Y-131727868D01*
X81547987Y-131721218D01*
X81553199Y-131695012D01*
X81553200Y-131695009D01*
X81553200Y-131118750D01*
X78646800Y-131118750D01*
X78646800Y-131695014D01*
X77975500Y-131695014D01*
X77975500Y-129775014D01*
X78646800Y-129775014D01*
X78658590Y-129834286D01*
X78703502Y-129901501D01*
X78712276Y-129910275D01*
X78709239Y-129913311D01*
X78739674Y-129949761D01*
X78748492Y-130020207D01*
X78717824Y-130084239D01*
X78711912Y-130089361D01*
X78712276Y-130089725D01*
X78703502Y-130098498D01*
X78658590Y-130165713D01*
X78646800Y-130224985D01*
X78646800Y-130801250D01*
X79941250Y-130801250D01*
X79941250Y-129198750D01*
X78646800Y-129198750D01*
X78646800Y-129775014D01*
X77975500Y-129775014D01*
X77975500Y-126391799D01*
X81458750Y-126391799D01*
X81458750Y-127111250D01*
X81891250Y-127111250D01*
X81891250Y-126891250D01*
X82208750Y-126891250D01*
X82520200Y-126891250D01*
X82588321Y-126911252D01*
X82634814Y-126964908D01*
X82638972Y-126984023D01*
X82646199Y-126991250D01*
X83191250Y-126991250D01*
X83191250Y-125946800D01*
X82579980Y-125946800D01*
X82550598Y-125952645D01*
X82491683Y-125947372D01*
X82491457Y-125948511D01*
X82480861Y-125946403D01*
X82479884Y-125946316D01*
X82479362Y-125946105D01*
X82420014Y-125934300D01*
X82208750Y-125934300D01*
X82208750Y-126891250D01*
X81891250Y-126891250D01*
X81891250Y-125934300D01*
X81679985Y-125934300D01*
X81620713Y-125946090D01*
X81553500Y-125991000D01*
X81508590Y-126058213D01*
X81496800Y-126117485D01*
X81496800Y-126301559D01*
X81476798Y-126369680D01*
X81459895Y-126390654D01*
X81458750Y-126391799D01*
X77975500Y-126391799D01*
X77975500Y-124999997D01*
X83190326Y-124999997D01*
X83190326Y-125000002D01*
X83210947Y-125169833D01*
X83210947Y-125169835D01*
X83210948Y-125169836D01*
X83271386Y-125329199D01*
X83271616Y-125329804D01*
X83368799Y-125470599D01*
X83368802Y-125470602D01*
X83496853Y-125584045D01*
X83496862Y-125584052D01*
X83547066Y-125610401D01*
X83648346Y-125663557D01*
X83777944Y-125695500D01*
X83789957Y-125698461D01*
X83851311Y-125734185D01*
X83883613Y-125797408D01*
X83876605Y-125868058D01*
X83832514Y-125923704D01*
X83765337Y-125946678D01*
X83759803Y-125946800D01*
X83508750Y-125946800D01*
X83508750Y-126991250D01*
X84303200Y-126991250D01*
X84303200Y-126129990D01*
X84303199Y-126129985D01*
X84291409Y-126070713D01*
X84246499Y-126003500D01*
X84179286Y-125958590D01*
X84120014Y-125946800D01*
X84040197Y-125946800D01*
X83972076Y-125926798D01*
X83925583Y-125873142D01*
X83915479Y-125802868D01*
X83944973Y-125738288D01*
X84004699Y-125699904D01*
X84010043Y-125698461D01*
X84022056Y-125695500D01*
X84151654Y-125663557D01*
X84303141Y-125584050D01*
X84431199Y-125470601D01*
X84528385Y-125329802D01*
X84589052Y-125169836D01*
X84604562Y-125042101D01*
X84609674Y-125000002D01*
X84609674Y-124999997D01*
X84589052Y-124830166D01*
X84589052Y-124830164D01*
X84528385Y-124670198D01*
X84496774Y-124624401D01*
X84431200Y-124529400D01*
X84431197Y-124529397D01*
X84303146Y-124415954D01*
X84303137Y-124415947D01*
X84151658Y-124336445D01*
X84151656Y-124336444D01*
X84151654Y-124336443D01*
X84151652Y-124336442D01*
X84151651Y-124336442D01*
X83985543Y-124295500D01*
X83985542Y-124295500D01*
X83814458Y-124295500D01*
X83814456Y-124295500D01*
X83648348Y-124336442D01*
X83648341Y-124336445D01*
X83496862Y-124415947D01*
X83496853Y-124415954D01*
X83368802Y-124529397D01*
X83368799Y-124529400D01*
X83271616Y-124670195D01*
X83210947Y-124830166D01*
X83190326Y-124999997D01*
X77975500Y-124999997D01*
X77975500Y-110191000D01*
X77995502Y-110122879D01*
X78049158Y-110076386D01*
X78101500Y-110065000D01*
X79010118Y-110065000D01*
X79078239Y-110085002D01*
G37*
%TD.AperFunction*%
%TA.AperFunction,Conductor*%
G36*
X92744787Y-137619020D02*
G01*
X92778812Y-137681333D01*
X92780773Y-137692925D01*
X92782948Y-137710837D01*
X92782949Y-137710840D01*
X92816351Y-137798914D01*
X92821805Y-137869701D01*
X92788122Y-137932199D01*
X92725998Y-137966566D01*
X92655155Y-137961890D01*
X92609444Y-137932689D01*
X92250797Y-137574042D01*
X92255654Y-137572741D01*
X92346866Y-137520080D01*
X92421340Y-137445606D01*
X92474001Y-137354394D01*
X92475302Y-137349535D01*
X92744787Y-137619020D01*
G37*
%TD.AperFunction*%
%TA.AperFunction,Conductor*%
G36*
X102512327Y-131022253D02*
G01*
X102569163Y-131064800D01*
X102593376Y-131125122D01*
X102610946Y-131269833D01*
X102671616Y-131429804D01*
X102768799Y-131570599D01*
X102768802Y-131570602D01*
X102879728Y-131668874D01*
X102896859Y-131684050D01*
X102938313Y-131705807D01*
X102948471Y-131711138D01*
X102999493Y-131760506D01*
X103015725Y-131829622D01*
X103004741Y-131869474D01*
X103006318Y-131870073D01*
X103003616Y-131877195D01*
X103003615Y-131877198D01*
X102960694Y-131990371D01*
X102942947Y-132037166D01*
X102922326Y-132206997D01*
X102922326Y-132207002D01*
X102942947Y-132376833D01*
X102942947Y-132376835D01*
X102942948Y-132376836D01*
X102977366Y-132467590D01*
X103003616Y-132536804D01*
X103041199Y-132591252D01*
X103100801Y-132677601D01*
X103204913Y-132769836D01*
X103217692Y-132781157D01*
X103255417Y-132841301D01*
X103255844Y-132842857D01*
X103276498Y-132919938D01*
X103282193Y-132929802D01*
X103311726Y-132980954D01*
X103311726Y-132980956D01*
X103326721Y-133006928D01*
X103326726Y-133006934D01*
X103864073Y-133544280D01*
X103864094Y-133544303D01*
X103939501Y-133619710D01*
X103939506Y-133619714D01*
X103939508Y-133619716D01*
X103939509Y-133619717D01*
X103939511Y-133619718D01*
X104026496Y-133669939D01*
X104026498Y-133669939D01*
X104026501Y-133669941D01*
X104123530Y-133695940D01*
X104223980Y-133695940D01*
X105557820Y-133695940D01*
X105625941Y-133715942D01*
X105672434Y-133769598D01*
X105683820Y-133821939D01*
X105683820Y-133989883D01*
X105683821Y-133989893D01*
X105698585Y-134064119D01*
X105698585Y-134064120D01*
X105698586Y-134064121D01*
X105713885Y-134087018D01*
X105735100Y-134154769D01*
X105735120Y-134157019D01*
X105735120Y-134165200D01*
X105741900Y-134165200D01*
X105810021Y-134185202D01*
X105811903Y-134186436D01*
X105845920Y-134209166D01*
X105891447Y-134263643D01*
X105900294Y-134334086D01*
X105869653Y-134398130D01*
X105845920Y-134418694D01*
X105808102Y-134443964D01*
X105740350Y-134465180D01*
X105738099Y-134465200D01*
X105735120Y-134465200D01*
X105735120Y-134470839D01*
X105715118Y-134538960D01*
X105713886Y-134540839D01*
X105698587Y-134563736D01*
X105698584Y-134563742D01*
X105690658Y-134603587D01*
X105657750Y-134666496D01*
X105596054Y-134701626D01*
X105525159Y-134697825D01*
X105504081Y-134688123D01*
X105430256Y-134645500D01*
X105430251Y-134645498D01*
X105402156Y-134637970D01*
X105333225Y-134619500D01*
X105333223Y-134619500D01*
X104055719Y-134619500D01*
X104055703Y-134619499D01*
X104047985Y-134619499D01*
X103947535Y-134619499D01*
X103899021Y-134632498D01*
X103850505Y-134645498D01*
X103763516Y-134695721D01*
X103763506Y-134695729D01*
X103067725Y-135391511D01*
X103005413Y-135425537D01*
X102934598Y-135420472D01*
X102877762Y-135377925D01*
X102852951Y-135311405D01*
X102853549Y-135287228D01*
X102854987Y-135275385D01*
X102854987Y-135275380D01*
X102840310Y-135154507D01*
X102834365Y-135105547D01*
X102773698Y-134945581D01*
X102751487Y-134913403D01*
X102676513Y-134804783D01*
X102676510Y-134804780D01*
X102548459Y-134691337D01*
X102548450Y-134691330D01*
X102396971Y-134611828D01*
X102396969Y-134611827D01*
X102396967Y-134611826D01*
X102396965Y-134611825D01*
X102396964Y-134611825D01*
X102230856Y-134570883D01*
X102230855Y-134570883D01*
X102059771Y-134570883D01*
X102059769Y-134570883D01*
X101893661Y-134611825D01*
X101893660Y-134611825D01*
X101742172Y-134691332D01*
X101732035Y-134700313D01*
X101667781Y-134730511D01*
X101597400Y-134721177D01*
X101544789Y-134677574D01*
X101535199Y-134663680D01*
X101535197Y-134663678D01*
X101407146Y-134550235D01*
X101407137Y-134550228D01*
X101255658Y-134470726D01*
X101255656Y-134470725D01*
X101255654Y-134470724D01*
X101255652Y-134470723D01*
X101255651Y-134470723D01*
X101089543Y-134429781D01*
X101089542Y-134429781D01*
X100918458Y-134429781D01*
X100918456Y-134429781D01*
X100752348Y-134470723D01*
X100752341Y-134470726D01*
X100600862Y-134550228D01*
X100600857Y-134550232D01*
X100472802Y-134663678D01*
X100472801Y-134663679D01*
X100424831Y-134733175D01*
X100374321Y-134774106D01*
X100374636Y-134774652D01*
X100371200Y-134776635D01*
X100369672Y-134777874D01*
X100369358Y-134778004D01*
X100367489Y-134778778D01*
X100367485Y-134778779D01*
X100367485Y-134778780D01*
X100356320Y-134785226D01*
X100280493Y-134829004D01*
X100280490Y-134829006D01*
X100247200Y-134862297D01*
X100209463Y-134900034D01*
X100209461Y-134900036D01*
X100165265Y-134944232D01*
X100151677Y-134957820D01*
X100089364Y-134991845D01*
X100018548Y-134986779D01*
X99961713Y-134944232D01*
X99944770Y-134913403D01*
X99939700Y-134900034D01*
X99928385Y-134870198D01*
X99922931Y-134862297D01*
X99831200Y-134729400D01*
X99831197Y-134729397D01*
X99703146Y-134615954D01*
X99703137Y-134615947D01*
X99551658Y-134536445D01*
X99551656Y-134536444D01*
X99551654Y-134536443D01*
X99551652Y-134536442D01*
X99551651Y-134536442D01*
X99385543Y-134495500D01*
X99385542Y-134495500D01*
X99214458Y-134495500D01*
X99214456Y-134495500D01*
X99048348Y-134536442D01*
X99048341Y-134536445D01*
X98896862Y-134615947D01*
X98896853Y-134615954D01*
X98768802Y-134729397D01*
X98768799Y-134729400D01*
X98671616Y-134870195D01*
X98610947Y-135030166D01*
X98590326Y-135199997D01*
X98590326Y-135200002D01*
X98610947Y-135369835D01*
X98639537Y-135445219D01*
X98671615Y-135529802D01*
X98675813Y-135535884D01*
X98684135Y-135547940D01*
X98706372Y-135615365D01*
X98706440Y-135619517D01*
X98706440Y-135783820D01*
X98686438Y-135851941D01*
X98632782Y-135898434D01*
X98580441Y-135909820D01*
X98412496Y-135909820D01*
X98412484Y-135909822D01*
X98361950Y-135919873D01*
X98312790Y-135919873D01*
X98262249Y-135909820D01*
X97912116Y-135909820D01*
X97912104Y-135909822D01*
X97861570Y-135919873D01*
X97812410Y-135919873D01*
X97761869Y-135909820D01*
X97411736Y-135909820D01*
X97411731Y-135909821D01*
X97362459Y-135919621D01*
X97313301Y-135919620D01*
X97264030Y-135909820D01*
X97264027Y-135909820D01*
X97263857Y-135909820D01*
X96907704Y-135909821D01*
X96907704Y-135906941D01*
X96850047Y-135895980D01*
X96798540Y-135847117D01*
X96781500Y-135783841D01*
X96781500Y-135575136D01*
X96774213Y-135547940D01*
X96755501Y-135478106D01*
X96755499Y-135478103D01*
X96755499Y-135478101D01*
X96705278Y-135391116D01*
X96705274Y-135391111D01*
X96683998Y-135369835D01*
X96634247Y-135320084D01*
X96028433Y-134714270D01*
X95994407Y-134651958D01*
X95992306Y-134638611D01*
X95987799Y-134615954D01*
X95977414Y-134563739D01*
X95977413Y-134563737D01*
X95977413Y-134563736D01*
X95962115Y-134540841D01*
X95940900Y-134473088D01*
X95940880Y-134470840D01*
X95940880Y-134465200D01*
X95937901Y-134465200D01*
X95869780Y-134445198D01*
X95867897Y-134443964D01*
X95830078Y-134418693D01*
X95784551Y-134364215D01*
X95775705Y-134293771D01*
X95806347Y-134229728D01*
X95830082Y-134209162D01*
X95836977Y-134204554D01*
X95836981Y-134204554D01*
X95864101Y-134186432D01*
X95931854Y-134165220D01*
X95934100Y-134165200D01*
X95940880Y-134165200D01*
X95940880Y-134157018D01*
X95960882Y-134088897D01*
X95962072Y-134087080D01*
X95977414Y-134064121D01*
X95992180Y-133989887D01*
X95992179Y-133639754D01*
X95988192Y-133619710D01*
X95982126Y-133589210D01*
X95982126Y-133540052D01*
X95992180Y-133489507D01*
X95992179Y-133139374D01*
X95992178Y-133139371D01*
X95992178Y-133139366D01*
X95982620Y-133091315D01*
X95977414Y-133065139D01*
X95977413Y-133065137D01*
X95977413Y-133065136D01*
X95962115Y-133042241D01*
X95940900Y-132974488D01*
X95940880Y-132972240D01*
X95940880Y-132964060D01*
X95934100Y-132964060D01*
X95865979Y-132944058D01*
X95864095Y-132942823D01*
X95828177Y-132918822D01*
X95782651Y-132864344D01*
X95773805Y-132793901D01*
X95804448Y-132729858D01*
X95828181Y-132709293D01*
X95836979Y-132703414D01*
X95836981Y-132703414D01*
X95864099Y-132685293D01*
X95931853Y-132664080D01*
X95934100Y-132664060D01*
X95940880Y-132664060D01*
X95940880Y-132655878D01*
X95960882Y-132587757D01*
X95962072Y-132585940D01*
X95977414Y-132562981D01*
X95992180Y-132488747D01*
X95992179Y-132138614D01*
X95988129Y-132118253D01*
X95982126Y-132088070D01*
X95982126Y-132038912D01*
X95992180Y-131988367D01*
X95992179Y-131820419D01*
X96012181Y-131752300D01*
X96065836Y-131705807D01*
X96118179Y-131694420D01*
X101628195Y-131694420D01*
X101628197Y-131694420D01*
X101725226Y-131668421D01*
X101725229Y-131668419D01*
X101725230Y-131668419D01*
X101778922Y-131637420D01*
X101812219Y-131618196D01*
X101883248Y-131547167D01*
X102379202Y-131051212D01*
X102441512Y-131017189D01*
X102512327Y-131022253D01*
G37*
%TD.AperFunction*%
%TA.AperFunction,Conductor*%
G36*
X109950654Y-132450687D02*
G01*
X109997147Y-132504343D01*
X110007251Y-132574617D01*
X109977757Y-132639197D01*
X109971628Y-132645780D01*
X109799734Y-132817673D01*
X109799731Y-132817677D01*
X109766156Y-132867926D01*
X109750386Y-132947210D01*
X109766156Y-133026493D01*
X109799730Y-133076741D01*
X110365394Y-133642404D01*
X110399419Y-133704717D01*
X110394355Y-133775532D01*
X110351808Y-133832368D01*
X110285288Y-133857179D01*
X110276299Y-133857500D01*
X108550078Y-133857500D01*
X108464510Y-133880427D01*
X108453045Y-133883500D01*
X108406401Y-133910430D01*
X108337405Y-133927167D01*
X108270314Y-133903946D01*
X108226427Y-133848138D01*
X108219679Y-133777463D01*
X108252213Y-133714359D01*
X108254265Y-133712257D01*
X109498933Y-132467590D01*
X109561245Y-132433564D01*
X109588028Y-132430685D01*
X109882533Y-132430685D01*
X109950654Y-132450687D01*
G37*
%TD.AperFunction*%
%TA.AperFunction,Conductor*%
G36*
X90354219Y-131362369D02*
G01*
X90376136Y-131375023D01*
X90470643Y-131400346D01*
X90531264Y-131437297D01*
X90562285Y-131501157D01*
X90564030Y-131522052D01*
X90564030Y-131526250D01*
X92333779Y-131526250D01*
X92401900Y-131546252D01*
X92410583Y-131553250D01*
X93032750Y-131553250D01*
X93100871Y-131573252D01*
X93147364Y-131626908D01*
X93158750Y-131679250D01*
X93158750Y-131744750D01*
X93138748Y-131812871D01*
X93085092Y-131859364D01*
X93032750Y-131870750D01*
X92261491Y-131870750D01*
X92193370Y-131850748D01*
X92184687Y-131843750D01*
X90564030Y-131843750D01*
X90564030Y-131881252D01*
X90544028Y-131949373D01*
X90501030Y-131990371D01*
X90421232Y-132036443D01*
X90414203Y-132040501D01*
X90408223Y-132043953D01*
X90406886Y-132044725D01*
X90197785Y-132253825D01*
X90135473Y-132287850D01*
X90064657Y-132282784D01*
X90007821Y-132240238D01*
X90004994Y-132236306D01*
X90004644Y-132235799D01*
X89984645Y-132206825D01*
X89952557Y-132178397D01*
X89914832Y-132118253D01*
X89910111Y-132084085D01*
X89910111Y-131586524D01*
X89930113Y-131518403D01*
X89947016Y-131497429D01*
X90062050Y-131382395D01*
X90124362Y-131348369D01*
X90151145Y-131345490D01*
X90291222Y-131345490D01*
X90354219Y-131362369D01*
G37*
%TD.AperFunction*%
%TA.AperFunction,Conductor*%
G36*
X113477373Y-123629602D02*
G01*
X113523866Y-123683258D01*
X113533970Y-123753532D01*
X113518371Y-123798600D01*
X113468927Y-123884239D01*
X113468923Y-123884247D01*
X113410157Y-124065112D01*
X113410156Y-124065116D01*
X113410156Y-124065118D01*
X113390276Y-124254260D01*
X113409978Y-124441710D01*
X113410157Y-124443407D01*
X113468923Y-124624272D01*
X113468927Y-124624280D01*
X113564015Y-124788978D01*
X113564016Y-124788980D01*
X113564018Y-124788982D01*
X113601100Y-124830166D01*
X113691276Y-124930317D01*
X113845133Y-125042101D01*
X113845135Y-125042102D01*
X113845138Y-125042104D01*
X114018880Y-125119459D01*
X114171781Y-125151958D01*
X114194209Y-125156726D01*
X114256682Y-125190454D01*
X114291004Y-125252604D01*
X114286276Y-125323443D01*
X114244000Y-125380481D01*
X114194209Y-125403220D01*
X114034819Y-125437099D01*
X113870928Y-125510068D01*
X113870924Y-125510071D01*
X113819036Y-125547768D01*
X113819036Y-125547769D01*
X114150463Y-125879197D01*
X114145606Y-125880499D01*
X114054394Y-125933160D01*
X113979920Y-126007634D01*
X113927259Y-126098846D01*
X113925957Y-126103702D01*
X113593063Y-125770808D01*
X113516048Y-125904203D01*
X113516046Y-125904208D01*
X113460610Y-126074821D01*
X113441859Y-126253240D01*
X113460610Y-126431657D01*
X113516050Y-126602280D01*
X113593063Y-126735669D01*
X113925957Y-126402775D01*
X113927259Y-126407634D01*
X113979920Y-126498846D01*
X114054394Y-126573320D01*
X114145606Y-126625981D01*
X114150462Y-126627282D01*
X113819036Y-126958708D01*
X113870932Y-126996413D01*
X114034820Y-127069381D01*
X114200183Y-127104529D01*
X114262657Y-127138257D01*
X114296978Y-127200406D01*
X114292251Y-127271245D01*
X114249976Y-127328283D01*
X114200184Y-127351022D01*
X114018884Y-127389559D01*
X113845133Y-127466918D01*
X113691276Y-127578702D01*
X113564015Y-127720041D01*
X113468927Y-127884739D01*
X113468923Y-127884747D01*
X113410157Y-128065612D01*
X113410156Y-128065616D01*
X113410156Y-128065618D01*
X113390276Y-128254760D01*
X113408703Y-128430080D01*
X113410157Y-128443907D01*
X113468923Y-128624772D01*
X113468927Y-128624780D01*
X113564015Y-128789478D01*
X113564016Y-128789480D01*
X113564018Y-128789482D01*
X113671077Y-128908384D01*
X113691276Y-128930817D01*
X113845133Y-129042601D01*
X113845135Y-129042602D01*
X113845138Y-129042604D01*
X114018880Y-129119959D01*
X114064065Y-129129563D01*
X114070838Y-129131003D01*
X114133311Y-129164732D01*
X114167633Y-129226881D01*
X114162905Y-129297720D01*
X114120629Y-129354758D01*
X114070838Y-129377497D01*
X114018879Y-129388541D01*
X113845133Y-129465898D01*
X113691276Y-129577682D01*
X113564015Y-129719021D01*
X113468927Y-129883719D01*
X113468923Y-129883727D01*
X113410157Y-130064592D01*
X113410156Y-130064596D01*
X113410156Y-130064598D01*
X113401501Y-130146948D01*
X113390276Y-130253740D01*
X113397363Y-130321170D01*
X113384591Y-130391008D01*
X113336089Y-130442855D01*
X113267256Y-130460249D01*
X113199946Y-130437667D01*
X113182958Y-130423435D01*
X112622904Y-129863381D01*
X112588878Y-129801069D01*
X112585999Y-129774286D01*
X112585999Y-129451436D01*
X112585998Y-129451427D01*
X112571234Y-129377199D01*
X112552392Y-129349000D01*
X112514984Y-129293016D01*
X112514983Y-129293015D01*
X112430802Y-129236766D01*
X112356569Y-129222000D01*
X112356567Y-129222000D01*
X111398713Y-129222000D01*
X111330592Y-129201998D01*
X111309618Y-129185095D01*
X111162405Y-129037882D01*
X111128379Y-128975570D01*
X111125500Y-128948787D01*
X111125500Y-128916700D01*
X111145502Y-128848579D01*
X111199158Y-128802086D01*
X111251500Y-128790700D01*
X111601250Y-128790700D01*
X111918750Y-128790700D01*
X112351509Y-128790700D01*
X112351514Y-128790699D01*
X112410786Y-128778909D01*
X112477999Y-128733999D01*
X112522909Y-128666786D01*
X112534699Y-128607514D01*
X112534700Y-128607509D01*
X112534700Y-128428750D01*
X111918750Y-128428750D01*
X111918750Y-128790700D01*
X111601250Y-128790700D01*
X111601250Y-128111250D01*
X111918750Y-128111250D01*
X112534700Y-128111250D01*
X112534700Y-127932490D01*
X112534699Y-127932485D01*
X112522909Y-127873213D01*
X112495373Y-127832003D01*
X112474157Y-127764251D01*
X112492939Y-127695784D01*
X112495373Y-127691997D01*
X112522909Y-127650786D01*
X112534699Y-127591514D01*
X112534700Y-127591509D01*
X112534700Y-127412750D01*
X111918750Y-127412750D01*
X111918750Y-128111250D01*
X111601250Y-128111250D01*
X111601250Y-127095250D01*
X111918750Y-127095250D01*
X112534700Y-127095250D01*
X112534700Y-126916490D01*
X112534699Y-126916485D01*
X112522909Y-126857213D01*
X112477999Y-126790000D01*
X112410786Y-126745090D01*
X112351514Y-126733300D01*
X111918750Y-126733300D01*
X111918750Y-127095250D01*
X111601250Y-127095250D01*
X111601250Y-126733300D01*
X111251500Y-126733300D01*
X111183379Y-126713298D01*
X111136886Y-126659642D01*
X111125500Y-126607300D01*
X111125500Y-126427999D01*
X111145502Y-126359878D01*
X111199158Y-126313385D01*
X111251495Y-126301999D01*
X112356566Y-126301999D01*
X112356569Y-126301998D01*
X112356573Y-126301998D01*
X112420926Y-126289198D01*
X112430801Y-126287234D01*
X112514984Y-126230984D01*
X112571234Y-126146801D01*
X112586000Y-126072567D01*
X112585999Y-125387434D01*
X112585998Y-125387431D01*
X112585998Y-125387426D01*
X112571234Y-125313199D01*
X112538916Y-125264833D01*
X112514984Y-125229016D01*
X112514983Y-125229015D01*
X112430802Y-125172766D01*
X112356569Y-125158000D01*
X111226100Y-125158000D01*
X111157979Y-125137998D01*
X111111486Y-125084342D01*
X111100100Y-125032000D01*
X111100100Y-124786692D01*
X111120102Y-124718571D01*
X111137005Y-124697597D01*
X112188097Y-123646505D01*
X112250409Y-123612479D01*
X112277192Y-123609600D01*
X113409252Y-123609600D01*
X113477373Y-123629602D01*
G37*
%TD.AperFunction*%
%TA.AperFunction,Conductor*%
G36*
X92226814Y-126778403D02*
G01*
X92265198Y-126838129D01*
X92267881Y-126849047D01*
X92279765Y-126908800D01*
X92336016Y-126992984D01*
X92420197Y-127049233D01*
X92420199Y-127049234D01*
X92494433Y-127064000D01*
X93687566Y-127063999D01*
X93687569Y-127063998D01*
X93687573Y-127063998D01*
X93753173Y-127050950D01*
X93761801Y-127049234D01*
X93845984Y-126992984D01*
X93888405Y-126929496D01*
X93942881Y-126883970D01*
X93993169Y-126873500D01*
X94090133Y-126873500D01*
X94158254Y-126893502D01*
X94204747Y-126947158D01*
X94214851Y-127017432D01*
X94200962Y-127053673D01*
X94202215Y-127054192D01*
X94197466Y-127065656D01*
X94182700Y-127139890D01*
X94182700Y-127490023D01*
X94182702Y-127490035D01*
X94192500Y-127539298D01*
X94192500Y-127588456D01*
X94182701Y-127637722D01*
X94182700Y-127637733D01*
X94182700Y-127987863D01*
X94182702Y-127987875D01*
X94192753Y-128038409D01*
X94192753Y-128087568D01*
X94182700Y-128138105D01*
X94182700Y-128361959D01*
X94162698Y-128430080D01*
X94109042Y-128476573D01*
X94104094Y-128478354D01*
X94104182Y-128478565D01*
X94096552Y-128481725D01*
X94047765Y-128509892D01*
X93978770Y-128526629D01*
X93911678Y-128503408D01*
X93867792Y-128447600D01*
X93861044Y-128376925D01*
X93861189Y-128376187D01*
X93865699Y-128353514D01*
X93865700Y-128353509D01*
X93865700Y-128174750D01*
X93249750Y-128174750D01*
X93249750Y-128536700D01*
X93419072Y-128536700D01*
X93487193Y-128556702D01*
X93533686Y-128610358D01*
X93543790Y-128680632D01*
X93514296Y-128745212D01*
X93477627Y-128774267D01*
X93456260Y-128785480D01*
X93456251Y-128785487D01*
X93328200Y-128898930D01*
X93328195Y-128898935D01*
X93312354Y-128921885D01*
X93257195Y-128966583D01*
X93186626Y-128974363D01*
X93150107Y-128961873D01*
X93101652Y-128936442D01*
X92935543Y-128895500D01*
X92935542Y-128895500D01*
X92764458Y-128895500D01*
X92764456Y-128895500D01*
X92598344Y-128936443D01*
X92591952Y-128938868D01*
X92521166Y-128944323D01*
X92458667Y-128910643D01*
X92424298Y-128848519D01*
X92421269Y-128821057D01*
X92421269Y-128820216D01*
X92421268Y-128820207D01*
X92406989Y-128748418D01*
X92406504Y-128745979D01*
X92397632Y-128732701D01*
X92376417Y-128664951D01*
X92395199Y-128596484D01*
X92448015Y-128549040D01*
X92502397Y-128536700D01*
X92932250Y-128536700D01*
X92932250Y-128174750D01*
X92316300Y-128174750D01*
X92316300Y-128353514D01*
X92328090Y-128412787D01*
X92330464Y-128418519D01*
X92338049Y-128489109D01*
X92306266Y-128552594D01*
X92245206Y-128588818D01*
X92198129Y-128590077D01*
X92198001Y-128591387D01*
X92191837Y-128590780D01*
X92191836Y-128590780D01*
X92106764Y-128590780D01*
X92038643Y-128570778D01*
X91992150Y-128517122D01*
X91982046Y-128446848D01*
X91988954Y-128420095D01*
X91988976Y-128420035D01*
X91989052Y-128419836D01*
X92003778Y-128298557D01*
X92009674Y-128250002D01*
X92009674Y-128249997D01*
X91995030Y-128129399D01*
X91989052Y-128080164D01*
X91928385Y-127920198D01*
X91903434Y-127884050D01*
X91831200Y-127779400D01*
X91831197Y-127779397D01*
X91717291Y-127678485D01*
X92316300Y-127678485D01*
X92316300Y-127857250D01*
X92932250Y-127857250D01*
X93249750Y-127857250D01*
X93865700Y-127857250D01*
X93865700Y-127678490D01*
X93865699Y-127678485D01*
X93853909Y-127619213D01*
X93808999Y-127552000D01*
X93741786Y-127507090D01*
X93682514Y-127495300D01*
X93249750Y-127495300D01*
X93249750Y-127857250D01*
X92932250Y-127857250D01*
X92932250Y-127495300D01*
X92499485Y-127495300D01*
X92440213Y-127507090D01*
X92373000Y-127552000D01*
X92328090Y-127619213D01*
X92316300Y-127678485D01*
X91717291Y-127678485D01*
X91703146Y-127665954D01*
X91703143Y-127665952D01*
X91703141Y-127665950D01*
X91674249Y-127650786D01*
X91638631Y-127632092D01*
X91587609Y-127582723D01*
X91571377Y-127513607D01*
X91595089Y-127446687D01*
X91608084Y-127431437D01*
X91942077Y-127097446D01*
X91992303Y-127010452D01*
X92018302Y-126913424D01*
X92018302Y-126873627D01*
X92038304Y-126805506D01*
X92091960Y-126759013D01*
X92162234Y-126748909D01*
X92226814Y-126778403D01*
G37*
%TD.AperFunction*%
%TA.AperFunction,Conductor*%
G36*
X107247152Y-123367487D02*
G01*
X107253735Y-123373616D01*
X108509989Y-124629870D01*
X108544015Y-124692182D01*
X108538950Y-124762997D01*
X108509989Y-124808060D01*
X108489750Y-124828299D01*
X108489750Y-125869700D01*
X108922509Y-125869700D01*
X108922514Y-125869699D01*
X108981786Y-125857909D01*
X109048999Y-125812999D01*
X109093909Y-125745786D01*
X109105699Y-125686514D01*
X109105700Y-125686509D01*
X109105700Y-125529771D01*
X109125702Y-125461650D01*
X109179358Y-125415157D01*
X109249632Y-125405053D01*
X109314212Y-125434547D01*
X109320795Y-125440676D01*
X109453615Y-125573496D01*
X109487641Y-125635808D01*
X109490520Y-125662591D01*
X109490520Y-126686304D01*
X109470518Y-126754425D01*
X109416862Y-126800918D01*
X109346588Y-126811022D01*
X109334366Y-126808643D01*
X109252845Y-126788550D01*
X109191491Y-126752827D01*
X109159190Y-126689604D01*
X109156999Y-126666211D01*
X109156999Y-126530436D01*
X109156998Y-126530427D01*
X109142234Y-126456199D01*
X109109783Y-126407634D01*
X109085984Y-126372016D01*
X109074724Y-126364492D01*
X109001802Y-126315766D01*
X108927567Y-126301000D01*
X107734436Y-126301000D01*
X107734426Y-126301001D01*
X107660199Y-126315765D01*
X107576015Y-126372016D01*
X107519766Y-126456197D01*
X107505000Y-126530430D01*
X107505000Y-126805785D01*
X107484998Y-126873906D01*
X107431342Y-126920399D01*
X107361068Y-126930503D01*
X107350291Y-126927546D01*
X107350272Y-126927647D01*
X107263869Y-126910460D01*
X107263867Y-126910460D01*
X107164640Y-126910460D01*
X107096519Y-126890458D01*
X107050026Y-126836802D01*
X107038640Y-126784460D01*
X107038640Y-125686514D01*
X107556300Y-125686514D01*
X107568090Y-125745786D01*
X107613000Y-125812999D01*
X107680213Y-125857909D01*
X107739485Y-125869699D01*
X107739491Y-125869700D01*
X108172250Y-125869700D01*
X108172250Y-125507750D01*
X107556300Y-125507750D01*
X107556300Y-125686514D01*
X107038640Y-125686514D01*
X107038640Y-125011485D01*
X107556300Y-125011485D01*
X107556300Y-125190250D01*
X108172250Y-125190250D01*
X108172250Y-124828300D01*
X107739485Y-124828300D01*
X107680213Y-124840090D01*
X107613000Y-124885000D01*
X107568090Y-124952213D01*
X107556300Y-125011485D01*
X107038640Y-125011485D01*
X107038640Y-123462711D01*
X107058642Y-123394590D01*
X107112298Y-123348097D01*
X107182572Y-123337993D01*
X107247152Y-123367487D01*
G37*
%TD.AperFunction*%
%TA.AperFunction,Conductor*%
G36*
X93835794Y-120294893D02*
G01*
X93892630Y-120337440D01*
X93917441Y-120403960D01*
X93916843Y-120428135D01*
X93905326Y-120522994D01*
X93905326Y-120523002D01*
X93925947Y-120692833D01*
X93925947Y-120692835D01*
X93925948Y-120692836D01*
X93986585Y-120852724D01*
X93986616Y-120852804D01*
X94083799Y-120993599D01*
X94083802Y-120993602D01*
X94211853Y-121107045D01*
X94211862Y-121107052D01*
X94370094Y-121190099D01*
X94368547Y-121193045D01*
X94413189Y-121226748D01*
X94437728Y-121293369D01*
X94422353Y-121362681D01*
X94401109Y-121390939D01*
X94392750Y-121399298D01*
X94392750Y-122015250D01*
X94754700Y-122015250D01*
X94754700Y-121582490D01*
X94754699Y-121582485D01*
X94742909Y-121523213D01*
X94697999Y-121456001D01*
X94686418Y-121448263D01*
X94640891Y-121393785D01*
X94632044Y-121323342D01*
X94662685Y-121259298D01*
X94723087Y-121221987D01*
X94726242Y-121221165D01*
X94866654Y-121186557D01*
X95018141Y-121107050D01*
X95065348Y-121065227D01*
X95129598Y-121035028D01*
X95199979Y-121044359D01*
X95254143Y-121090259D01*
X95274892Y-121158156D01*
X95274900Y-121159541D01*
X95274900Y-121354029D01*
X95254898Y-121422150D01*
X95253664Y-121424032D01*
X95200766Y-121503197D01*
X95186000Y-121577430D01*
X95186000Y-122770563D01*
X95186001Y-122770573D01*
X95200765Y-122844799D01*
X95200765Y-122844800D01*
X95200766Y-122844801D01*
X95214929Y-122865998D01*
X95236144Y-122933749D01*
X95217361Y-123002216D01*
X95214930Y-123006000D01*
X95200766Y-123027197D01*
X95186000Y-123101430D01*
X95186000Y-124294563D01*
X95186001Y-124294573D01*
X95200765Y-124368800D01*
X95257016Y-124452984D01*
X95341197Y-124509233D01*
X95341199Y-124509234D01*
X95415433Y-124524000D01*
X95685804Y-124523999D01*
X95753923Y-124544001D01*
X95800416Y-124597656D01*
X95810521Y-124667930D01*
X95781028Y-124732511D01*
X95774899Y-124739094D01*
X95377599Y-125136396D01*
X95315287Y-125170421D01*
X95288503Y-125173301D01*
X92648516Y-125173301D01*
X92648500Y-125173300D01*
X92640782Y-125173300D01*
X92540332Y-125173300D01*
X92491818Y-125186299D01*
X92443302Y-125199299D01*
X92356313Y-125249522D01*
X92356307Y-125249527D01*
X91611351Y-125994482D01*
X91549039Y-126028507D01*
X91478223Y-126023442D01*
X91438706Y-125999700D01*
X91335141Y-125907950D01*
X91335140Y-125907949D01*
X91335137Y-125907947D01*
X91183658Y-125828445D01*
X91183656Y-125828444D01*
X91183654Y-125828443D01*
X91183652Y-125828442D01*
X91183651Y-125828442D01*
X91017543Y-125787500D01*
X91017542Y-125787500D01*
X90846458Y-125787500D01*
X90846456Y-125787500D01*
X90680348Y-125828442D01*
X90680341Y-125828445D01*
X90528862Y-125907947D01*
X90528853Y-125907954D01*
X90400802Y-126021397D01*
X90400799Y-126021400D01*
X90303616Y-126162195D01*
X90251763Y-126298919D01*
X90208904Y-126355520D01*
X90142248Y-126379965D01*
X90072958Y-126364492D01*
X90044856Y-126343333D01*
X89770904Y-126069381D01*
X89736878Y-126007069D01*
X89733999Y-125980286D01*
X89733999Y-125403436D01*
X89733998Y-125403427D01*
X89719234Y-125329199D01*
X89676225Y-125264833D01*
X89662984Y-125245016D01*
X89639039Y-125229016D01*
X89578802Y-125188766D01*
X89504569Y-125174000D01*
X88899500Y-125174000D01*
X88831379Y-125153998D01*
X88784886Y-125100342D01*
X88773500Y-125048000D01*
X88773500Y-124917776D01*
X88752684Y-124840090D01*
X88747501Y-124820746D01*
X88747499Y-124820743D01*
X88747499Y-124820741D01*
X88697278Y-124733756D01*
X88697274Y-124733751D01*
X88682094Y-124718571D01*
X88626247Y-124662724D01*
X88568323Y-124604800D01*
X88534297Y-124542488D01*
X88539362Y-124471673D01*
X88573861Y-124421397D01*
X88631199Y-124370601D01*
X88728385Y-124229802D01*
X88789052Y-124069836D01*
X88809674Y-123900000D01*
X88807761Y-123884247D01*
X88789784Y-123736196D01*
X88789052Y-123730164D01*
X88739686Y-123599997D01*
X90490326Y-123599997D01*
X90490326Y-123600002D01*
X90510947Y-123769833D01*
X90510947Y-123769835D01*
X90510948Y-123769836D01*
X90570316Y-123926378D01*
X90571616Y-123929804D01*
X90603327Y-123975745D01*
X90668801Y-124070601D01*
X90748102Y-124140855D01*
X90763569Y-124154558D01*
X90801294Y-124214702D01*
X90800514Y-124285695D01*
X90797827Y-124293549D01*
X90750947Y-124417162D01*
X90750947Y-124417163D01*
X90730326Y-124586997D01*
X90730326Y-124587002D01*
X90750947Y-124756833D01*
X90750947Y-124756835D01*
X90750948Y-124756836D01*
X90778758Y-124830166D01*
X90811616Y-124916804D01*
X90908799Y-125057599D01*
X90908802Y-125057602D01*
X91036853Y-125171045D01*
X91036862Y-125171052D01*
X91117298Y-125213268D01*
X91188346Y-125250557D01*
X91354458Y-125291500D01*
X91354459Y-125291500D01*
X91525541Y-125291500D01*
X91525542Y-125291500D01*
X91691654Y-125250557D01*
X91843141Y-125171050D01*
X91971199Y-125057601D01*
X92068385Y-124916802D01*
X92129052Y-124756836D01*
X92148708Y-124594954D01*
X92149674Y-124587002D01*
X92149674Y-124586997D01*
X92129052Y-124417164D01*
X92129026Y-124417094D01*
X92129021Y-124417037D01*
X92127229Y-124409765D01*
X92128438Y-124409466D01*
X92123571Y-124346308D01*
X92157252Y-124283809D01*
X92219376Y-124249441D01*
X92280891Y-124253499D01*
X92281028Y-124252813D01*
X92286261Y-124253853D01*
X92290218Y-124254115D01*
X92292966Y-124255187D01*
X92293197Y-124255233D01*
X92293199Y-124255234D01*
X92367433Y-124270000D01*
X93553707Y-124269999D01*
X93621828Y-124290001D01*
X93668321Y-124343657D01*
X93675293Y-124365245D01*
X93676765Y-124368800D01*
X93733016Y-124452984D01*
X93817197Y-124509233D01*
X93817199Y-124509234D01*
X93891433Y-124524000D01*
X94576566Y-124523999D01*
X94576569Y-124523998D01*
X94576573Y-124523998D01*
X94642173Y-124510950D01*
X94650801Y-124509234D01*
X94734984Y-124452984D01*
X94791234Y-124368801D01*
X94806000Y-124294567D01*
X94805999Y-123101434D01*
X94805998Y-123101430D01*
X94805998Y-123101426D01*
X94795783Y-123050072D01*
X94791234Y-123027199D01*
X94791233Y-123027198D01*
X94791234Y-123027198D01*
X94746222Y-122959835D01*
X94725006Y-122892082D01*
X94740100Y-122837055D01*
X94738161Y-122836252D01*
X94742909Y-122824787D01*
X94754699Y-122765514D01*
X94754700Y-122765509D01*
X94754700Y-122332750D01*
X93122750Y-122332750D01*
X93122750Y-122694700D01*
X93555509Y-122694700D01*
X93555512Y-122694699D01*
X93570165Y-122691785D01*
X93640879Y-122698113D01*
X93696946Y-122741667D01*
X93718326Y-122790782D01*
X93725090Y-122824787D01*
X93729839Y-122836252D01*
X93727255Y-122837322D01*
X93742993Y-122887578D01*
X93724212Y-122956046D01*
X93721778Y-122959833D01*
X93676765Y-123027198D01*
X93672017Y-123038663D01*
X93670294Y-123037949D01*
X93644373Y-123087496D01*
X93582676Y-123122625D01*
X93553707Y-123126000D01*
X92367436Y-123126000D01*
X92367426Y-123126001D01*
X92293199Y-123140765D01*
X92209015Y-123197016D01*
X92152766Y-123281197D01*
X92138000Y-123355430D01*
X92138000Y-123402481D01*
X92117998Y-123470602D01*
X92064342Y-123517095D01*
X91994068Y-123527199D01*
X91929488Y-123497705D01*
X91891104Y-123437979D01*
X91889661Y-123432635D01*
X91889052Y-123430166D01*
X91889052Y-123430164D01*
X91828385Y-123270198D01*
X91779204Y-123198947D01*
X91731200Y-123129400D01*
X91731197Y-123129397D01*
X91603146Y-123015954D01*
X91603137Y-123015947D01*
X91451658Y-122936445D01*
X91451656Y-122936444D01*
X91451654Y-122936443D01*
X91451652Y-122936442D01*
X91451651Y-122936442D01*
X91285543Y-122895500D01*
X91285542Y-122895500D01*
X91114458Y-122895500D01*
X91114456Y-122895500D01*
X90948348Y-122936442D01*
X90948341Y-122936445D01*
X90796862Y-123015947D01*
X90796853Y-123015954D01*
X90668802Y-123129397D01*
X90668799Y-123129400D01*
X90571616Y-123270195D01*
X90510947Y-123430166D01*
X90490326Y-123599997D01*
X88739686Y-123599997D01*
X88728385Y-123570198D01*
X88685453Y-123508000D01*
X88631200Y-123429400D01*
X88631197Y-123429397D01*
X88503146Y-123315954D01*
X88503137Y-123315947D01*
X88351658Y-123236445D01*
X88351656Y-123236444D01*
X88351654Y-123236443D01*
X88351652Y-123236442D01*
X88351651Y-123236442D01*
X88185543Y-123195500D01*
X88185542Y-123195500D01*
X88049213Y-123195500D01*
X87981092Y-123175498D01*
X87960118Y-123158595D01*
X87370904Y-122569381D01*
X87339305Y-122511514D01*
X92189300Y-122511514D01*
X92201090Y-122570786D01*
X92246000Y-122637999D01*
X92313213Y-122682909D01*
X92372485Y-122694699D01*
X92372491Y-122694700D01*
X92805250Y-122694700D01*
X92805250Y-122332750D01*
X92189300Y-122332750D01*
X92189300Y-122511514D01*
X87339305Y-122511514D01*
X87336878Y-122507069D01*
X87333999Y-122480286D01*
X87333999Y-121903436D01*
X87333998Y-121903427D01*
X87319234Y-121829199D01*
X87262984Y-121745016D01*
X87222584Y-121718021D01*
X87178802Y-121688766D01*
X87104569Y-121674000D01*
X87104567Y-121674000D01*
X86665713Y-121674000D01*
X86597592Y-121653998D01*
X86576618Y-121637095D01*
X86428637Y-121489114D01*
X86394611Y-121426802D01*
X86399676Y-121355987D01*
X86442223Y-121299151D01*
X86493147Y-121276441D01*
X86619458Y-121251317D01*
X86669126Y-121230743D01*
X86696624Y-121223858D01*
X86696495Y-121223207D01*
X86754141Y-121211740D01*
X86776801Y-121207234D01*
X86860984Y-121150984D01*
X86871129Y-121135800D01*
X86905888Y-121101041D01*
X86927023Y-121086920D01*
X87091560Y-120922383D01*
X87091560Y-120922382D01*
X87095937Y-120918006D01*
X87097518Y-120919587D01*
X87147853Y-120885267D01*
X87218823Y-120883334D01*
X87279572Y-120920077D01*
X87310813Y-120983831D01*
X87311973Y-120992431D01*
X87326765Y-121066800D01*
X87383016Y-121150984D01*
X87467197Y-121207233D01*
X87467199Y-121207234D01*
X87541433Y-121222000D01*
X88226566Y-121221999D01*
X88226569Y-121221998D01*
X88226573Y-121221998D01*
X88247486Y-121217838D01*
X88300801Y-121207234D01*
X88321997Y-121193070D01*
X88389749Y-121171855D01*
X88458216Y-121190637D01*
X88461959Y-121193042D01*
X88462490Y-121193396D01*
X88508023Y-121247867D01*
X88518500Y-121298169D01*
X88518500Y-121589223D01*
X88518499Y-121589223D01*
X88544500Y-121686258D01*
X88578424Y-121745015D01*
X88591189Y-121767124D01*
X88594724Y-121773247D01*
X88848724Y-122027247D01*
X88919753Y-122098276D01*
X88919754Y-122098277D01*
X88919756Y-122098278D01*
X89006741Y-122148499D01*
X89006743Y-122148499D01*
X89006746Y-122148501D01*
X89103775Y-122174500D01*
X89103777Y-122174500D01*
X91744223Y-122174500D01*
X91744225Y-122174500D01*
X91841254Y-122148501D01*
X91841257Y-122148499D01*
X91841258Y-122148499D01*
X91891688Y-122119383D01*
X91928247Y-122098276D01*
X91999276Y-122027247D01*
X92011189Y-122015333D01*
X92073498Y-121981308D01*
X92144314Y-121986369D01*
X92189253Y-122015250D01*
X92805250Y-122015250D01*
X92805250Y-121653300D01*
X93122750Y-121653300D01*
X93122750Y-122015250D01*
X94075250Y-122015250D01*
X94075250Y-121399300D01*
X93896485Y-121399300D01*
X93837213Y-121411090D01*
X93770000Y-121456000D01*
X93725090Y-121523213D01*
X93718326Y-121557218D01*
X93685417Y-121620127D01*
X93623722Y-121655258D01*
X93570171Y-121656215D01*
X93555516Y-121653300D01*
X93122750Y-121653300D01*
X92805250Y-121653300D01*
X92677413Y-121653300D01*
X92609292Y-121633298D01*
X92562799Y-121579642D01*
X92552695Y-121509368D01*
X92582189Y-121444788D01*
X92588306Y-121438216D01*
X93702671Y-120323851D01*
X93764979Y-120289829D01*
X93835794Y-120294893D01*
G37*
%TD.AperFunction*%
%TA.AperFunction,Conductor*%
G36*
X113350440Y-110085002D02*
G01*
X113396933Y-110138658D01*
X113407629Y-110177828D01*
X113410391Y-110204111D01*
X113429145Y-110261827D01*
X113469147Y-110384940D01*
X113564214Y-110549600D01*
X113691438Y-110690897D01*
X113845259Y-110802655D01*
X114018955Y-110879989D01*
X114018958Y-110879989D01*
X114018959Y-110879990D01*
X114077969Y-110892534D01*
X114140443Y-110926262D01*
X114174764Y-110988412D01*
X114170036Y-111059251D01*
X114127760Y-111116288D01*
X114077969Y-111139026D01*
X114018959Y-111151569D01*
X113845258Y-111228905D01*
X113691438Y-111340662D01*
X113564215Y-111481958D01*
X113564215Y-111481959D01*
X113469148Y-111646617D01*
X113410391Y-111827448D01*
X113390518Y-112016540D01*
X113410391Y-112205631D01*
X113449080Y-112324701D01*
X113469147Y-112386460D01*
X113564214Y-112551120D01*
X113691438Y-112692417D01*
X113845259Y-112804175D01*
X114018955Y-112881509D01*
X114163390Y-112912209D01*
X114195363Y-112919006D01*
X114257837Y-112952735D01*
X114292158Y-113014884D01*
X114287430Y-113085723D01*
X114245154Y-113142761D01*
X114195363Y-113165500D01*
X114034893Y-113199609D01*
X113871048Y-113272557D01*
X113871042Y-113272561D01*
X113819208Y-113310220D01*
X113819208Y-113310222D01*
X114150464Y-113641477D01*
X114145606Y-113642779D01*
X114054394Y-113695440D01*
X113979920Y-113769914D01*
X113927259Y-113861126D01*
X113925957Y-113865982D01*
X113593238Y-113533263D01*
X113516268Y-113666581D01*
X113516266Y-113666586D01*
X113460846Y-113837152D01*
X113442100Y-114015520D01*
X113460846Y-114193887D01*
X113516266Y-114364453D01*
X113516268Y-114364458D01*
X113593238Y-114497774D01*
X113925957Y-114165055D01*
X113927259Y-114169914D01*
X113979920Y-114261126D01*
X114054394Y-114335600D01*
X114145606Y-114388261D01*
X114150461Y-114389562D01*
X113819208Y-114720815D01*
X113819208Y-114720816D01*
X113871052Y-114758483D01*
X114034894Y-114831431D01*
X114201337Y-114866809D01*
X114263811Y-114900537D01*
X114298133Y-114962687D01*
X114293405Y-115033526D01*
X114251130Y-115090563D01*
X114201339Y-115113302D01*
X114018958Y-115152069D01*
X113845258Y-115229405D01*
X113691438Y-115341162D01*
X113564215Y-115482458D01*
X113564215Y-115482459D01*
X113469148Y-115647117D01*
X113410391Y-115827948D01*
X113391128Y-116011230D01*
X113364115Y-116076886D01*
X113354914Y-116087154D01*
X112551784Y-116890286D01*
X112551783Y-116890286D01*
X112445288Y-116996780D01*
X112443161Y-116999553D01*
X112440770Y-117001298D01*
X112439446Y-117002623D01*
X112439239Y-117002416D01*
X112385822Y-117041419D01*
X112314951Y-117045640D01*
X112253049Y-117010874D01*
X112219769Y-116948161D01*
X112217200Y-116922847D01*
X112217200Y-116565990D01*
X112217199Y-116565985D01*
X112205409Y-116506713D01*
X112160499Y-116439500D01*
X112093286Y-116394590D01*
X112034014Y-116382800D01*
X111156750Y-116382800D01*
X111156750Y-118313200D01*
X112034009Y-118313200D01*
X112034014Y-118313199D01*
X112093286Y-118301409D01*
X112134997Y-118273539D01*
X112202749Y-118252323D01*
X112271217Y-118271105D01*
X112318660Y-118323922D01*
X112331000Y-118378303D01*
X112331000Y-120931045D01*
X112347762Y-120993601D01*
X112366954Y-121065229D01*
X112369981Y-121076524D01*
X112428426Y-121177753D01*
X112445286Y-121206956D01*
X112445289Y-121206959D01*
X113357366Y-122119037D01*
X113391391Y-122181349D01*
X113393580Y-122221301D01*
X113390276Y-122252738D01*
X113390276Y-122252740D01*
X113410029Y-122440674D01*
X113410157Y-122441887D01*
X113468923Y-122622752D01*
X113468927Y-122622760D01*
X113518371Y-122708400D01*
X113535109Y-122777396D01*
X113511888Y-122844487D01*
X113456081Y-122888374D01*
X113409252Y-122897400D01*
X112132115Y-122897400D01*
X112132099Y-122897399D01*
X112124381Y-122897399D01*
X112030619Y-122897399D01*
X112030618Y-122897399D01*
X111961869Y-122915819D01*
X111961870Y-122915820D01*
X111940055Y-122921665D01*
X111940047Y-122921668D01*
X111903072Y-122943015D01*
X111903073Y-122943016D01*
X111858850Y-122968548D01*
X111858842Y-122968554D01*
X110851653Y-123975745D01*
X110525349Y-124302049D01*
X110493898Y-124333500D01*
X110459050Y-124368347D01*
X110459046Y-124368352D01*
X110437500Y-124405671D01*
X110386117Y-124454663D01*
X110316403Y-124468098D01*
X110250492Y-124441710D01*
X110239287Y-124431764D01*
X108768617Y-122961094D01*
X108734591Y-122898782D01*
X108739656Y-122827967D01*
X108782203Y-122771131D01*
X108848723Y-122746320D01*
X108857712Y-122745999D01*
X109181564Y-122745999D01*
X109181566Y-122745999D01*
X109181569Y-122745998D01*
X109181572Y-122745998D01*
X109240456Y-122734286D01*
X109255801Y-122731234D01*
X109339984Y-122674984D01*
X109396234Y-122590801D01*
X109411000Y-122516567D01*
X109411000Y-122511514D01*
X109842300Y-122511514D01*
X109854090Y-122570786D01*
X109899000Y-122637999D01*
X109966213Y-122682909D01*
X110025485Y-122694699D01*
X110025491Y-122694700D01*
X110204250Y-122694700D01*
X110521750Y-122694700D01*
X110700509Y-122694700D01*
X110700514Y-122694699D01*
X110759786Y-122682909D01*
X110826999Y-122637999D01*
X110871909Y-122570786D01*
X110883699Y-122511514D01*
X110883700Y-122511509D01*
X110883700Y-122078750D01*
X110521750Y-122078750D01*
X110521750Y-122694700D01*
X110204250Y-122694700D01*
X110204250Y-122078750D01*
X109842300Y-122078750D01*
X109842300Y-122511514D01*
X109411000Y-122511514D01*
X109410999Y-121328485D01*
X109842300Y-121328485D01*
X109842300Y-121761250D01*
X110204250Y-121761250D01*
X110521750Y-121761250D01*
X110883700Y-121761250D01*
X110883700Y-121328490D01*
X110883699Y-121328485D01*
X110871909Y-121269213D01*
X110826999Y-121202000D01*
X110759786Y-121157090D01*
X110700514Y-121145300D01*
X110521750Y-121145300D01*
X110521750Y-121761250D01*
X110204250Y-121761250D01*
X110204250Y-121145300D01*
X110025485Y-121145300D01*
X109966213Y-121157090D01*
X109899000Y-121202000D01*
X109854090Y-121269213D01*
X109842300Y-121328485D01*
X109410999Y-121328485D01*
X109410999Y-121323434D01*
X109410998Y-121323431D01*
X109410998Y-121323426D01*
X109396234Y-121249199D01*
X109381735Y-121227500D01*
X109339984Y-121165016D01*
X109339983Y-121165015D01*
X109255802Y-121108766D01*
X109181569Y-121094000D01*
X109181567Y-121094000D01*
X108665780Y-121094000D01*
X108597659Y-121073998D01*
X108551166Y-121020342D01*
X108539780Y-120968000D01*
X108539780Y-120718974D01*
X108546202Y-120686691D01*
X108545453Y-120686542D01*
X108556401Y-120631503D01*
X108589309Y-120568594D01*
X108651004Y-120533462D01*
X108721898Y-120537262D01*
X108779484Y-120578788D01*
X108805479Y-120644855D01*
X108805980Y-120656085D01*
X108805980Y-120778270D01*
X108825989Y-120778270D01*
X108825994Y-120778269D01*
X108885266Y-120766479D01*
X108952479Y-120721569D01*
X108997389Y-120654356D01*
X109009179Y-120595084D01*
X109009180Y-120595079D01*
X109009180Y-119974360D01*
X108805979Y-119974360D01*
X108777734Y-120002605D01*
X108715421Y-120036630D01*
X108644606Y-120031564D01*
X108587770Y-119989017D01*
X108562960Y-119922497D01*
X108562639Y-119913524D01*
X108562639Y-119735488D01*
X108582641Y-119667369D01*
X108636297Y-119620876D01*
X108706571Y-119610772D01*
X108771151Y-119640266D01*
X108777734Y-119646395D01*
X108805979Y-119674640D01*
X109009180Y-119674640D01*
X109009180Y-119053920D01*
X109009179Y-119053915D01*
X108997389Y-118994643D01*
X108952479Y-118927430D01*
X108885266Y-118882520D01*
X108825994Y-118870730D01*
X108805980Y-118870730D01*
X108805980Y-118992919D01*
X108785978Y-119061040D01*
X108732322Y-119107533D01*
X108662048Y-119117637D01*
X108597468Y-119088143D01*
X108559084Y-119028417D01*
X108556401Y-119017499D01*
X108547874Y-118974629D01*
X108527495Y-118944130D01*
X108506280Y-118876378D01*
X108506260Y-118874128D01*
X108506260Y-118870730D01*
X108500340Y-118870730D01*
X108432219Y-118850728D01*
X108430337Y-118849495D01*
X108407440Y-118834195D01*
X108333208Y-118819430D01*
X107983356Y-118819430D01*
X107983344Y-118819432D01*
X107932669Y-118829511D01*
X107883508Y-118829511D01*
X107832829Y-118819430D01*
X107755081Y-118819430D01*
X107686960Y-118799428D01*
X107640467Y-118745772D01*
X107630363Y-118675498D01*
X107651383Y-118621857D01*
X107689385Y-118566802D01*
X107750052Y-118406836D01*
X107766533Y-118271105D01*
X107770674Y-118237002D01*
X107770674Y-118236997D01*
X107757684Y-118130014D01*
X109778800Y-118130014D01*
X109790590Y-118189286D01*
X109835500Y-118256499D01*
X109902713Y-118301409D01*
X109961985Y-118313199D01*
X109961991Y-118313200D01*
X110839250Y-118313200D01*
X110839250Y-117506750D01*
X109778800Y-117506750D01*
X109778800Y-118130014D01*
X107757684Y-118130014D01*
X107756691Y-118121840D01*
X107750052Y-118067164D01*
X107689385Y-117907198D01*
X107635428Y-117829027D01*
X107592200Y-117766400D01*
X107592197Y-117766397D01*
X107464146Y-117652954D01*
X107464137Y-117652947D01*
X107312658Y-117573445D01*
X107312656Y-117573444D01*
X107312654Y-117573443D01*
X107312652Y-117573442D01*
X107312651Y-117573442D01*
X107146543Y-117532500D01*
X107146542Y-117532500D01*
X106975458Y-117532500D01*
X106975456Y-117532500D01*
X106809348Y-117573442D01*
X106809341Y-117573445D01*
X106657862Y-117652947D01*
X106657853Y-117652954D01*
X106529803Y-117766396D01*
X106529801Y-117766399D01*
X106505863Y-117801077D01*
X106450706Y-117845776D01*
X106402169Y-117855500D01*
X106297269Y-117855500D01*
X106297253Y-117855499D01*
X106289535Y-117855499D01*
X106189085Y-117855499D01*
X106140571Y-117868498D01*
X106092055Y-117881498D01*
X106071444Y-117893399D01*
X106005066Y-117931721D01*
X106005061Y-117931725D01*
X105985879Y-117950908D01*
X105934034Y-118002753D01*
X105934032Y-118002755D01*
X105770530Y-118166256D01*
X105708218Y-118200281D01*
X105637402Y-118195216D01*
X105580567Y-118152669D01*
X105563623Y-118121840D01*
X105558943Y-118109500D01*
X105530385Y-118034198D01*
X105433199Y-117893399D01*
X105433197Y-117893397D01*
X105305146Y-117779954D01*
X105305137Y-117779947D01*
X105153658Y-117700445D01*
X105153656Y-117700444D01*
X105153654Y-117700443D01*
X105153652Y-117700442D01*
X105153651Y-117700442D01*
X104987543Y-117659500D01*
X104987542Y-117659500D01*
X104816458Y-117659500D01*
X104816456Y-117659500D01*
X104650348Y-117700442D01*
X104650341Y-117700445D01*
X104498859Y-117779949D01*
X104477551Y-117798827D01*
X104413297Y-117829027D01*
X104342917Y-117819695D01*
X104310445Y-117798827D01*
X104289136Y-117779949D01*
X104137654Y-117700445D01*
X104137652Y-117700444D01*
X104137650Y-117700443D01*
X104137648Y-117700442D01*
X104137647Y-117700442D01*
X103971539Y-117659500D01*
X103971538Y-117659500D01*
X103800454Y-117659500D01*
X103800452Y-117659500D01*
X103634344Y-117700442D01*
X103634337Y-117700445D01*
X103482858Y-117779947D01*
X103482849Y-117779954D01*
X103354793Y-117893401D01*
X103353708Y-117894627D01*
X103352690Y-117895265D01*
X103349092Y-117898453D01*
X103348561Y-117897854D01*
X103293559Y-117932345D01*
X103222567Y-117931556D01*
X103175853Y-117905374D01*
X103099200Y-117837465D01*
X103099190Y-117837458D01*
X102947711Y-117757956D01*
X102947709Y-117757955D01*
X102947707Y-117757954D01*
X102947705Y-117757953D01*
X102947704Y-117757953D01*
X102781596Y-117717011D01*
X102781595Y-117717011D01*
X102610511Y-117717011D01*
X102610509Y-117717011D01*
X102444401Y-117757953D01*
X102444394Y-117757956D01*
X102292915Y-117837458D01*
X102292906Y-117837465D01*
X102164855Y-117950908D01*
X102164852Y-117950911D01*
X102067669Y-118091706D01*
X102007000Y-118251677D01*
X101986379Y-118421508D01*
X101986379Y-118421513D01*
X102007000Y-118591344D01*
X102007000Y-118591346D01*
X102007001Y-118591347D01*
X102032434Y-118658409D01*
X102032837Y-118659470D01*
X102038291Y-118730257D01*
X102004609Y-118792755D01*
X101942485Y-118827122D01*
X101939600Y-118827731D01*
X101931916Y-118829259D01*
X101882761Y-118829258D01*
X101833350Y-118819430D01*
X101483496Y-118819430D01*
X101483484Y-118819432D01*
X101432809Y-118829511D01*
X101383648Y-118829511D01*
X101332969Y-118819430D01*
X101332967Y-118819430D01*
X101272577Y-118819430D01*
X101204456Y-118799428D01*
X101157963Y-118745772D01*
X101147859Y-118675498D01*
X101154765Y-118648749D01*
X101156588Y-118643943D01*
X101194067Y-118545119D01*
X101211184Y-118404148D01*
X101214689Y-118375285D01*
X101214689Y-118375280D01*
X101198345Y-118240682D01*
X101194067Y-118205447D01*
X101133400Y-118045481D01*
X101095514Y-117990593D01*
X101036215Y-117904683D01*
X101036212Y-117904680D01*
X100908161Y-117791237D01*
X100908152Y-117791230D01*
X100756673Y-117711728D01*
X100756671Y-117711727D01*
X100756669Y-117711726D01*
X100756667Y-117711725D01*
X100756666Y-117711725D01*
X100590558Y-117670783D01*
X100590557Y-117670783D01*
X100419473Y-117670783D01*
X100419471Y-117670783D01*
X100253363Y-117711725D01*
X100253356Y-117711728D01*
X100101877Y-117791230D01*
X100101868Y-117791237D01*
X99973817Y-117904680D01*
X99973814Y-117904683D01*
X99876631Y-118045478D01*
X99815962Y-118205449D01*
X99795341Y-118375280D01*
X99795341Y-118375285D01*
X99815962Y-118545116D01*
X99815962Y-118545118D01*
X99815963Y-118545119D01*
X99874721Y-118700051D01*
X99880175Y-118770836D01*
X99846493Y-118833334D01*
X99841260Y-118836228D01*
X99806760Y-118870729D01*
X99806760Y-118877928D01*
X99786758Y-118946049D01*
X99785524Y-118947932D01*
X99761663Y-118983641D01*
X99707185Y-119029168D01*
X99636742Y-119038014D01*
X99572698Y-119007372D01*
X99552133Y-118983638D01*
X99546114Y-118974630D01*
X99546114Y-118974629D01*
X99528273Y-118947929D01*
X99507060Y-118880177D01*
X99507040Y-118877929D01*
X99507040Y-118870730D01*
X99498580Y-118870730D01*
X99430459Y-118850728D01*
X99428579Y-118849495D01*
X99405684Y-118834197D01*
X99405681Y-118834196D01*
X99331448Y-118819430D01*
X98981596Y-118819430D01*
X98981586Y-118819431D01*
X98907359Y-118834196D01*
X98907358Y-118834196D01*
X98884460Y-118849496D01*
X98816707Y-118870710D01*
X98814460Y-118870730D01*
X98806000Y-118870730D01*
X98806000Y-118877928D01*
X98785998Y-118946049D01*
X98784763Y-118947932D01*
X98762172Y-118981740D01*
X98707694Y-119027267D01*
X98637251Y-119036113D01*
X98573208Y-119005470D01*
X98552644Y-118981738D01*
X98527515Y-118944130D01*
X98506300Y-118876377D01*
X98506280Y-118874128D01*
X98506280Y-118870730D01*
X98500360Y-118870730D01*
X98432239Y-118850728D01*
X98430357Y-118849495D01*
X98407460Y-118834195D01*
X98333229Y-118819430D01*
X98333227Y-118819430D01*
X98165420Y-118819430D01*
X98097299Y-118799428D01*
X98050806Y-118745772D01*
X98039420Y-118693430D01*
X98039420Y-118435696D01*
X98038296Y-118431500D01*
X98013421Y-118338666D01*
X98013419Y-118338663D01*
X98013419Y-118338661D01*
X97963198Y-118251676D01*
X97963194Y-118251671D01*
X97948520Y-118236997D01*
X97892167Y-118180644D01*
X97456247Y-117744724D01*
X97456245Y-117744723D01*
X97456243Y-117744721D01*
X97379548Y-117700442D01*
X97379548Y-117700441D01*
X97379544Y-117700440D01*
X97369259Y-117694501D01*
X97369252Y-117694498D01*
X97324221Y-117682432D01*
X97272225Y-117668500D01*
X97272223Y-117668500D01*
X97108831Y-117668500D01*
X97040710Y-117648498D01*
X97005136Y-117614078D01*
X96981199Y-117579399D01*
X96981196Y-117579396D01*
X96853146Y-117465954D01*
X96853137Y-117465947D01*
X96701658Y-117386445D01*
X96701656Y-117386444D01*
X96701654Y-117386443D01*
X96701652Y-117386442D01*
X96701651Y-117386442D01*
X96535543Y-117345500D01*
X96535542Y-117345500D01*
X96364458Y-117345500D01*
X96364456Y-117345500D01*
X96198348Y-117386442D01*
X96198341Y-117386445D01*
X96046862Y-117465947D01*
X96046853Y-117465954D01*
X95918802Y-117579397D01*
X95918799Y-117579400D01*
X95821616Y-117720195D01*
X95760947Y-117880166D01*
X95746556Y-117998688D01*
X95718489Y-118063901D01*
X95659621Y-118103587D01*
X95621475Y-118109500D01*
X94945775Y-118109500D01*
X94899722Y-118121840D01*
X94848741Y-118135500D01*
X94770556Y-118180640D01*
X94770557Y-118180641D01*
X94770552Y-118180644D01*
X94761753Y-118185724D01*
X94761751Y-118185725D01*
X94761745Y-118185730D01*
X91572882Y-121374595D01*
X91510570Y-121408621D01*
X91483787Y-121411500D01*
X90830229Y-121411500D01*
X90762108Y-121391498D01*
X90715615Y-121337842D01*
X90705511Y-121267568D01*
X90735005Y-121202988D01*
X90794731Y-121164604D01*
X90805648Y-121161921D01*
X90820786Y-121158909D01*
X90887999Y-121113999D01*
X90932909Y-121046786D01*
X90944699Y-120987514D01*
X90944700Y-120987509D01*
X90944700Y-120554750D01*
X89903300Y-120554750D01*
X89903300Y-120987514D01*
X89915090Y-121046786D01*
X89960000Y-121113999D01*
X90027213Y-121158909D01*
X90042352Y-121161921D01*
X90105262Y-121194828D01*
X90140394Y-121256523D01*
X90136594Y-121327418D01*
X90095069Y-121385004D01*
X90029002Y-121410998D01*
X90017771Y-121411500D01*
X89426461Y-121411500D01*
X89358340Y-121391498D01*
X89311847Y-121337842D01*
X89301743Y-121267568D01*
X89331237Y-121202988D01*
X89356459Y-121180735D01*
X89360925Y-121177751D01*
X89400984Y-121150984D01*
X89457234Y-121066801D01*
X89472000Y-120992567D01*
X89471999Y-119804485D01*
X89903300Y-119804485D01*
X89903300Y-120237250D01*
X90265250Y-120237250D01*
X90582750Y-120237250D01*
X90944700Y-120237250D01*
X90944700Y-119804490D01*
X90944699Y-119804485D01*
X90932909Y-119745213D01*
X90887999Y-119678000D01*
X90820786Y-119633090D01*
X90761514Y-119621300D01*
X90582750Y-119621300D01*
X90582750Y-120237250D01*
X90265250Y-120237250D01*
X90265250Y-119621300D01*
X90086485Y-119621300D01*
X90027213Y-119633090D01*
X89960000Y-119678000D01*
X89915090Y-119745213D01*
X89903300Y-119804485D01*
X89471999Y-119804485D01*
X89471999Y-119799434D01*
X89471998Y-119799431D01*
X89471998Y-119799426D01*
X89457234Y-119725199D01*
X89400983Y-119641015D01*
X89315684Y-119584018D01*
X89270157Y-119529540D01*
X89261310Y-119459097D01*
X89291952Y-119395054D01*
X89302134Y-119384941D01*
X89303137Y-119384051D01*
X89303141Y-119384050D01*
X89431199Y-119270601D01*
X89528385Y-119129802D01*
X89551355Y-119069234D01*
X89594212Y-119012635D01*
X89660868Y-118988191D01*
X89730158Y-119003663D01*
X89739169Y-119009153D01*
X89801457Y-119050773D01*
X89801459Y-119050774D01*
X89875693Y-119065540D01*
X92923026Y-119065539D01*
X92923029Y-119065538D01*
X92923032Y-119065538D01*
X92959623Y-119058259D01*
X92997261Y-119050774D01*
X93081444Y-118994524D01*
X93137694Y-118910341D01*
X93152460Y-118836107D01*
X93152460Y-116565985D01*
X109778800Y-116565985D01*
X109778800Y-117189250D01*
X110839250Y-117189250D01*
X110839250Y-116382800D01*
X109961985Y-116382800D01*
X109902713Y-116394590D01*
X109835500Y-116439500D01*
X109790590Y-116506713D01*
X109778800Y-116565985D01*
X93152460Y-116565985D01*
X93152460Y-116458500D01*
X93172462Y-116390379D01*
X93226118Y-116343886D01*
X93278460Y-116332500D01*
X96796458Y-116332500D01*
X96796459Y-116332500D01*
X96968309Y-116298317D01*
X97130187Y-116231265D01*
X97275874Y-116133920D01*
X97399771Y-116010023D01*
X97497116Y-115864336D01*
X97545169Y-115748322D01*
X97572479Y-115707449D01*
X98120714Y-115159216D01*
X98167260Y-115078596D01*
X98196019Y-115028784D01*
X98235000Y-114883305D01*
X98235000Y-113827121D01*
X98255002Y-113759000D01*
X98271904Y-113738027D01*
X98303971Y-113705959D01*
X98316011Y-113693919D01*
X98378321Y-113659894D01*
X98449137Y-113664958D01*
X98488659Y-113688702D01*
X98609144Y-113795442D01*
X98609153Y-113795449D01*
X98688612Y-113837152D01*
X98760637Y-113874954D01*
X98926749Y-113915897D01*
X98926750Y-113915897D01*
X99097832Y-113915897D01*
X99097833Y-113915897D01*
X99263945Y-113874954D01*
X99415432Y-113795447D01*
X99543490Y-113681998D01*
X99615045Y-113578330D01*
X99670200Y-113533634D01*
X99740769Y-113525850D01*
X99804343Y-113557454D01*
X99822435Y-113578333D01*
X99910529Y-113705959D01*
X99910532Y-113705963D01*
X100038583Y-113819406D01*
X100038592Y-113819413D01*
X100057337Y-113829251D01*
X100190076Y-113898918D01*
X100356188Y-113939861D01*
X100356189Y-113939861D01*
X100527271Y-113939861D01*
X100527272Y-113939861D01*
X100693384Y-113898918D01*
X100844871Y-113819411D01*
X100846351Y-113818099D01*
X100847666Y-113817481D01*
X100851145Y-113815080D01*
X100851543Y-113815657D01*
X100910597Y-113787892D01*
X100980979Y-113797215D01*
X101013466Y-113818091D01*
X101069852Y-113868045D01*
X101069862Y-113868052D01*
X101147415Y-113908755D01*
X101221346Y-113947557D01*
X101387458Y-113988500D01*
X101387459Y-113988500D01*
X101558541Y-113988500D01*
X101558542Y-113988500D01*
X101724654Y-113947557D01*
X101876141Y-113868050D01*
X101973145Y-113782111D01*
X102037398Y-113751912D01*
X102107778Y-113761243D01*
X102140250Y-113782111D01*
X102193460Y-113829251D01*
X102193461Y-113829251D01*
X102193463Y-113829253D01*
X102254192Y-113861126D01*
X102344947Y-113908758D01*
X102511059Y-113949701D01*
X102511060Y-113949701D01*
X102682142Y-113949701D01*
X102682143Y-113949701D01*
X102848255Y-113908758D01*
X102999742Y-113829251D01*
X103127800Y-113715802D01*
X103224986Y-113575003D01*
X103285653Y-113415037D01*
X103302953Y-113272557D01*
X103306275Y-113245203D01*
X103306275Y-113245199D01*
X103303553Y-113222784D01*
X103315197Y-113152749D01*
X103339535Y-113118503D01*
X103482621Y-112975419D01*
X103536190Y-112882633D01*
X103553571Y-112817766D01*
X103559554Y-112795440D01*
X103596505Y-112734818D01*
X103660366Y-112703796D01*
X103730861Y-112712225D01*
X103767906Y-112742814D01*
X103770355Y-112740366D01*
X103807259Y-112777270D01*
X103815720Y-112777270D01*
X103883841Y-112797272D01*
X103885721Y-112798505D01*
X103908615Y-112813802D01*
X103908617Y-112813802D01*
X103908619Y-112813804D01*
X103982853Y-112828570D01*
X104127086Y-112828569D01*
X104195206Y-112848571D01*
X104241699Y-112902226D01*
X104248159Y-112924720D01*
X104249122Y-112924463D01*
X104278989Y-113035927D01*
X104278990Y-113035930D01*
X104332556Y-113128709D01*
X104332564Y-113128719D01*
X104823056Y-113619211D01*
X104823059Y-113619213D01*
X104823064Y-113619218D01*
X104915850Y-113672787D01*
X104915851Y-113672787D01*
X104915853Y-113672788D01*
X104994717Y-113693920D01*
X105019337Y-113700517D01*
X105019338Y-113700517D01*
X106410085Y-113700517D01*
X106478206Y-113720519D01*
X106513783Y-113754944D01*
X106520183Y-113764217D01*
X106520185Y-113764219D01*
X106648236Y-113877662D01*
X106648245Y-113877669D01*
X106721081Y-113915896D01*
X106799729Y-113957174D01*
X106965841Y-113998117D01*
X106965842Y-113998117D01*
X107136924Y-113998117D01*
X107136925Y-113998117D01*
X107303037Y-113957174D01*
X107454524Y-113877667D01*
X107582582Y-113764218D01*
X107679768Y-113623419D01*
X107740435Y-113463453D01*
X107761057Y-113293617D01*
X107758500Y-113272561D01*
X107743578Y-113149667D01*
X107740435Y-113123781D01*
X107693205Y-112999247D01*
X107687752Y-112928463D01*
X107721434Y-112865965D01*
X107783558Y-112831598D01*
X107811018Y-112828569D01*
X107832824Y-112828569D01*
X107832826Y-112828569D01*
X107883511Y-112818488D01*
X107932667Y-112818488D01*
X107983353Y-112828570D01*
X108123220Y-112828569D01*
X108191340Y-112848571D01*
X108237833Y-112902226D01*
X108249220Y-112954569D01*
X108249220Y-113408693D01*
X108276949Y-113512177D01*
X108276950Y-113512180D01*
X108330516Y-113604959D01*
X108330524Y-113604969D01*
X109097150Y-114371595D01*
X109097155Y-114371599D01*
X109097157Y-114371601D01*
X109097158Y-114371602D01*
X109097160Y-114371603D01*
X109189939Y-114425169D01*
X109189942Y-114425170D01*
X109293430Y-114452900D01*
X109293431Y-114452900D01*
X109601501Y-114452900D01*
X109669622Y-114472902D01*
X109716115Y-114526558D01*
X109727501Y-114578900D01*
X109727501Y-114833072D01*
X109742265Y-114907300D01*
X109798516Y-114991484D01*
X109882697Y-115047733D01*
X109882699Y-115047734D01*
X109956933Y-115062500D01*
X112039066Y-115062499D01*
X112039069Y-115062498D01*
X112039073Y-115062498D01*
X112088326Y-115052701D01*
X112113301Y-115047734D01*
X112197484Y-114991484D01*
X112253734Y-114907301D01*
X112268500Y-114833067D01*
X112268499Y-113258934D01*
X112268498Y-113258930D01*
X112268498Y-113258926D01*
X112253734Y-113184699D01*
X112238487Y-113161881D01*
X112197484Y-113100516D01*
X112197483Y-113100515D01*
X112113302Y-113044266D01*
X112039069Y-113029500D01*
X112039067Y-113029500D01*
X111854488Y-113029500D01*
X111786367Y-113009498D01*
X111749724Y-112973503D01*
X111717272Y-112924935D01*
X111611065Y-112818728D01*
X111486179Y-112735282D01*
X111410165Y-112703796D01*
X111347417Y-112677805D01*
X111347412Y-112677803D01*
X111200101Y-112648501D01*
X111200099Y-112648501D01*
X111049900Y-112648501D01*
X111049897Y-112648501D01*
X110902586Y-112677803D01*
X110902581Y-112677805D01*
X110819485Y-112712225D01*
X110763821Y-112735282D01*
X110638937Y-112818727D01*
X110638934Y-112818729D01*
X110638932Y-112818730D01*
X110465065Y-112992596D01*
X110402753Y-113026621D01*
X110375970Y-113029500D01*
X109956936Y-113029500D01*
X109956926Y-113029501D01*
X109882699Y-113044265D01*
X109798515Y-113100516D01*
X109742266Y-113184697D01*
X109727500Y-113258930D01*
X109727500Y-113513100D01*
X109707498Y-113581221D01*
X109653842Y-113627714D01*
X109601500Y-113639100D01*
X109567734Y-113639100D01*
X109499613Y-113619098D01*
X109478639Y-113602195D01*
X109099925Y-113223481D01*
X109065899Y-113161169D01*
X109063020Y-113134386D01*
X109063020Y-111769928D01*
X109061942Y-111761739D01*
X109062817Y-111761623D01*
X109060479Y-111743857D01*
X109060479Y-111047866D01*
X109060478Y-111047857D01*
X109045714Y-110973628D01*
X109040551Y-110965902D01*
X109019336Y-110898149D01*
X109038119Y-110829682D01*
X109090936Y-110782239D01*
X109145316Y-110769900D01*
X109908570Y-110769900D01*
X110012058Y-110742170D01*
X110022250Y-110736286D01*
X110093877Y-110694932D01*
X110104843Y-110688601D01*
X110131066Y-110662377D01*
X110193376Y-110628353D01*
X110264192Y-110633417D01*
X110321028Y-110675962D01*
X110345242Y-110736286D01*
X110360535Y-110862244D01*
X110421205Y-111022215D01*
X110518388Y-111163010D01*
X110518391Y-111163013D01*
X110646442Y-111276456D01*
X110646451Y-111276463D01*
X110707148Y-111308319D01*
X110797935Y-111355968D01*
X110964047Y-111396911D01*
X110964048Y-111396911D01*
X111135130Y-111396911D01*
X111135131Y-111396911D01*
X111301243Y-111355968D01*
X111452730Y-111276461D01*
X111580788Y-111163012D01*
X111677974Y-111022213D01*
X111738641Y-110862247D01*
X111753936Y-110736286D01*
X111759263Y-110692413D01*
X111759263Y-110692408D01*
X111746889Y-110590509D01*
X111738641Y-110522575D01*
X111677974Y-110362609D01*
X111671424Y-110353120D01*
X111608927Y-110262576D01*
X111586691Y-110195151D01*
X111604438Y-110126408D01*
X111656533Y-110078173D01*
X111712623Y-110065000D01*
X113282319Y-110065000D01*
X113350440Y-110085002D01*
G37*
%TD.AperFunction*%
%TA.AperFunction,Conductor*%
G36*
X97836252Y-122473975D02*
G01*
X97883696Y-122526791D01*
X97887846Y-122536488D01*
X97923615Y-122630802D01*
X97956917Y-122679048D01*
X97996696Y-122736679D01*
X98018932Y-122804104D01*
X98001185Y-122872847D01*
X97949090Y-122921082D01*
X97917583Y-122931834D01*
X97901213Y-122935090D01*
X97860002Y-122962627D01*
X97792249Y-122983842D01*
X97723782Y-122965059D01*
X97719998Y-122962627D01*
X97678786Y-122935090D01*
X97619514Y-122923300D01*
X97186750Y-122923300D01*
X97186750Y-123285250D01*
X98584750Y-123285250D01*
X98652871Y-123305252D01*
X98699364Y-123358908D01*
X98710750Y-123411250D01*
X98710750Y-123476750D01*
X98690748Y-123544871D01*
X98637092Y-123591364D01*
X98584750Y-123602750D01*
X96995250Y-123602750D01*
X96927129Y-123582748D01*
X96880636Y-123529092D01*
X96869250Y-123476750D01*
X96869250Y-122923300D01*
X96453151Y-122923300D01*
X96385030Y-122903298D01*
X96338537Y-122849642D01*
X96328433Y-122779368D01*
X96329573Y-122772714D01*
X96329794Y-122771601D01*
X96330000Y-122770567D01*
X96329999Y-122617998D01*
X96350001Y-122549879D01*
X96403656Y-122503386D01*
X96455994Y-122491999D01*
X97624566Y-122491999D01*
X97624569Y-122491998D01*
X97624573Y-122491998D01*
X97683456Y-122480286D01*
X97698801Y-122477234D01*
X97700033Y-122476410D01*
X97703132Y-122475439D01*
X97710267Y-122472485D01*
X97710531Y-122473123D01*
X97767784Y-122455194D01*
X97836252Y-122473975D01*
G37*
%TD.AperFunction*%
%TA.AperFunction,Conductor*%
G36*
X99697284Y-121048713D02*
G01*
X99738466Y-121106546D01*
X99745396Y-121147756D01*
X99745396Y-122679048D01*
X99725394Y-122747169D01*
X99702950Y-122773360D01*
X99627618Y-122840099D01*
X99605734Y-122859487D01*
X99601030Y-122863654D01*
X99499516Y-123010724D01*
X99497039Y-123009014D01*
X99457283Y-123050072D01*
X99388161Y-123066278D01*
X99321250Y-123042542D01*
X99290360Y-123010473D01*
X99269999Y-122980000D01*
X99202786Y-122935090D01*
X99186417Y-122931834D01*
X99123507Y-122898926D01*
X99088376Y-122837231D01*
X99092177Y-122766336D01*
X99107300Y-122736683D01*
X99180385Y-122630802D01*
X99229703Y-122500759D01*
X99272561Y-122444159D01*
X99277493Y-122440689D01*
X99306984Y-122420984D01*
X99363234Y-122336801D01*
X99378000Y-122262567D01*
X99377999Y-121577434D01*
X99377998Y-121577430D01*
X99377998Y-121577426D01*
X99363234Y-121503199D01*
X99326189Y-121447758D01*
X99304974Y-121380006D01*
X99323757Y-121311539D01*
X99341855Y-121288665D01*
X99380390Y-121250130D01*
X99380400Y-121250123D01*
X99461790Y-121168733D01*
X99461796Y-121168727D01*
X99493393Y-121113999D01*
X99510277Y-121084756D01*
X99561660Y-121035763D01*
X99631373Y-121022327D01*
X99697284Y-121048713D01*
G37*
%TD.AperFunction*%
%TA.AperFunction,Conductor*%
G36*
X91785579Y-110077250D02*
G01*
X92870197Y-110077250D01*
X92887358Y-110067879D01*
X92914141Y-110065000D01*
X93155000Y-110065000D01*
X93223121Y-110085002D01*
X93269614Y-110138658D01*
X93281000Y-110191000D01*
X93281000Y-110832563D01*
X93281001Y-110832573D01*
X93295765Y-110906800D01*
X93352016Y-110990984D01*
X93436197Y-111047233D01*
X93436199Y-111047234D01*
X93510433Y-111062000D01*
X94195566Y-111061999D01*
X94195569Y-111061998D01*
X94195573Y-111061998D01*
X94266623Y-111047866D01*
X94269801Y-111047234D01*
X94353984Y-110990984D01*
X94410234Y-110906801D01*
X94425000Y-110832567D01*
X94425000Y-110742905D01*
X94445002Y-110674784D01*
X94498658Y-110628291D01*
X94534556Y-110617983D01*
X94538221Y-110617500D01*
X94538225Y-110617500D01*
X94635254Y-110591501D01*
X94635257Y-110591499D01*
X94635258Y-110591499D01*
X94678750Y-110566388D01*
X94722247Y-110541276D01*
X94793276Y-110470247D01*
X94999663Y-110263860D01*
X95061975Y-110229834D01*
X95132790Y-110234899D01*
X95158757Y-110248188D01*
X95182211Y-110263860D01*
X95217446Y-110287404D01*
X95262973Y-110341882D01*
X95269148Y-110359554D01*
X95275498Y-110383253D01*
X95303780Y-110432238D01*
X95303780Y-110432239D01*
X95325721Y-110470243D01*
X95325729Y-110470253D01*
X95464725Y-110609249D01*
X95498751Y-110671561D01*
X95493686Y-110742376D01*
X95451139Y-110799212D01*
X95384619Y-110824023D01*
X95351048Y-110821923D01*
X95333487Y-110818430D01*
X94983636Y-110818430D01*
X94983626Y-110818431D01*
X94909399Y-110833195D01*
X94825215Y-110889446D01*
X94768966Y-110973627D01*
X94754200Y-111047860D01*
X94754200Y-112599133D01*
X94754201Y-112599143D01*
X94771387Y-112685543D01*
X94767717Y-112686272D01*
X94773000Y-112735360D01*
X94741227Y-112798850D01*
X94680172Y-112835083D01*
X94649000Y-112839000D01*
X94534628Y-112839000D01*
X94466507Y-112818998D01*
X94464627Y-112817766D01*
X94422785Y-112789808D01*
X94341179Y-112735282D01*
X94265165Y-112703796D01*
X94202418Y-112677805D01*
X94202413Y-112677803D01*
X94055102Y-112648501D01*
X94055100Y-112648501D01*
X93904900Y-112648501D01*
X93904897Y-112648501D01*
X93757586Y-112677803D01*
X93757581Y-112677805D01*
X93618822Y-112735281D01*
X93493934Y-112818727D01*
X93493930Y-112818730D01*
X93387730Y-112924930D01*
X93387726Y-112924935D01*
X93383223Y-112931675D01*
X93328745Y-112977202D01*
X93258301Y-112986048D01*
X93194258Y-112955406D01*
X93156948Y-112895003D01*
X93152459Y-112861671D01*
X93152459Y-111287896D01*
X93152458Y-111287887D01*
X93137694Y-111213659D01*
X93103851Y-111163010D01*
X93081444Y-111129476D01*
X93081443Y-111129475D01*
X92997262Y-111073226D01*
X92929273Y-111059702D01*
X92866364Y-111026794D01*
X92831232Y-110965099D01*
X92835032Y-110894204D01*
X92837447Y-110887904D01*
X92837909Y-110886786D01*
X92849699Y-110827514D01*
X92849700Y-110827509D01*
X92849700Y-110394750D01*
X91808300Y-110394750D01*
X91808300Y-110827514D01*
X91822511Y-110898957D01*
X91820658Y-110899325D01*
X91826624Y-110954839D01*
X91794841Y-111018324D01*
X91733780Y-111054548D01*
X91702627Y-111058460D01*
X89875696Y-111058460D01*
X89875687Y-111058461D01*
X89801459Y-111073225D01*
X89717275Y-111129476D01*
X89661026Y-111213657D01*
X89646260Y-111287890D01*
X89646260Y-116913126D01*
X89626258Y-116981247D01*
X89572602Y-117027740D01*
X89502328Y-117037844D01*
X89437748Y-117008350D01*
X89431165Y-117002221D01*
X88190644Y-115761700D01*
X88156618Y-115699388D01*
X88153739Y-115672605D01*
X88153739Y-111287896D01*
X88153738Y-111287887D01*
X88138974Y-111213659D01*
X88105131Y-111163010D01*
X88082724Y-111129476D01*
X88082723Y-111129475D01*
X87998542Y-111073226D01*
X87924307Y-111058460D01*
X84876976Y-111058460D01*
X84876967Y-111058461D01*
X84802739Y-111073225D01*
X84751418Y-111107517D01*
X84683665Y-111128731D01*
X84615198Y-111109947D01*
X84567755Y-111057130D01*
X84556399Y-110987047D01*
X84560839Y-110966187D01*
X84567792Y-110943269D01*
X84570131Y-110919520D01*
X84587418Y-110744003D01*
X84587418Y-110743996D01*
X84567793Y-110544738D01*
X84567793Y-110544736D01*
X84567792Y-110544733D01*
X84567792Y-110544731D01*
X84509667Y-110353120D01*
X84473381Y-110285234D01*
X84454760Y-110250396D01*
X84440288Y-110180890D01*
X84465692Y-110114594D01*
X84522905Y-110072556D01*
X84565882Y-110065000D01*
X91743859Y-110065000D01*
X91785579Y-110077250D01*
G37*
%TD.AperFunction*%
%TD*%
%TA.AperFunction,Conductor*%
%TO.N,/Mosfet driver/H3_VS*%
G36*
X88334121Y-80095502D02*
G01*
X88380614Y-80149158D01*
X88392000Y-80201500D01*
X88392000Y-85265760D01*
X88371998Y-85333881D01*
X88318342Y-85380374D01*
X88266001Y-85391760D01*
X88044356Y-85391760D01*
X88044346Y-85391761D01*
X87970119Y-85406525D01*
X87885935Y-85462776D01*
X87829686Y-85546957D01*
X87814920Y-85621190D01*
X87814920Y-88871723D01*
X87814921Y-88871732D01*
X87829685Y-88945960D01*
X87885936Y-89030144D01*
X87970117Y-89086393D01*
X87970119Y-89086394D01*
X88044353Y-89101160D01*
X88993646Y-89101159D01*
X88993649Y-89101158D01*
X88993653Y-89101158D01*
X89042906Y-89091361D01*
X89067881Y-89086394D01*
X89152064Y-89030144D01*
X89208314Y-88945961D01*
X89223080Y-88871727D01*
X89223080Y-88709000D01*
X89243082Y-88640879D01*
X89296738Y-88594386D01*
X89349080Y-88583000D01*
X91184184Y-88583000D01*
X91252305Y-88603002D01*
X91298798Y-88656658D01*
X91310184Y-88709120D01*
X91310062Y-88837120D01*
X91289995Y-88905222D01*
X91236295Y-88951663D01*
X91184062Y-88963000D01*
X90843436Y-88963000D01*
X90843426Y-88963001D01*
X90769199Y-88977765D01*
X90685015Y-89034016D01*
X90628766Y-89118197D01*
X90614000Y-89192430D01*
X90614000Y-89877563D01*
X90614002Y-89877575D01*
X90626466Y-89940242D01*
X90625228Y-89994966D01*
X90623947Y-90000162D01*
X90603326Y-90169997D01*
X90603326Y-90170002D01*
X90623947Y-90339833D01*
X90623947Y-90339835D01*
X90623948Y-90339836D01*
X90684615Y-90499802D01*
X90781801Y-90640601D01*
X90848032Y-90699276D01*
X90863491Y-90712972D01*
X90901216Y-90773116D01*
X90900436Y-90844109D01*
X90883634Y-90878859D01*
X90811616Y-90983195D01*
X90750947Y-91143166D01*
X90730326Y-91312997D01*
X90730326Y-91313002D01*
X90750947Y-91482833D01*
X90750947Y-91482835D01*
X90750948Y-91482836D01*
X90790346Y-91586721D01*
X90811616Y-91642804D01*
X90885555Y-91749924D01*
X90907791Y-91817349D01*
X90890043Y-91886092D01*
X90837949Y-91934327D01*
X90781859Y-91947500D01*
X87658482Y-91947500D01*
X87346595Y-91982642D01*
X87346590Y-91982642D01*
X87040577Y-92052487D01*
X86744343Y-92156144D01*
X86744316Y-92156155D01*
X86461542Y-92292332D01*
X86461532Y-92292337D01*
X86195783Y-92459318D01*
X86195776Y-92459322D01*
X85950381Y-92655018D01*
X85123813Y-93481586D01*
X85061501Y-93515611D01*
X85034718Y-93518490D01*
X79283896Y-93518490D01*
X79283887Y-93518491D01*
X79209659Y-93533255D01*
X79125475Y-93589506D01*
X79069226Y-93673687D01*
X79054460Y-93747920D01*
X79054460Y-99374000D01*
X79034458Y-99442121D01*
X78980802Y-99488614D01*
X78928460Y-99500000D01*
X78602777Y-99500000D01*
X78534656Y-99479998D01*
X78488163Y-99426342D01*
X78479347Y-99399319D01*
X78474153Y-99374000D01*
X77978070Y-96955590D01*
X77975500Y-96930271D01*
X77975500Y-80201500D01*
X77995502Y-80133379D01*
X78049158Y-80086886D01*
X78101500Y-80075500D01*
X88266000Y-80075500D01*
X88334121Y-80095502D01*
G37*
%TD.AperFunction*%
%TA.AperFunction,Conductor*%
G36*
X91255002Y-85745002D02*
G01*
X91301495Y-85798658D01*
X91312881Y-85851119D01*
X91311501Y-87313119D01*
X91291435Y-87381221D01*
X91237735Y-87427663D01*
X91185501Y-87439000D01*
X89572660Y-87439000D01*
X89504539Y-87418998D01*
X89483565Y-87402095D01*
X89259984Y-87178514D01*
X89225958Y-87116202D01*
X89223079Y-87089419D01*
X89223079Y-85851000D01*
X89243081Y-85782879D01*
X89296737Y-85736386D01*
X89349079Y-85725000D01*
X91186881Y-85725000D01*
X91255002Y-85745002D01*
G37*
%TD.AperFunction*%
%TD*%
%TA.AperFunction,Conductor*%
%TO.N,/Mosfet driver/H1_VS*%
G36*
X116866621Y-80095502D02*
G01*
X116913114Y-80149158D01*
X116924500Y-80201500D01*
X116924500Y-93913000D01*
X116904498Y-93981121D01*
X116850842Y-94027614D01*
X116798500Y-94039000D01*
X116524539Y-94039000D01*
X116456418Y-94018998D01*
X116409925Y-93965342D01*
X116398539Y-93913000D01*
X116398539Y-93747926D01*
X116398538Y-93747917D01*
X116383774Y-93673689D01*
X116327523Y-93589505D01*
X116243342Y-93533256D01*
X116169109Y-93518490D01*
X116169107Y-93518490D01*
X107174699Y-93518490D01*
X107106578Y-93498488D01*
X107085608Y-93481589D01*
X106513039Y-92909020D01*
X106437551Y-92848820D01*
X106267643Y-92713322D01*
X106267636Y-92713318D01*
X106001887Y-92546337D01*
X106001877Y-92546332D01*
X105719103Y-92410155D01*
X105719098Y-92410153D01*
X105719094Y-92410151D01*
X105719088Y-92410148D01*
X105719076Y-92410144D01*
X105422847Y-92306489D01*
X105422833Y-92306485D01*
X105116836Y-92236642D01*
X105116826Y-92236640D01*
X105102038Y-92234974D01*
X105036585Y-92207470D01*
X104996394Y-92148945D01*
X104994223Y-92077981D01*
X105012450Y-92038194D01*
X105022385Y-92023802D01*
X105083052Y-91863836D01*
X105098162Y-91739392D01*
X105103674Y-91694002D01*
X105103674Y-91693997D01*
X105091300Y-91592098D01*
X105083052Y-91524164D01*
X105027490Y-91377661D01*
X105022037Y-91306876D01*
X105055719Y-91244378D01*
X105075294Y-91228222D01*
X105148984Y-91178984D01*
X105205234Y-91094801D01*
X105220000Y-91020567D01*
X105219999Y-90335434D01*
X105219998Y-90335431D01*
X105219998Y-90335426D01*
X105205234Y-90261199D01*
X105148983Y-90177015D01*
X105064802Y-90120766D01*
X104990569Y-90106000D01*
X104990567Y-90106000D01*
X104749437Y-90106000D01*
X104681316Y-90085998D01*
X104634823Y-90032342D01*
X104623439Y-89979273D01*
X104624178Y-89851272D01*
X104644573Y-89783267D01*
X104698496Y-89737085D01*
X104750176Y-89725999D01*
X104990564Y-89725999D01*
X104990566Y-89725999D01*
X104990569Y-89725998D01*
X104990572Y-89725998D01*
X105027163Y-89718719D01*
X105064801Y-89711234D01*
X105148984Y-89654984D01*
X105205234Y-89570801D01*
X105220000Y-89496567D01*
X105219999Y-88811434D01*
X105219998Y-88811431D01*
X105219998Y-88811426D01*
X105205234Y-88737199D01*
X105148983Y-88653015D01*
X105064802Y-88596765D01*
X105053337Y-88592017D01*
X105054050Y-88590294D01*
X105004504Y-88564373D01*
X104969375Y-88502676D01*
X104966000Y-88473707D01*
X104966000Y-87681696D01*
X104966000Y-87681695D01*
X104953866Y-87636410D01*
X104927020Y-87536217D01*
X104851714Y-87405784D01*
X104676725Y-87230795D01*
X104642702Y-87168486D01*
X104639824Y-87140983D01*
X104647277Y-85850272D01*
X104667672Y-85782268D01*
X104721595Y-85736086D01*
X104773275Y-85725000D01*
X106680000Y-85725000D01*
X106680000Y-85621190D01*
X113849920Y-85621190D01*
X113849920Y-88871723D01*
X113849921Y-88871732D01*
X113864685Y-88945960D01*
X113920936Y-89030144D01*
X114005117Y-89086393D01*
X114005119Y-89086394D01*
X114079353Y-89101160D01*
X115028646Y-89101159D01*
X115028649Y-89101158D01*
X115028653Y-89101158D01*
X115077906Y-89091361D01*
X115102881Y-89086394D01*
X115187064Y-89030144D01*
X115243314Y-88945961D01*
X115258080Y-88871727D01*
X115258079Y-85621194D01*
X115257758Y-85619581D01*
X115253224Y-85596787D01*
X115243314Y-85546959D01*
X115243313Y-85546958D01*
X115243314Y-85546958D01*
X115187064Y-85462776D01*
X115187061Y-85462774D01*
X115181993Y-85459387D01*
X115136468Y-85404908D01*
X115126000Y-85354625D01*
X115126000Y-85279999D01*
X115146002Y-85211878D01*
X115199658Y-85165385D01*
X115252000Y-85153999D01*
X115404564Y-85153999D01*
X115404566Y-85153999D01*
X115404569Y-85153998D01*
X115404572Y-85153998D01*
X115441163Y-85146719D01*
X115478801Y-85139234D01*
X115562984Y-85082984D01*
X115619234Y-84998801D01*
X115634000Y-84924567D01*
X115633999Y-84239434D01*
X115633998Y-84239430D01*
X115633998Y-84239426D01*
X115619234Y-84165199D01*
X115619233Y-84165197D01*
X115562984Y-84081016D01*
X115562983Y-84081015D01*
X115478802Y-84024766D01*
X115404569Y-84010000D01*
X115404567Y-84010000D01*
X114883306Y-84010000D01*
X114883305Y-84010000D01*
X114732694Y-84010000D01*
X114732691Y-84010000D01*
X114211436Y-84010000D01*
X114211426Y-84010001D01*
X114137199Y-84024765D01*
X114053015Y-84081016D01*
X113996766Y-84165197D01*
X113982000Y-84239430D01*
X113982000Y-85354625D01*
X113961998Y-85422746D01*
X113926007Y-85459387D01*
X113920938Y-85462774D01*
X113920935Y-85462776D01*
X113864686Y-85546957D01*
X113849920Y-85621190D01*
X106680000Y-85621190D01*
X106680000Y-82715430D01*
X113982000Y-82715430D01*
X113982000Y-83400563D01*
X113982001Y-83400573D01*
X113996765Y-83474800D01*
X114053016Y-83558984D01*
X114137197Y-83615233D01*
X114137199Y-83615234D01*
X114211433Y-83630000D01*
X114718019Y-83629999D01*
X114718029Y-83630000D01*
X114732695Y-83630000D01*
X114897972Y-83630000D01*
X114897980Y-83629999D01*
X115404564Y-83629999D01*
X115404566Y-83629999D01*
X115404569Y-83629998D01*
X115404572Y-83629998D01*
X115441163Y-83622719D01*
X115478801Y-83615234D01*
X115562984Y-83558984D01*
X115619234Y-83474801D01*
X115634000Y-83400567D01*
X115633999Y-82715434D01*
X115633998Y-82715430D01*
X115633998Y-82715426D01*
X115619234Y-82641199D01*
X115562983Y-82557015D01*
X115478802Y-82500765D01*
X115467337Y-82496017D01*
X115468050Y-82494294D01*
X115418504Y-82468373D01*
X115383375Y-82406676D01*
X115380000Y-82377707D01*
X115380000Y-82365753D01*
X115400002Y-82297632D01*
X115402305Y-82294176D01*
X115436380Y-82244809D01*
X115436379Y-82244809D01*
X115436385Y-82244802D01*
X115497052Y-82084836D01*
X115517674Y-81915000D01*
X115497052Y-81745164D01*
X115436385Y-81585198D01*
X115339199Y-81444399D01*
X115211141Y-81330950D01*
X115211140Y-81330949D01*
X115211137Y-81330947D01*
X115059658Y-81251445D01*
X115059656Y-81251444D01*
X115059654Y-81251443D01*
X115059652Y-81251442D01*
X115059651Y-81251442D01*
X114893543Y-81210500D01*
X114893542Y-81210500D01*
X114722458Y-81210500D01*
X114722456Y-81210500D01*
X114556348Y-81251442D01*
X114556341Y-81251445D01*
X114404862Y-81330947D01*
X114404853Y-81330954D01*
X114276802Y-81444397D01*
X114276799Y-81444400D01*
X114179616Y-81585195D01*
X114118947Y-81745166D01*
X114098326Y-81914997D01*
X114098326Y-81915002D01*
X114118947Y-82084833D01*
X114118947Y-82084835D01*
X114118948Y-82084836D01*
X114179615Y-82244802D01*
X114179616Y-82244804D01*
X114179617Y-82244805D01*
X114179619Y-82244809D01*
X114213695Y-82294176D01*
X114235932Y-82361601D01*
X114236000Y-82365753D01*
X114236000Y-82377707D01*
X114215998Y-82445828D01*
X114162342Y-82492321D01*
X114140752Y-82499294D01*
X114137199Y-82500765D01*
X114053015Y-82557016D01*
X113996766Y-82641197D01*
X113982000Y-82715430D01*
X106680000Y-82715430D01*
X106680000Y-80201500D01*
X106700002Y-80133379D01*
X106753658Y-80086886D01*
X106806000Y-80075500D01*
X116798500Y-80075500D01*
X116866621Y-80095502D01*
G37*
%TD.AperFunction*%
%TD*%
%TA.AperFunction,Conductor*%
%TO.N,GND*%
G36*
X96462121Y-102382002D02*
G01*
X96508614Y-102435658D01*
X96520000Y-102488000D01*
X96520000Y-106808000D01*
X96499998Y-106876121D01*
X96446342Y-106922614D01*
X96394000Y-106934000D01*
X94868998Y-106934000D01*
X93635905Y-108167095D01*
X93573593Y-108201120D01*
X93546810Y-108204000D01*
X92709000Y-108204000D01*
X92640879Y-108183998D01*
X92594386Y-108130342D01*
X92583000Y-108078000D01*
X92583000Y-102488000D01*
X92603002Y-102419879D01*
X92656658Y-102373386D01*
X92709000Y-102362000D01*
X96394000Y-102362000D01*
X96462121Y-102382002D01*
G37*
%TD.AperFunction*%
%TD*%
%TA.AperFunction,Conductor*%
%TO.N,V_SUPPLY*%
G36*
X88969121Y-102255002D02*
G01*
X89015614Y-102308658D01*
X89027000Y-102361000D01*
X89027000Y-108459000D01*
X89006998Y-108527121D01*
X88953342Y-108573614D01*
X88901000Y-108585000D01*
X82930000Y-108585000D01*
X82861879Y-108564998D01*
X82815386Y-108511342D01*
X82804000Y-108459000D01*
X82804000Y-102361000D01*
X82824002Y-102292879D01*
X82877658Y-102246386D01*
X82930000Y-102235000D01*
X88901000Y-102235000D01*
X88969121Y-102255002D01*
G37*
%TD.AperFunction*%
%TD*%
%TA.AperFunction,Conductor*%
%TO.N,/Mosfet driver/H2_VS*%
G36*
X100526121Y-80095502D02*
G01*
X100572614Y-80149158D01*
X100584000Y-80201500D01*
X100584000Y-84201001D01*
X100964999Y-85724998D01*
X100965000Y-85725000D01*
X100965002Y-85725000D01*
X100974461Y-85732386D01*
X101015845Y-85790074D01*
X101022920Y-85831701D01*
X101022920Y-88871723D01*
X101022921Y-88871732D01*
X101037685Y-88945960D01*
X101093936Y-89030144D01*
X101178117Y-89086393D01*
X101178119Y-89086394D01*
X101252353Y-89101160D01*
X102201646Y-89101159D01*
X102201649Y-89101158D01*
X102201653Y-89101158D01*
X102250906Y-89091361D01*
X102275881Y-89086394D01*
X102360064Y-89030144D01*
X102416314Y-88945961D01*
X102431080Y-88871727D01*
X102431080Y-87944460D01*
X102451082Y-87876339D01*
X102504738Y-87829846D01*
X102557080Y-87818460D01*
X103594340Y-87818460D01*
X103662461Y-87838462D01*
X103683435Y-87855365D01*
X103785095Y-87957025D01*
X103819121Y-88019337D01*
X103822000Y-88046120D01*
X103822000Y-88473707D01*
X103801998Y-88541828D01*
X103748342Y-88588321D01*
X103726752Y-88595294D01*
X103723199Y-88596765D01*
X103639015Y-88653016D01*
X103582766Y-88737197D01*
X103568000Y-88811430D01*
X103568000Y-89496563D01*
X103568001Y-89496573D01*
X103582765Y-89570800D01*
X103639016Y-89654984D01*
X103723197Y-89711233D01*
X103723199Y-89711234D01*
X103797433Y-89726000D01*
X104141001Y-89725999D01*
X104209120Y-89746001D01*
X104255613Y-89799656D01*
X104267000Y-89851999D01*
X104267000Y-89980000D01*
X104246998Y-90048121D01*
X104193342Y-90094614D01*
X104141000Y-90106000D01*
X103797436Y-90106000D01*
X103797426Y-90106001D01*
X103723199Y-90120765D01*
X103639015Y-90177016D01*
X103582766Y-90261197D01*
X103568000Y-90335430D01*
X103568000Y-91020563D01*
X103568001Y-91020573D01*
X103582765Y-91094800D01*
X103639016Y-91178984D01*
X103712699Y-91228219D01*
X103758226Y-91282696D01*
X103767073Y-91353139D01*
X103760508Y-91377663D01*
X103704947Y-91524164D01*
X103684326Y-91693997D01*
X103684326Y-91694002D01*
X103704947Y-91863833D01*
X103704947Y-91863835D01*
X103704948Y-91863836D01*
X103765615Y-92023802D01*
X103765616Y-92023804D01*
X103768277Y-92030819D01*
X103773731Y-92101606D01*
X103740049Y-92164104D01*
X103677925Y-92198471D01*
X103650465Y-92201500D01*
X100612482Y-92201500D01*
X100300582Y-92236642D01*
X99994586Y-92306485D01*
X99994572Y-92306489D01*
X99698343Y-92410144D01*
X99698316Y-92410155D01*
X99415542Y-92546332D01*
X99415533Y-92546337D01*
X99149774Y-92713324D01*
X98944582Y-92876961D01*
X98944581Y-92876960D01*
X98904383Y-92909017D01*
X98331814Y-93481586D01*
X98269502Y-93515611D01*
X98242719Y-93518490D01*
X94982701Y-93518490D01*
X94914580Y-93498488D01*
X94893606Y-93481586D01*
X94067042Y-92655023D01*
X94067039Y-92655020D01*
X93919802Y-92537602D01*
X93821643Y-92459322D01*
X93821636Y-92459318D01*
X93555887Y-92292337D01*
X93555877Y-92292332D01*
X93273103Y-92156155D01*
X93273098Y-92156153D01*
X93273094Y-92156151D01*
X93273088Y-92156148D01*
X93273076Y-92156144D01*
X92976847Y-92052489D01*
X92976833Y-92052485D01*
X92670836Y-91982642D01*
X92670838Y-91982642D01*
X92358938Y-91947500D01*
X92358936Y-91947500D01*
X92098141Y-91947500D01*
X92030020Y-91927498D01*
X91983527Y-91873842D01*
X91973423Y-91803568D01*
X91994445Y-91749924D01*
X92033048Y-91693997D01*
X92068385Y-91642802D01*
X92129052Y-91482836D01*
X92149674Y-91313000D01*
X92145994Y-91282696D01*
X92129052Y-91143166D01*
X92129052Y-91143164D01*
X92068385Y-90983198D01*
X91971199Y-90842399D01*
X91889508Y-90770027D01*
X91851783Y-90709883D01*
X91852563Y-90638890D01*
X91869364Y-90604142D01*
X91941385Y-90499802D01*
X92002052Y-90339836D01*
X92002052Y-90339835D01*
X92002053Y-90339833D01*
X92019170Y-90198861D01*
X92047237Y-90133647D01*
X92099835Y-90098187D01*
X92099336Y-90096983D01*
X92105265Y-90094527D01*
X92106105Y-90093961D01*
X92107496Y-90093602D01*
X92110799Y-90092234D01*
X92110801Y-90092234D01*
X92194984Y-90035984D01*
X92251234Y-89951801D01*
X92266000Y-89877567D01*
X92265999Y-89192434D01*
X92265998Y-89192431D01*
X92265998Y-89192426D01*
X92251234Y-89118199D01*
X92194983Y-89034015D01*
X92110802Y-88977766D01*
X92036569Y-88963000D01*
X92036567Y-88963000D01*
X91942256Y-88963000D01*
X91874135Y-88942998D01*
X91827642Y-88889342D01*
X91816256Y-88836808D01*
X91816451Y-88708807D01*
X91836557Y-88640717D01*
X91890283Y-88594306D01*
X91942451Y-88582999D01*
X92036564Y-88582999D01*
X92036566Y-88582999D01*
X92036569Y-88582998D01*
X92036572Y-88582998D01*
X92073163Y-88575719D01*
X92110801Y-88568234D01*
X92194984Y-88511984D01*
X92251234Y-88427801D01*
X92266000Y-88353567D01*
X92265999Y-87668434D01*
X92265998Y-87668431D01*
X92265998Y-87668426D01*
X92251234Y-87594199D01*
X92194983Y-87510015D01*
X92110803Y-87453766D01*
X92106161Y-87452843D01*
X92043252Y-87419934D01*
X92008121Y-87358239D01*
X92011922Y-87287344D01*
X92027047Y-87257690D01*
X92068385Y-87197802D01*
X92129052Y-87037836D01*
X92149674Y-86868000D01*
X92129052Y-86698164D01*
X92068385Y-86538198D01*
X91971199Y-86397399D01*
X91862711Y-86301287D01*
X91824986Y-86241143D01*
X91820265Y-86206786D01*
X91820808Y-85850807D01*
X91840914Y-85782718D01*
X91894641Y-85736307D01*
X91946808Y-85725000D01*
X93345000Y-85725000D01*
X94869000Y-84201000D01*
X94869000Y-80201500D01*
X94889002Y-80133379D01*
X94942658Y-80086886D01*
X94995000Y-80075500D01*
X100458000Y-80075500D01*
X100526121Y-80095502D01*
G37*
%TD.AperFunction*%
%TD*%
M02*
