%TF.GenerationSoftware,KiCad,Pcbnew,9.0.4-9.0.4-0~ubuntu24.04.1*%
%TF.CreationDate,2025-08-23T18:45:24+02:00*%
%TF.ProjectId,BLDC_4,424c4443-5f34-42e6-9b69-6361645f7063,4.13*%
%TF.SameCoordinates,Original*%
%TF.FileFunction,Soldermask,Bot*%
%TF.FilePolarity,Negative*%
%FSLAX46Y46*%
G04 Gerber Fmt 4.6, Leading zero omitted, Abs format (unit mm)*
G04 Created by KiCad (PCBNEW 9.0.4-9.0.4-0~ubuntu24.04.1) date 2025-08-23 18:45:24*
%MOMM*%
%LPD*%
G01*
G04 APERTURE LIST*
G04 Aperture macros list*
%AMRotRect*
0 Rectangle, with rotation*
0 The origin of the aperture is its center*
0 $1 length*
0 $2 width*
0 $3 Rotation angle, in degrees counterclockwise*
0 Add horizontal line*
21,1,$1,$2,0,0,$3*%
G04 Aperture macros list end*
%ADD10O,1.000000X1.800000*%
%ADD11O,1.000000X2.100000*%
%ADD12C,0.650000*%
%ADD13R,2.400000X2.400000*%
%ADD14C,2.400000*%
%ADD15O,1.524000X3.048000*%
%ADD16R,1.700000X1.700000*%
%ADD17O,1.700000X1.700000*%
%ADD18O,1.350000X1.700000*%
%ADD19O,1.100000X1.500000*%
%ADD20C,1.300480*%
%ADD21R,2.499360X1.950720*%
%ADD22R,5.499100X1.849120*%
%ADD23R,0.797560X0.797560*%
%ADD24C,7.400000*%
%ADD25R,2.540000X5.588000*%
%ADD26R,2.540000X0.889000*%
%ADD27R,1.400000X1.200000*%
%ADD28R,2.540000X1.699260*%
%ADD29R,10.800080X8.150860*%
%ADD30R,0.899160X3.200400*%
%ADD31R,0.635000X1.143000*%
%ADD32RotRect,0.635000X1.143000X225.000000*%
%ADD33R,1.143000X0.635000*%
%ADD34R,1.524000X2.032000*%
%ADD35R,2.032000X1.016000*%
%ADD36R,2.032000X3.657600*%
%ADD37R,3.500120X1.800860*%
G04 APERTURE END LIST*
D10*
%TO.C,J803*%
X79380000Y-148990000D03*
D11*
X79380000Y-153190000D03*
D10*
X88020000Y-148990000D03*
D11*
X88020000Y-153190000D03*
D12*
X80810000Y-152670000D03*
X86590000Y-152670000D03*
%TD*%
D13*
%TO.C,C45*%
X83000000Y-102500000D03*
D14*
X88000000Y-102500000D03*
%TD*%
D13*
%TO.C,C42*%
X110500000Y-98500000D03*
D14*
X105500000Y-98500000D03*
%TD*%
D15*
%TO.C,K801*%
X114840000Y-149100000D03*
X112300000Y-149100000D03*
X109760000Y-149100000D03*
%TD*%
D16*
%TO.C,J101*%
X79250000Y-143250000D03*
D17*
X79250000Y-140710000D03*
X81790000Y-143250000D03*
X81790000Y-140710000D03*
X84330000Y-143250000D03*
X84330000Y-140710000D03*
X86870000Y-143250000D03*
X86870000Y-140710000D03*
X89410000Y-143250000D03*
X89410000Y-140710000D03*
X91950000Y-143250000D03*
X91950000Y-140710000D03*
X94490000Y-143250000D03*
X94490000Y-140710000D03*
X97030000Y-143250000D03*
X97030000Y-140710000D03*
X99570000Y-143250000D03*
X99570000Y-140710000D03*
X102110000Y-143250000D03*
X102110000Y-140710000D03*
X104650000Y-143250000D03*
X104650000Y-140710000D03*
X107190000Y-143250000D03*
X107190000Y-140710000D03*
X109730000Y-143250000D03*
X109730000Y-140710000D03*
X112270000Y-143250000D03*
X112270000Y-140710000D03*
X114810000Y-143250000D03*
X114810000Y-140710000D03*
%TD*%
D18*
%TO.C,X801*%
X95930000Y-149420000D03*
D19*
X95620000Y-152420000D03*
X90780000Y-152420000D03*
D18*
X90470000Y-149420000D03*
%TD*%
D16*
%TO.C,J802*%
X79047600Y-166950000D03*
D17*
X79047600Y-164410000D03*
X81587600Y-166950000D03*
X81587600Y-164410000D03*
X84127600Y-166950000D03*
X84127600Y-164410000D03*
X86667600Y-166950000D03*
X86667600Y-164410000D03*
X89207600Y-166950000D03*
X89207600Y-164410000D03*
X91747600Y-166950000D03*
X91747600Y-164410000D03*
X94287600Y-166950000D03*
X94287600Y-164410000D03*
X96827600Y-166950000D03*
X96827600Y-164410000D03*
X99367600Y-166950000D03*
X99367600Y-164410000D03*
X101907600Y-166950000D03*
X101907600Y-164410000D03*
X104447600Y-166950000D03*
X104447600Y-164410000D03*
X106987600Y-166950000D03*
X106987600Y-164410000D03*
X109527600Y-166950000D03*
X109527600Y-164410000D03*
X112067600Y-166950000D03*
X112067600Y-164410000D03*
X114607600Y-166950000D03*
X114607600Y-164410000D03*
%TD*%
D20*
%TO.C,P801*%
X100498740Y-153600000D03*
X102500260Y-153600000D03*
X104499240Y-153600000D03*
X106500760Y-153600000D03*
X108499740Y-153600000D03*
X110501260Y-153600000D03*
%TD*%
D16*
%TO.C,J801*%
X79247600Y-160650000D03*
D17*
X79247600Y-158110000D03*
X81787600Y-160650000D03*
X81787600Y-158110000D03*
X84327600Y-160650000D03*
X84327600Y-158110000D03*
X86867600Y-160650000D03*
X86867600Y-158110000D03*
X89407600Y-160650000D03*
X89407600Y-158110000D03*
X91947600Y-160650000D03*
X91947600Y-158110000D03*
X94487600Y-160650000D03*
X94487600Y-158110000D03*
X97027600Y-160650000D03*
X97027600Y-158110000D03*
X99567600Y-160650000D03*
X99567600Y-158110000D03*
X102107600Y-160650000D03*
X102107600Y-158110000D03*
X104647600Y-160650000D03*
X104647600Y-158110000D03*
X107187600Y-160650000D03*
X107187600Y-158110000D03*
X109727600Y-160650000D03*
X109727600Y-158110000D03*
X112267600Y-160650000D03*
X112267600Y-158110000D03*
X114807600Y-160650000D03*
X114807600Y-158110000D03*
%TD*%
D21*
%TO.C,C25*%
X80391000Y-125222000D03*
X80391000Y-122174000D03*
%TD*%
%TO.C,C33*%
X83000000Y-116776000D03*
X83000000Y-119824000D03*
%TD*%
D22*
%TO.C,C51*%
X110490000Y-120431560D03*
X110490000Y-115280440D03*
%TD*%
D23*
%TO.C,D1*%
X111887000Y-123939300D03*
X111887000Y-122440700D03*
%TD*%
%TO.C,D2*%
X110450000Y-123949300D03*
X110450000Y-122450700D03*
%TD*%
%TO.C,D3*%
X109050000Y-123949300D03*
X109050000Y-122450700D03*
%TD*%
D24*
%TO.C,P4*%
X81011557Y-92084779D03*
%TD*%
%TO.C,P5*%
X97532119Y-91824580D03*
%TD*%
D25*
%TO.C,R53*%
X102192000Y-91833250D03*
X107272000Y-91833250D03*
D26*
X102192000Y-95960750D03*
X107272000Y-95960750D03*
%TD*%
D27*
%TO.C,X2*%
X97100000Y-132250000D03*
X99300000Y-132250000D03*
X99300000Y-133950000D03*
X97100000Y-133950000D03*
%TD*%
D25*
%TO.C,R54*%
X87460000Y-91579250D03*
X92540000Y-91579250D03*
D26*
X87460000Y-95706750D03*
X92540000Y-95706750D03*
%TD*%
D28*
%TO.C,D5*%
X115229740Y-134000000D03*
X111770260Y-134000000D03*
%TD*%
D29*
%TO.C,Q6*%
X84627290Y-75136160D03*
D30*
X88437290Y-85738120D03*
X87167290Y-85738120D03*
X85897290Y-85738120D03*
X83357290Y-85738120D03*
X82087290Y-85738120D03*
X80817290Y-85738120D03*
%TD*%
D29*
%TO.C,Q2*%
X110535290Y-75136160D03*
D30*
X114345290Y-85738120D03*
X113075290Y-85738120D03*
X111805290Y-85738120D03*
X109265290Y-85738120D03*
X107995290Y-85738120D03*
X106725290Y-85738120D03*
%TD*%
D29*
%TO.C,Q4*%
X97708290Y-75136160D03*
D30*
X101518290Y-85738120D03*
X100248290Y-85738120D03*
X98978290Y-85738120D03*
X96438290Y-85738120D03*
X95168290Y-85738120D03*
X93898290Y-85738120D03*
%TD*%
D31*
%TO.C,C2*%
X82538000Y-129700000D03*
X84062000Y-129700000D03*
%TD*%
D32*
%TO.C,C3*%
X112552815Y-128747185D03*
X111475185Y-129824815D03*
%TD*%
D33*
%TO.C,C4*%
X80500000Y-133738000D03*
X80500000Y-135262000D03*
%TD*%
%TO.C,C5*%
X92456000Y-132588000D03*
X92456000Y-131064000D03*
%TD*%
%TO.C,C6*%
X90900000Y-132562000D03*
X90900000Y-131038000D03*
%TD*%
%TO.C,C7*%
X86350000Y-132562000D03*
X86350000Y-131038000D03*
%TD*%
D34*
%TO.C,C9*%
X102549000Y-116300000D03*
X105851000Y-116300000D03*
%TD*%
D33*
%TO.C,C14*%
X96012000Y-124079000D03*
X96012000Y-125603000D03*
%TD*%
D31*
%TO.C,C15*%
X96774000Y-130810000D03*
X98298000Y-130810000D03*
%TD*%
D33*
%TO.C,C16*%
X107600000Y-126762000D03*
X107600000Y-125238000D03*
%TD*%
%TO.C,C17*%
X97663000Y-125603000D03*
X97663000Y-124079000D03*
%TD*%
D31*
%TO.C,C18*%
X100203000Y-121285000D03*
X101727000Y-121285000D03*
%TD*%
D33*
%TO.C,C20*%
X105918000Y-123571000D03*
X105918000Y-122047000D03*
%TD*%
%TO.C,C24*%
X85090000Y-123698000D03*
X85090000Y-122174000D03*
%TD*%
D31*
%TO.C,C32*%
X95250000Y-135763000D03*
X93726000Y-135763000D03*
%TD*%
%TO.C,C38*%
X101092000Y-130810000D03*
X99568000Y-130810000D03*
%TD*%
D34*
%TO.C,C40*%
X105537000Y-111760000D03*
X108839000Y-111760000D03*
%TD*%
%TO.C,C43*%
X92329000Y-112268000D03*
X95631000Y-112268000D03*
%TD*%
%TO.C,C44*%
X94488000Y-116205000D03*
X97790000Y-116205000D03*
%TD*%
%TO.C,C49*%
X94488000Y-118618000D03*
X97790000Y-118618000D03*
%TD*%
D33*
%TO.C,C52*%
X107442000Y-123571000D03*
X107442000Y-122047000D03*
%TD*%
%TO.C,R3*%
X85200000Y-125338000D03*
X85200000Y-126862000D03*
%TD*%
%TO.C,R4*%
X85200000Y-129762000D03*
X85200000Y-128238000D03*
%TD*%
D31*
%TO.C,R6*%
X80962000Y-129300000D03*
X79438000Y-129300000D03*
%TD*%
D33*
%TO.C,R7*%
X83312000Y-135762000D03*
X83312000Y-134238000D03*
%TD*%
%TO.C,R8*%
X86360000Y-135128000D03*
X86360000Y-133604000D03*
%TD*%
%TO.C,R9*%
X89408000Y-135128000D03*
X89408000Y-133604000D03*
%TD*%
%TO.C,R10*%
X92456000Y-135128000D03*
X92456000Y-133604000D03*
%TD*%
%TO.C,R11*%
X90932000Y-135128000D03*
X90932000Y-133604000D03*
%TD*%
%TO.C,R12*%
X87884000Y-135128000D03*
X87884000Y-133604000D03*
%TD*%
%TO.C,R13*%
X84836000Y-135128000D03*
X84836000Y-133604000D03*
%TD*%
D31*
%TO.C,R21*%
X93472000Y-121666000D03*
X94996000Y-121666000D03*
%TD*%
D33*
%TO.C,R22*%
X109100000Y-125238000D03*
X109100000Y-126762000D03*
%TD*%
D31*
%TO.C,R23*%
X87503000Y-128524000D03*
X89027000Y-128524000D03*
%TD*%
%TO.C,R24*%
X93462000Y-128050000D03*
X91938000Y-128050000D03*
%TD*%
%TO.C,R26*%
X87503000Y-127000000D03*
X89027000Y-127000000D03*
%TD*%
%TO.C,R27*%
X93462000Y-126550000D03*
X91938000Y-126550000D03*
%TD*%
%TO.C,R29*%
X114808000Y-103124000D03*
X113284000Y-103124000D03*
%TD*%
D33*
%TO.C,R30*%
X104185290Y-82052580D03*
X104185290Y-80528580D03*
%TD*%
D31*
%TO.C,R32*%
X87488000Y-125450000D03*
X89012000Y-125450000D03*
%TD*%
%TO.C,R33*%
X93462000Y-125050000D03*
X91938000Y-125050000D03*
%TD*%
D33*
%TO.C,R35*%
X104185290Y-85735580D03*
X104185290Y-87259580D03*
%TD*%
%TO.C,R36*%
X104185290Y-83195580D03*
X104185290Y-84719580D03*
%TD*%
%TO.C,R37*%
X112100000Y-125238000D03*
X112100000Y-126762000D03*
%TD*%
%TO.C,R38*%
X110600000Y-125238000D03*
X110600000Y-126762000D03*
%TD*%
%TO.C,R43*%
X90977290Y-85227580D03*
X90977290Y-86751580D03*
%TD*%
%TO.C,R46*%
X90977290Y-82433580D03*
X90977290Y-83957580D03*
%TD*%
D31*
%TO.C,R402*%
X83662000Y-131300000D03*
X82138000Y-131300000D03*
%TD*%
D35*
%TO.C,U2*%
X85598000Y-120650000D03*
X85598000Y-118364000D03*
D36*
X92202000Y-118364000D03*
D35*
X85598000Y-116078000D03*
%TD*%
D37*
%TO.C,D4*%
X84495640Y-113030000D03*
X89494360Y-113030000D03*
%TD*%
D31*
%TO.C,C26*%
X100203000Y-119888000D03*
X101727000Y-119888000D03*
%TD*%
G36*
X100584008Y-101219000D02*
G01*
X100585000Y-101219000D01*
X100585100Y-101219029D01*
X100585706Y-101219046D01*
X100585701Y-101219206D01*
X100653121Y-101239002D01*
X100699614Y-101292658D01*
X100711000Y-101345000D01*
X100711000Y-102870000D01*
X101093000Y-102870000D01*
X101161121Y-102890002D01*
X101207614Y-102943658D01*
X101219000Y-102996000D01*
X101219000Y-107951000D01*
X101198998Y-108019121D01*
X101145342Y-108065614D01*
X101093000Y-108077000D01*
X93957193Y-108077000D01*
X93889072Y-108056998D01*
X93842579Y-108003342D01*
X93833434Y-107974660D01*
X92529414Y-101153855D01*
X92536269Y-101083191D01*
X92580239Y-101027449D01*
X92647366Y-101004329D01*
X92656585Y-101004241D01*
X100584008Y-101219000D01*
G37*
G36*
X112283931Y-97556002D02*
G01*
X112304905Y-97572905D01*
X113247095Y-98515095D01*
X113281121Y-98577407D01*
X113284000Y-98604190D01*
X113284000Y-101801810D01*
X113263998Y-101869931D01*
X113247095Y-101890905D01*
X109256905Y-105881095D01*
X109194593Y-105915121D01*
X109167810Y-105918000D01*
X106679000Y-105918000D01*
X106610879Y-105897998D01*
X106564386Y-105844342D01*
X106553000Y-105792000D01*
X106553000Y-98477190D01*
X106573002Y-98409069D01*
X106589905Y-98388095D01*
X107405095Y-97572905D01*
X107467407Y-97538879D01*
X107494190Y-97536000D01*
X112215810Y-97536000D01*
X112283931Y-97556002D01*
G37*
G36*
X88072121Y-84020002D02*
G01*
X88118614Y-84073658D01*
X88130000Y-84126000D01*
X88130000Y-90732000D01*
X88109998Y-90800121D01*
X88056342Y-90846614D01*
X88004000Y-90858000D01*
X86404190Y-90858000D01*
X86336069Y-90837998D01*
X86315095Y-90821095D01*
X84066001Y-88572000D01*
X80890000Y-88572000D01*
X80821879Y-88551998D01*
X80775386Y-88498342D01*
X80764000Y-88446000D01*
X80764000Y-84126000D01*
X80784002Y-84057879D01*
X80837658Y-84011386D01*
X80890000Y-84000000D01*
X88004000Y-84000000D01*
X88072121Y-84020002D01*
G37*
M02*
