%TF.GenerationSoftware,KiCad,Pcbnew,9.0.4-9.0.4-0~ubuntu24.04.1*%
%TF.CreationDate,2025-08-23T18:45:24+02:00*%
%TF.ProjectId,BLDC_4,424c4443-5f34-42e6-9b69-6361645f7063,4.13*%
%TF.SameCoordinates,Original*%
%TF.FileFunction,Soldermask,Top*%
%TF.FilePolarity,Negative*%
%FSLAX46Y46*%
G04 Gerber Fmt 4.6, Leading zero omitted, Abs format (unit mm)*
G04 Created by KiCad (PCBNEW 9.0.4-9.0.4-0~ubuntu24.04.1) date 2025-08-23 18:45:24*
%MOMM*%
%LPD*%
G01*
G04 APERTURE LIST*
G04 Aperture macros list*
%AMRotRect*
0 Rectangle, with rotation*
0 The origin of the aperture is its center*
0 $1 length*
0 $2 width*
0 $3 Rotation angle, in degrees counterclockwise*
0 Add horizontal line*
21,1,$1,$2,0,0,$3*%
G04 Aperture macros list end*
%ADD10O,1.000000X1.800000*%
%ADD11O,1.000000X2.100000*%
%ADD12R,0.600000X1.240000*%
%ADD13R,0.300000X1.240000*%
%ADD14C,0.650000*%
%ADD15R,1.849120X5.499100*%
%ADD16R,5.000000X4.000000*%
%ADD17R,10.800080X8.150860*%
%ADD18R,0.899160X3.200400*%
%ADD19R,0.300000X1.300480*%
%ADD20R,1.300480X0.300000*%
%ADD21R,0.299720X1.501140*%
%ADD22R,7.000240X3.599180*%
%ADD23R,1.524000X2.032000*%
%ADD24R,1.143000X0.635000*%
%ADD25RotRect,0.635000X1.143000X45.000000*%
%ADD26R,0.635000X1.143000*%
%ADD27R,2.032000X1.524000*%
%ADD28R,1.399540X0.599440*%
%ADD29R,2.997200X7.498080*%
%ADD30R,2.400000X2.400000*%
%ADD31C,2.400000*%
%ADD32O,1.524000X3.048000*%
%ADD33R,1.700000X1.700000*%
%ADD34O,1.700000X1.700000*%
%ADD35R,0.400000X1.650000*%
%ADD36R,1.825000X0.700000*%
%ADD37R,2.000000X1.500000*%
%ADD38R,1.350000X2.000000*%
%ADD39O,1.350000X1.700000*%
%ADD40O,1.100000X1.500000*%
%ADD41R,1.430000X2.500000*%
%ADD42C,1.300480*%
%ADD43C,7.400000*%
G04 APERTURE END LIST*
D10*
%TO.C,J803*%
X79380000Y-148990000D03*
D11*
X79380000Y-153190000D03*
D10*
X88020000Y-148990000D03*
D11*
X88020000Y-153190000D03*
D12*
X86900000Y-153790000D03*
X86100000Y-153790000D03*
D13*
X85450000Y-153790000D03*
X84450000Y-153790000D03*
X82950000Y-153790000D03*
X81950000Y-153790000D03*
D12*
X81300000Y-153790000D03*
X80500000Y-153790000D03*
X80500000Y-153790000D03*
X81300000Y-153790000D03*
D13*
X82450000Y-153790000D03*
X83450000Y-153790000D03*
X83950000Y-153790000D03*
X84950000Y-153790000D03*
D12*
X86100000Y-153790000D03*
X86900000Y-153790000D03*
D14*
X80810000Y-152670000D03*
X86590000Y-152670000D03*
%TD*%
D15*
%TO.C,C37*%
X93424440Y-99500000D03*
X98575560Y-99500000D03*
%TD*%
D16*
%TO.C,P6*%
X84881290Y-67955580D03*
%TD*%
%TO.C,P9*%
X109265290Y-67955580D03*
%TD*%
D17*
%TO.C,Q1*%
X110535290Y-83000000D03*
D18*
X114345290Y-72398040D03*
X113075290Y-72398040D03*
X111805290Y-72398040D03*
X109265290Y-72398040D03*
X107995290Y-72398040D03*
X106725290Y-72398040D03*
%TD*%
D17*
%TO.C,Q3*%
X97708290Y-83000000D03*
D18*
X101518290Y-72398040D03*
X100248290Y-72398040D03*
X98978290Y-72398040D03*
X96438290Y-72398040D03*
X95168290Y-72398040D03*
X93898290Y-72398040D03*
%TD*%
D17*
%TO.C,Q5*%
X84500290Y-83000000D03*
D18*
X88310290Y-72398040D03*
X87040290Y-72398040D03*
X85770290Y-72398040D03*
X83230290Y-72398040D03*
X81960290Y-72398040D03*
X80690290Y-72398040D03*
%TD*%
D19*
%TO.C,U1*%
X97088960Y-136814560D03*
X97586800Y-136814560D03*
X98087180Y-136814560D03*
X98587560Y-136814560D03*
X99087940Y-136814560D03*
X99588320Y-136814560D03*
X100088700Y-136814560D03*
X100589080Y-136814560D03*
X101086920Y-136814560D03*
X101587300Y-136814560D03*
X102087680Y-136814560D03*
X102588060Y-136814560D03*
X103088440Y-136814560D03*
X103588820Y-136814560D03*
X104089200Y-136814560D03*
X104587040Y-136814560D03*
D20*
X106588560Y-134813040D03*
X106588560Y-134315200D03*
X106588560Y-133814820D03*
X106588560Y-133314440D03*
X106588560Y-132814060D03*
X106588560Y-132313680D03*
X106588560Y-131813300D03*
X106588560Y-131312920D03*
X106588560Y-130815080D03*
X106588560Y-130314700D03*
X106588560Y-129814320D03*
X106588560Y-129313940D03*
X106588560Y-128813560D03*
X106588560Y-128313180D03*
X106588560Y-127812800D03*
X106588560Y-127314960D03*
D19*
X104587040Y-125313440D03*
X104089200Y-125313440D03*
X103588820Y-125313440D03*
X103088440Y-125313440D03*
X102588060Y-125313440D03*
X102087680Y-125313440D03*
X101587300Y-125313440D03*
X101086920Y-125313440D03*
X100589080Y-125313440D03*
X100088700Y-125313440D03*
X99588320Y-125313440D03*
X99087940Y-125313440D03*
X98587560Y-125313440D03*
X98087180Y-125313440D03*
X97586800Y-125313440D03*
X97088960Y-125313440D03*
D20*
X95087440Y-127314960D03*
X95087440Y-127812800D03*
X95087440Y-128313180D03*
X95087440Y-128813560D03*
X95087440Y-129313940D03*
X95087440Y-129814320D03*
X95087440Y-130314700D03*
X95087440Y-130815080D03*
X95087440Y-131312920D03*
X95087440Y-131813300D03*
X95087440Y-132313680D03*
X95087440Y-132814060D03*
X95087440Y-133314440D03*
X95087440Y-133814820D03*
X95087440Y-134315200D03*
X95087440Y-134813040D03*
%TD*%
D21*
%TO.C,U3*%
X95158560Y-119824500D03*
X95656400Y-119824500D03*
X96156780Y-119824500D03*
X96657160Y-119824500D03*
X97157540Y-119824500D03*
X97657920Y-119824500D03*
X98158300Y-119824500D03*
X98656140Y-119824500D03*
X99156520Y-119824500D03*
X99656900Y-119824500D03*
X100157280Y-119824500D03*
X100657660Y-119824500D03*
X101158040Y-119824500D03*
X101658420Y-119824500D03*
X102156260Y-119824500D03*
X102656640Y-119824500D03*
X103157020Y-119824500D03*
X103657400Y-119824500D03*
X104157780Y-119824500D03*
X104658160Y-119824500D03*
X105158540Y-119824500D03*
X105656380Y-119824500D03*
X106156760Y-119824500D03*
X106657140Y-119824500D03*
X107157520Y-119824500D03*
X107657900Y-119824500D03*
X108158280Y-119824500D03*
X108656120Y-119824500D03*
X108656120Y-111823500D03*
X108158280Y-111823500D03*
X107657900Y-111823500D03*
X107157520Y-111823500D03*
X106657140Y-111823500D03*
X106156760Y-111823500D03*
X105656380Y-111823500D03*
X105158540Y-111823500D03*
X104658160Y-111823500D03*
X104157780Y-111823500D03*
X103657400Y-111823500D03*
X103157020Y-111823500D03*
X102656640Y-111823500D03*
X102156260Y-111823500D03*
X101658420Y-111823500D03*
X101158040Y-111823500D03*
X100657660Y-111823500D03*
X100157280Y-111823500D03*
X99656900Y-111823500D03*
X99156520Y-111823500D03*
X98656140Y-111823500D03*
X98158300Y-111823500D03*
X97657920Y-111823500D03*
X97157540Y-111823500D03*
X96657160Y-111823500D03*
X96156780Y-111823500D03*
X95656400Y-111823500D03*
X95158560Y-111823500D03*
D22*
X101854000Y-115824000D03*
%TD*%
D16*
%TO.C,P7*%
X97581290Y-67955580D03*
%TD*%
D23*
%TO.C,C1*%
X95885000Y-106045000D03*
X99187000Y-106045000D03*
%TD*%
%TO.C,C8*%
X95885000Y-103505000D03*
X99187000Y-103505000D03*
%TD*%
D24*
%TO.C,C10*%
X108331000Y-125349000D03*
X108331000Y-126873000D03*
%TD*%
D25*
%TO.C,C11*%
X110586185Y-133126815D03*
X111663815Y-132049185D03*
%TD*%
D24*
%TO.C,C12*%
X98552000Y-123444000D03*
X98552000Y-121920000D03*
%TD*%
%TO.C,C13*%
X93100000Y-127562000D03*
X93100000Y-126038000D03*
%TD*%
D26*
%TO.C,C19*%
X94234000Y-122174000D03*
X95758000Y-122174000D03*
%TD*%
D24*
%TO.C,C21*%
X92964000Y-122174000D03*
X92964000Y-123698000D03*
%TD*%
D26*
%TO.C,C22*%
X101727000Y-122682000D03*
X103251000Y-122682000D03*
%TD*%
%TO.C,C23*%
X110363000Y-121920000D03*
X108839000Y-121920000D03*
%TD*%
%TO.C,C27*%
X97155000Y-109474000D03*
X95631000Y-109474000D03*
%TD*%
%TO.C,C28*%
X100203000Y-108204000D03*
X98679000Y-108204000D03*
%TD*%
%TO.C,C29*%
X102489000Y-105410000D03*
X100965000Y-105410000D03*
%TD*%
%TO.C,C30*%
X104902000Y-108077000D03*
X103378000Y-108077000D03*
%TD*%
%TO.C,C31*%
X110762000Y-135500000D03*
X109238000Y-135500000D03*
%TD*%
%TO.C,C34*%
X106934000Y-108712000D03*
X108458000Y-108712000D03*
%TD*%
%TO.C,C35*%
X94615000Y-137160000D03*
X96139000Y-137160000D03*
%TD*%
%TO.C,C36*%
X109728000Y-108712000D03*
X111252000Y-108712000D03*
%TD*%
D27*
%TO.C,C39*%
X110998000Y-117348000D03*
X110998000Y-114046000D03*
%TD*%
D24*
%TO.C,C41*%
X111760000Y-125730000D03*
X111760000Y-127254000D03*
%TD*%
%TO.C,C401*%
X93000000Y-130188000D03*
X93000000Y-131712000D03*
%TD*%
D26*
%TO.C,R1*%
X114738000Y-88000000D03*
X116262000Y-88000000D03*
%TD*%
D24*
%TO.C,R2*%
X111760000Y-129794000D03*
X111760000Y-128270000D03*
%TD*%
D26*
%TO.C,R17*%
X86360000Y-120396000D03*
X87884000Y-120396000D03*
%TD*%
%TO.C,R18*%
X88900000Y-120396000D03*
X90424000Y-120396000D03*
%TD*%
%TO.C,R19*%
X94234000Y-123698000D03*
X95758000Y-123698000D03*
%TD*%
D24*
%TO.C,R20*%
X97028000Y-121920000D03*
X97028000Y-123444000D03*
%TD*%
D26*
%TO.C,R25*%
X92329000Y-110236000D03*
X93853000Y-110236000D03*
%TD*%
D24*
%TO.C,R28*%
X114599290Y-69733580D03*
X114599290Y-68209580D03*
%TD*%
%TO.C,R34*%
X104185290Y-74305580D03*
X104185290Y-75829580D03*
%TD*%
%TO.C,R42*%
X91231290Y-73162580D03*
X91231290Y-74686580D03*
%TD*%
%TO.C,R48*%
X106807000Y-105918000D03*
X106807000Y-107442000D03*
%TD*%
%TO.C,R49*%
X108331000Y-105918000D03*
X108331000Y-107442000D03*
%TD*%
%TO.C,R50*%
X109855000Y-105918000D03*
X109855000Y-107442000D03*
%TD*%
%TO.C,R51*%
X111379000Y-105918000D03*
X111379000Y-107442000D03*
%TD*%
D26*
%TO.C,R103*%
X89162000Y-127550000D03*
X87638000Y-127550000D03*
%TD*%
%TO.C,R104*%
X89162000Y-126000000D03*
X87638000Y-126000000D03*
%TD*%
%TO.C,R401*%
X86762000Y-122500000D03*
X85238000Y-122500000D03*
%TD*%
D28*
%TO.C,U401*%
X91167000Y-133005000D03*
X91167000Y-131735000D03*
X91167000Y-130465000D03*
X91167000Y-129195000D03*
X85833000Y-129195000D03*
X85833000Y-130465000D03*
X85833000Y-131735000D03*
X85833000Y-133005000D03*
%TD*%
D29*
%TO.C,L1*%
X91399360Y-115062000D03*
X86400640Y-115062000D03*
%TD*%
D30*
%TO.C,C45*%
X83000000Y-102500000D03*
D31*
X88000000Y-102500000D03*
%TD*%
D26*
%TO.C,R802*%
X113338000Y-154100000D03*
X114862000Y-154100000D03*
%TD*%
D30*
%TO.C,C42*%
X110500000Y-98500000D03*
D31*
X105500000Y-98500000D03*
%TD*%
D32*
%TO.C,K801*%
X114840000Y-149100000D03*
X112300000Y-149100000D03*
X109760000Y-149100000D03*
%TD*%
D33*
%TO.C,J101*%
X79250000Y-143250000D03*
D34*
X79250000Y-140710000D03*
X81790000Y-143250000D03*
X81790000Y-140710000D03*
X84330000Y-143250000D03*
X84330000Y-140710000D03*
X86870000Y-143250000D03*
X86870000Y-140710000D03*
X89410000Y-143250000D03*
X89410000Y-140710000D03*
X91950000Y-143250000D03*
X91950000Y-140710000D03*
X94490000Y-143250000D03*
X94490000Y-140710000D03*
X97030000Y-143250000D03*
X97030000Y-140710000D03*
X99570000Y-143250000D03*
X99570000Y-140710000D03*
X102110000Y-143250000D03*
X102110000Y-140710000D03*
X104650000Y-143250000D03*
X104650000Y-140710000D03*
X107190000Y-143250000D03*
X107190000Y-140710000D03*
X109730000Y-143250000D03*
X109730000Y-140710000D03*
X112270000Y-143250000D03*
X112270000Y-140710000D03*
X114810000Y-143250000D03*
X114810000Y-140710000D03*
%TD*%
D26*
%TO.C,R801*%
X113338000Y-155800000D03*
X114862000Y-155800000D03*
%TD*%
D35*
%TO.C,X801*%
X94500000Y-152300000D03*
X93850000Y-152300000D03*
X93200000Y-152300000D03*
X92550000Y-152300000D03*
X91900000Y-152300000D03*
D36*
X96150000Y-151100000D03*
D37*
X96050000Y-152400000D03*
D38*
X95930000Y-150350000D03*
D39*
X95930000Y-149420000D03*
D40*
X95620000Y-152420000D03*
D41*
X94160000Y-149150000D03*
X92240000Y-149150000D03*
D40*
X90780000Y-152420000D03*
D39*
X90470000Y-149420000D03*
D38*
X90450000Y-150350000D03*
D37*
X90300000Y-152420000D03*
D36*
X90200000Y-151100000D03*
%TD*%
D33*
%TO.C,J802*%
X79047600Y-166950000D03*
D34*
X79047600Y-164410000D03*
X81587600Y-166950000D03*
X81587600Y-164410000D03*
X84127600Y-166950000D03*
X84127600Y-164410000D03*
X86667600Y-166950000D03*
X86667600Y-164410000D03*
X89207600Y-166950000D03*
X89207600Y-164410000D03*
X91747600Y-166950000D03*
X91747600Y-164410000D03*
X94287600Y-166950000D03*
X94287600Y-164410000D03*
X96827600Y-166950000D03*
X96827600Y-164410000D03*
X99367600Y-166950000D03*
X99367600Y-164410000D03*
X101907600Y-166950000D03*
X101907600Y-164410000D03*
X104447600Y-166950000D03*
X104447600Y-164410000D03*
X106987600Y-166950000D03*
X106987600Y-164410000D03*
X109527600Y-166950000D03*
X109527600Y-164410000D03*
X112067600Y-166950000D03*
X112067600Y-164410000D03*
X114607600Y-166950000D03*
X114607600Y-164410000D03*
%TD*%
D42*
%TO.C,P801*%
X100498740Y-153600000D03*
X102500260Y-153600000D03*
X104499240Y-153600000D03*
X106500760Y-153600000D03*
X108499740Y-153600000D03*
X110501260Y-153600000D03*
%TD*%
D33*
%TO.C,J801*%
X79247600Y-160650000D03*
D34*
X79247600Y-158110000D03*
X81787600Y-160650000D03*
X81787600Y-158110000D03*
X84327600Y-160650000D03*
X84327600Y-158110000D03*
X86867600Y-160650000D03*
X86867600Y-158110000D03*
X89407600Y-160650000D03*
X89407600Y-158110000D03*
X91947600Y-160650000D03*
X91947600Y-158110000D03*
X94487600Y-160650000D03*
X94487600Y-158110000D03*
X97027600Y-160650000D03*
X97027600Y-158110000D03*
X99567600Y-160650000D03*
X99567600Y-158110000D03*
X102107600Y-160650000D03*
X102107600Y-158110000D03*
X104647600Y-160650000D03*
X104647600Y-158110000D03*
X107187600Y-160650000D03*
X107187600Y-158110000D03*
X109727600Y-160650000D03*
X109727600Y-158110000D03*
X112267600Y-160650000D03*
X112267600Y-158110000D03*
X114807600Y-160650000D03*
X114807600Y-158110000D03*
%TD*%
D43*
%TO.C,P4*%
X81011557Y-92084779D03*
%TD*%
%TO.C,P5*%
X97532119Y-91824580D03*
%TD*%
G36*
X104714801Y-77627582D02*
G01*
X104728680Y-77637914D01*
X106427290Y-79093865D01*
X106465994Y-79153384D01*
X106471290Y-79189531D01*
X106471290Y-85355580D01*
X106451288Y-85423701D01*
X106397632Y-85470194D01*
X106345290Y-85481580D01*
X103041290Y-85481580D01*
X102973169Y-85461578D01*
X102926676Y-85407922D01*
X102915290Y-85355580D01*
X102915290Y-77733580D01*
X102935292Y-77665459D01*
X102988948Y-77618966D01*
X103041290Y-77607580D01*
X104646680Y-77607580D01*
X104714801Y-77627582D01*
G37*
G36*
X92263221Y-77373582D02*
G01*
X92284195Y-77390485D01*
X93988385Y-79094675D01*
X94022411Y-79156987D01*
X94025290Y-79183770D01*
X94025290Y-86625580D01*
X94005288Y-86693701D01*
X93951632Y-86740194D01*
X93899290Y-86751580D01*
X92627290Y-86751580D01*
X92559169Y-86731578D01*
X92512676Y-86677922D01*
X92501290Y-86625580D01*
X92501290Y-85227580D01*
X90723288Y-85227580D01*
X89668385Y-86282484D01*
X89606073Y-86316510D01*
X89535258Y-86311445D01*
X89478422Y-86268898D01*
X89453611Y-86202378D01*
X89453290Y-86193389D01*
X89453290Y-77479580D01*
X89473292Y-77411459D01*
X89526948Y-77364966D01*
X89579290Y-77353580D01*
X92195100Y-77353580D01*
X92263221Y-77373582D01*
G37*
G36*
X87363411Y-65943582D02*
G01*
X87409904Y-65997238D01*
X87421290Y-66049580D01*
X87421290Y-73798580D01*
X87401288Y-73866701D01*
X87347632Y-73913194D01*
X87295290Y-73924580D01*
X80435290Y-73924580D01*
X80367169Y-73904578D01*
X80320676Y-73850922D01*
X80309290Y-73798580D01*
X80309290Y-70815859D01*
X80329292Y-70747738D01*
X80363907Y-70712030D01*
X82341289Y-69352580D01*
X82341290Y-69352580D01*
X82341290Y-66049580D01*
X82361292Y-65981459D01*
X82414948Y-65934966D01*
X82467290Y-65923580D01*
X87295290Y-65923580D01*
X87363411Y-65943582D01*
G37*
G36*
X111747411Y-65943582D02*
G01*
X111793904Y-65997238D01*
X111805290Y-66049580D01*
X111805290Y-69479581D01*
X112181737Y-69730545D01*
X112190557Y-69736993D01*
X113409002Y-70711748D01*
X113449700Y-70769922D01*
X113456290Y-70810138D01*
X113456290Y-73798580D01*
X113436288Y-73866701D01*
X113382632Y-73913194D01*
X113330290Y-73924580D01*
X106470290Y-73924580D01*
X106402169Y-73904578D01*
X106355676Y-73850922D01*
X106344290Y-73798580D01*
X106344290Y-70893452D01*
X106348730Y-70860299D01*
X106725289Y-69479580D01*
X106725290Y-69479578D01*
X106725290Y-66049580D01*
X106745292Y-65981459D01*
X106798948Y-65934966D01*
X106851290Y-65923580D01*
X111679290Y-65923580D01*
X111747411Y-65943582D01*
G37*
G36*
X100063411Y-65943582D02*
G01*
X100109904Y-65997238D01*
X100121290Y-66049580D01*
X100121290Y-69987580D01*
X100121289Y-69987580D01*
X100608128Y-70717837D01*
X100629272Y-70785612D01*
X100629290Y-70787729D01*
X100629290Y-73798580D01*
X100609288Y-73866701D01*
X100555632Y-73913194D01*
X100503290Y-73924580D01*
X93643290Y-73924580D01*
X93575169Y-73904578D01*
X93528676Y-73850922D01*
X93517290Y-73798580D01*
X93517290Y-70946988D01*
X93537292Y-70878867D01*
X93577254Y-70839679D01*
X95168289Y-69860580D01*
X95168290Y-69860579D01*
X95168290Y-66049580D01*
X95188292Y-65981459D01*
X95241948Y-65934966D01*
X95294290Y-65923580D01*
X99995290Y-65923580D01*
X100063411Y-65943582D01*
G37*
M02*
